{"glyphs":{"0":{"ha":713,"x_min":77,"x_max":636,"o":"m 77 315 q 153 557 77 464 q 355 650 230 650 q 559 558 482 650 q 636 315 636 467 q 557 76 636 170 q 355 -17 479 -17 q 152 73 228 -17 q 77 315 77 163 m 578 315 q 517 523 578 444 q 355 602 456 602 q 195 524 255 602 q 135 315 135 446 q 195 109 135 185 q 355 32 255 32 q 518 109 458 32 q 578 315 578 185 z "},"1":{"ha":564,"x_min":74,"x_max":542,"o":"m 102 0 l 102 52 l 321 52 l 321 575 l 74 493 l 74 547 l 323 633 l 376 633 l 376 52 l 542 52 l 542 0 l 102 0 z "},"2":{"ha":725,"x_min":146,"x_max":624,"o":"m 146 43 q 413 254 362 204 q 487 351 463 304 q 510 452 510 397 q 467 561 510 522 q 338 600 424 600 q 244 588 286 600 q 153 551 203 576 l 153 602 q 343 650 227 650 q 508 597 447 650 q 568 454 568 545 q 528 315 568 379 q 426 199 487 251 q 258 69 365 146 l 233 52 l 233 49 l 361 52 l 624 52 l 624 0 l 146 0 l 146 43 z "},"3":{"ha":586,"x_min":40,"x_max":524,"o":"m 40 -244 l 40 -193 q 133 -222 89 -214 q 241 -231 176 -231 q 367 -201 317 -231 q 441 -123 418 -171 q 465 -22 465 -76 q 396 124 465 75 q 199 174 327 174 l 147 174 l 147 224 l 172 224 q 323 253 265 224 q 406 329 381 283 q 431 428 431 375 q 378 554 431 507 q 233 600 326 600 q 54 559 153 600 l 54 610 q 144 638 92 627 q 240 650 196 650 q 421 590 353 650 q 489 429 489 530 q 443 288 489 349 q 306 204 396 227 l 306 201 q 465 137 406 197 q 524 -21 524 77 q 444 -211 524 -141 q 229 -281 364 -281 q 40 -244 118 -281 z "},"4":{"ha":704,"x_min":79,"x_max":646,"o":"m 443 -262 l 443 0 l 79 0 l 79 45 l 363 633 l 422 633 l 142 54 l 142 52 l 443 52 l 443 289 l 498 289 l 498 52 l 646 52 l 646 0 l 498 0 l 498 -262 l 443 -262 z "},"5":{"ha":656,"x_min":96,"x_max":578,"o":"m 96 -248 l 96 -195 q 186 -222 146 -213 q 272 -231 225 -231 q 413 -198 357 -231 q 494 -114 469 -165 q 519 -3 519 -62 q 445 152 519 99 q 225 204 370 204 q 132 200 165 204 l 192 633 l 576 633 l 576 582 l 241 582 l 196 258 l 237 258 q 488 191 398 258 q 578 3 578 123 q 496 -204 578 -127 q 275 -281 414 -281 q 96 -248 176 -281 z "},"6":{"ha":696,"x_min":85,"x_max":627,"o":"m 85 389 q 127 656 85 534 q 253 852 170 779 q 449 925 335 925 q 574 899 518 925 l 574 846 q 517 864 554 855 q 440 873 480 873 q 304 827 368 873 q 198 688 241 781 q 144 460 155 595 l 147 460 q 370 533 253 533 q 556 461 486 533 q 627 269 627 390 q 554 63 627 143 q 366 -17 481 -17 q 159 91 233 -17 q 85 389 85 198 m 568 264 q 514 423 568 365 q 364 481 460 481 q 251 459 309 481 q 143 403 193 437 q 201 130 143 227 q 367 33 260 33 q 512 98 455 33 q 568 264 568 162 z "},"7":{"ha":519,"x_min":14,"x_max":497,"o":"m 72 -262 l 429 581 l 14 581 l 14 633 l 497 633 l 497 597 l 132 -262 l 72 -262 z "},"8":{"ha":664,"x_min":60,"x_max":602,"o":"m 60 228 q 116 387 60 329 q 262 468 172 444 l 262 471 q 131 554 180 492 q 81 700 81 616 q 117 823 81 772 q 211 900 153 874 q 330 925 269 925 q 451 900 393 925 q 547 823 510 874 q 585 700 585 772 q 530 554 585 618 q 390 467 475 489 l 390 464 q 544 385 486 448 q 602 228 602 321 q 525 52 602 121 q 330 -17 449 -17 q 136 53 212 -17 q 60 228 60 122 m 528 700 q 473 827 528 780 q 330 875 419 875 q 191 827 244 875 q 138 700 138 779 q 188 565 138 616 q 330 497 239 514 q 476 566 424 514 q 528 700 528 618 m 543 231 q 483 375 543 323 q 330 439 423 427 q 177 374 235 425 q 118 231 118 323 q 177 87 118 142 q 330 33 236 33 q 485 86 427 33 q 543 231 543 140 z "},"9":{"ha":694,"x_min":72,"x_max":611,"o":"m 89 -249 l 89 -196 q 233 -229 151 -229 q 553 171 538 -229 l 550 171 q 442 122 507 142 q 319 102 376 102 q 137 173 201 102 q 72 372 72 245 q 103 512 72 448 q 194 612 135 575 q 329 650 252 650 q 539 540 467 650 q 611 224 611 431 q 514 -152 611 -22 q 239 -281 417 -281 q 89 -249 147 -281 m 554 227 q 493 507 552 413 q 329 600 434 600 q 184 538 240 600 q 129 372 129 475 q 178 206 129 259 q 330 153 228 153 q 446 173 387 153 q 554 227 505 194 z "},"\u0000":{"ha":0,"x_min":0,"x_max":0,"o":""},"\r":{"ha":271,"x_min":0,"x_max":0,"o":""}," ":{"ha":271,"x_min":0,"x_max":0,"o":""},"!":{"ha":334,"x_min":125,"x_max":208,"o":"m 134 907 l 200 907 l 186 260 l 149 261 l 134 907 m 125 0 l 125 87 l 208 87 l 208 0 l 125 0 z "},"\"":{"ha":461,"x_min":92,"x_max":370,"o":"m 92 607 l 92 907 l 146 907 l 146 607 l 92 607 m 315 607 l 315 907 l 370 907 l 370 607 l 315 607 z "},"#":{"ha":897,"x_min":89,"x_max":810,"o":"m 158 0 l 220 293 l 89 293 l 89 342 l 228 342 l 277 575 l 144 575 l 144 624 l 286 624 l 345 907 l 397 907 l 339 624 l 607 624 l 665 907 l 718 907 l 660 624 l 810 624 l 810 575 l 650 575 l 602 342 l 754 342 l 754 293 l 593 293 l 532 0 l 476 0 l 541 293 l 272 293 l 211 0 l 158 0 m 281 342 l 549 342 l 597 575 l 329 575 l 281 342 z "},"$":{"ha":694,"x_min":126,"x_max":554,"o":"m 366 16 l 366 -56 l 317 -56 l 317 11 l 301 11 q 195 21 243 11 q 126 43 147 31 l 126 100 q 306 60 198 60 l 317 60 l 317 319 q 217 348 256 332 q 155 393 178 363 q 131 476 131 424 q 181 595 131 552 q 317 647 231 639 l 317 718 l 366 718 l 366 650 q 529 614 458 650 l 529 561 q 366 602 455 600 l 366 363 q 512 299 471 340 q 554 193 554 259 q 505 72 554 117 q 366 16 456 27 m 317 372 l 317 599 q 184 476 184 585 q 199 422 184 441 q 240 393 213 403 q 317 372 267 382 m 501 191 q 472 265 501 237 q 366 309 442 293 l 366 64 q 466 106 431 73 q 501 191 501 138 z "},"%":{"ha":1090,"x_min":49,"x_max":1042,"o":"m 49 631 q 93 848 49 771 q 216 925 136 925 q 343 850 297 925 q 389 631 389 776 q 343 409 389 484 q 216 334 297 334 q 92 412 136 334 q 49 631 49 490 m 229 -9 l 193 16 l 857 905 l 894 878 l 229 -9 m 338 631 q 216 878 338 878 q 100 631 100 878 q 216 379 100 379 q 338 631 338 379 m 702 289 q 746 506 702 429 q 869 583 789 583 q 996 509 950 583 q 1042 289 1042 434 q 996 67 1042 142 q 869 -8 950 -8 q 745 70 789 -8 q 702 289 702 148 m 991 289 q 869 536 991 536 q 753 289 753 536 q 869 37 753 37 q 991 289 991 37 z "},"&":{"ha":900,"x_min":75,"x_max":807,"o":"m 741 0 l 646 92 q 363 -17 519 -17 q 197 20 261 -17 q 104 111 132 56 q 75 222 75 165 q 116 366 75 305 q 260 481 156 427 q 158 609 184 556 q 131 721 131 663 q 195 868 131 812 q 359 925 259 925 q 522 873 462 925 q 582 732 582 821 q 550 621 582 668 q 471 542 518 574 q 346 469 424 510 l 644 163 q 747 461 747 275 l 803 461 q 770 276 803 362 q 677 125 737 190 l 807 0 l 741 0 m 186 724 q 215 616 186 666 q 310 503 245 566 q 481 614 437 566 q 526 733 526 662 q 479 840 526 806 q 359 875 432 875 q 234 833 282 875 q 186 724 186 792 m 610 125 l 296 446 q 168 345 201 395 q 134 221 134 295 q 198 84 134 138 q 363 31 262 31 q 496 54 437 31 q 610 125 555 78 z "},"'":{"ha":254,"x_min":100,"x_max":154,"o":"m 100 607 l 100 907 l 154 907 l 154 607 l 100 607 z "},"(":{"ha":410,"x_min":83,"x_max":343,"o":"m 83 351 q 122 608 83 492 q 213 800 161 724 q 310 920 264 877 l 343 888 q 202 659 256 791 q 147 354 147 526 q 203 47 147 186 q 343 -184 258 -92 l 310 -215 q 213 -97 264 -174 q 122 97 161 -19 q 83 351 83 213 z "},")":{"ha":410,"x_min":66,"x_max":326,"o":"m 66 -184 q 207 47 151 -92 q 262 354 262 186 q 208 659 262 526 q 66 888 153 791 l 100 920 q 197 800 145 877 q 287 608 248 724 q 326 351 326 492 q 288 97 326 213 q 197 -97 249 -19 q 100 -215 145 -174 l 66 -184 z "},"*":{"ha":760,"x_min":89,"x_max":669,"o":"m 378 593 l 300 464 l 215 363 l 163 407 l 249 510 l 359 610 l 212 637 l 89 682 l 113 747 l 237 701 l 370 631 l 345 779 l 345 911 l 414 911 l 414 778 l 392 631 l 522 703 l 646 747 l 669 682 l 545 636 l 399 607 l 511 509 l 596 408 l 542 364 l 457 465 l 378 593 z "},"+":{"ha":694,"x_min":78,"x_max":616,"o":"m 319 62 l 319 322 l 78 322 l 78 375 l 319 375 l 319 632 l 375 632 l 375 375 l 616 375 l 616 322 l 375 322 l 375 62 l 319 62 z "},",":{"ha":309,"x_min":18,"x_max":175,"o":"m 18 -250 l 114 117 l 175 117 l 62 -250 l 18 -250 z "},"-":{"ha":463,"x_min":82,"x_max":380,"o":"m 82 309 l 82 366 l 380 366 l 380 309 l 82 309 z "},".":{"ha":334,"x_min":125,"x_max":208,"o":"m 125 0 l 125 87 l 208 87 l 208 0 l 125 0 z "},"/":{"ha":358,"x_min":22,"x_max":336,"o":"m 22 -170 l 279 907 l 336 907 l 78 -170 l 22 -170 z "},":":{"ha":334,"x_min":125,"x_max":208,"o":"m 125 403 l 125 490 l 208 490 l 208 403 l 125 403 m 125 0 l 125 87 l 208 87 l 208 0 l 125 0 z "},";":{"ha":309,"x_min":18,"x_max":191,"o":"m 107 403 l 107 490 l 191 490 l 191 403 l 107 403 m 18 -250 l 114 117 l 175 117 l 62 -250 l 18 -250 z "},"<":{"ha":694,"x_min":78,"x_max":616,"o":"m 616 40 l 78 335 l 78 378 l 616 673 l 616 618 l 138 358 l 138 355 l 616 96 l 616 40 z "},"=":{"ha":694,"x_min":78,"x_max":616,"o":"m 78 471 l 78 524 l 616 524 l 616 471 l 78 471 m 78 208 l 78 261 l 616 261 l 616 208 l 78 208 z "},">":{"ha":694,"x_min":78,"x_max":616,"o":"m 78 40 l 78 96 l 557 355 l 557 358 l 78 618 l 78 673 l 616 378 l 616 335 l 78 40 z "},"?":{"ha":562,"x_min":41,"x_max":489,"o":"m 163 292 q 191 408 163 354 q 298 526 220 461 q 370 587 345 563 q 412 645 395 612 q 429 721 429 678 q 376 831 429 790 q 232 872 322 872 q 133 861 184 872 q 41 831 81 849 l 41 885 q 229 925 123 925 q 418 869 348 925 q 489 718 489 812 q 476 649 489 681 q 437 587 463 617 q 328 489 412 556 q 238 385 260 433 q 215 272 215 336 l 215 261 l 164 261 l 163 292 m 144 0 l 144 87 l 225 87 l 225 0 l 144 0 z "},"@":{"ha":1388,"x_min":127,"x_max":1258,"o":"m 888 85 l 885 85 q 796 20 852 45 q 673 -5 740 -5 q 524 44 578 -5 q 469 180 469 93 q 531 324 469 271 q 700 378 593 378 q 880 338 794 378 l 884 338 l 884 389 q 839 551 884 503 q 696 599 794 599 q 607 590 653 599 q 529 568 561 582 l 529 619 q 699 652 606 652 q 937 403 937 652 l 937 115 q 955 64 937 80 q 1010 47 972 47 q 1149 147 1095 47 q 1203 401 1203 246 q 1137 648 1203 542 q 958 812 1071 755 q 707 869 844 869 q 422 792 541 869 q 243 588 304 715 q 183 310 183 460 q 249 30 183 150 q 437 -157 314 -91 q 728 -222 559 -222 q 916 -203 821 -222 q 1080 -154 1010 -184 l 1080 -212 q 915 -256 1015 -237 q 720 -275 815 -275 q 416 -210 550 -275 q 205 -12 282 -144 q 127 310 127 120 q 201 630 127 492 q 405 844 274 768 q 707 920 536 920 q 995 853 869 920 q 1189 668 1120 787 q 1258 395 1258 549 q 1187 113 1258 225 q 1010 0 1117 0 q 924 24 954 0 q 888 85 895 47 m 884 134 l 884 296 q 707 328 787 328 q 573 289 621 328 q 525 180 525 251 q 565 79 525 117 q 673 41 606 41 q 786 66 730 41 q 884 134 841 91 z "},"A":{"ha":854,"x_min":26,"x_max":828,"o":"m 26 0 l 397 907 l 456 907 l 828 0 l 762 0 l 632 322 l 221 322 l 92 0 l 26 0 m 610 376 l 575 464 q 429 836 462 745 l 427 836 q 335 606 399 759 q 241 376 315 559 l 610 376 z "},"B":{"ha":786,"x_min":121,"x_max":693,"o":"m 267 907 q 444 897 380 907 q 557 856 507 887 q 631 782 608 825 q 654 677 654 739 q 484 469 654 509 l 484 467 q 637 409 582 465 q 693 256 693 354 q 653 122 693 184 q 545 31 612 61 q 329 0 477 0 l 121 0 l 121 907 l 267 907 m 587 675 q 560 775 587 737 q 475 833 532 814 q 294 852 418 852 l 180 852 l 180 492 l 367 492 q 491 513 444 492 q 563 576 538 534 q 587 675 587 618 m 627 256 q 593 372 627 326 q 478 431 559 418 q 368 436 441 436 l 180 436 l 180 54 l 338 54 q 501 74 436 54 q 596 144 566 94 q 627 256 627 195 z "},"C":{"ha":825,"x_min":93,"x_max":751,"o":"m 93 446 q 151 697 93 588 q 312 865 208 806 q 551 925 416 925 q 662 914 607 925 q 742 889 718 903 l 742 832 q 557 869 637 869 q 355 821 446 869 q 210 677 264 773 q 157 444 157 582 q 263 144 157 249 q 571 39 370 39 q 751 75 665 39 l 751 20 q 667 -7 718 2 q 562 -17 616 -17 q 214 103 336 -17 q 93 446 93 223 z "},"D":{"ha":908,"x_min":121,"x_max":815,"o":"m 298 907 q 485 893 418 907 q 734 738 652 850 q 815 458 815 625 q 727 165 815 285 q 485 14 638 46 q 318 0 417 0 l 121 0 l 121 907 l 298 907 m 751 457 q 684 704 751 607 q 489 836 616 802 q 401 849 450 846 q 273 852 352 852 l 180 852 l 180 54 l 278 54 q 395 57 352 54 q 476 68 438 59 q 678 200 605 96 q 751 457 751 304 z "},"E":{"ha":745,"x_min":121,"x_max":664,"o":"m 121 907 l 637 907 l 637 852 l 180 852 l 180 492 l 599 492 l 599 437 l 180 437 l 180 54 l 664 54 l 664 0 l 121 0 l 121 907 z "},"F":{"ha":679,"x_min":121,"x_max":629,"o":"m 121 907 l 629 907 l 629 852 l 180 852 l 180 494 l 590 494 l 590 440 l 180 440 l 180 0 l 121 0 l 121 907 z "},"G":{"ha":922,"x_min":93,"x_max":802,"o":"m 93 433 q 156 696 93 585 q 331 866 220 807 q 585 925 443 925 q 695 915 644 925 q 768 893 747 905 l 768 835 q 679 858 734 848 q 576 868 624 868 q 370 821 465 868 q 215 679 274 774 q 157 444 157 583 q 266 142 157 250 q 575 35 375 35 q 742 62 650 35 l 742 392 l 532 392 l 532 449 l 802 449 l 802 28 q 709 -3 781 11 q 564 -17 637 -17 q 218 103 343 -17 q 93 433 93 222 z "},"H":{"ha":888,"x_min":121,"x_max":766,"o":"m 121 907 l 180 907 l 180 494 l 707 494 l 707 907 l 766 907 l 766 0 l 707 0 l 707 440 l 180 440 l 180 0 l 121 0 l 121 907 z "},"I":{"ha":301,"x_min":121,"x_max":180,"o":"m 121 907 l 180 907 l 180 0 l 121 0 l 121 907 z "},"J":{"ha":485,"x_min":47,"x_max":367,"o":"m 47 3 l 47 61 q 153 40 99 40 q 265 74 222 40 q 307 200 307 109 l 307 907 l 367 907 l 367 182 q 343 82 367 129 q 274 9 320 35 q 157 -17 228 -17 q 47 3 79 -16 z "},"K":{"ha":781,"x_min":121,"x_max":747,"o":"m 747 0 l 665 0 l 182 449 l 180 449 l 180 0 l 121 0 l 121 907 l 180 907 l 180 456 l 182 456 l 640 907 l 713 907 l 258 453 l 747 0 z "},"L":{"ha":701,"x_min":121,"x_max":640,"o":"m 121 907 l 180 907 l 180 54 l 640 54 l 640 0 l 121 0 l 121 907 z "},"M":{"ha":1136,"x_min":121,"x_max":1014,"o":"m 214 907 l 486 273 l 568 71 l 571 71 l 921 907 l 1014 907 l 1014 0 l 956 0 l 956 419 q 965 851 956 623 l 960 851 q 835 568 859 625 l 600 0 l 542 0 l 301 568 q 175 851 283 610 l 171 851 q 180 419 180 563 l 180 0 l 121 0 l 121 907 l 214 907 z "},"N":{"ha":926,"x_min":121,"x_max":806,"o":"m 172 907 l 581 336 l 751 92 l 755 92 q 746 372 746 177 l 746 907 l 806 907 l 806 0 l 754 0 l 345 576 l 175 817 l 172 817 q 180 498 180 731 l 180 0 l 121 0 l 121 907 l 172 907 z "},"O":{"ha":1008,"x_min":93,"x_max":916,"o":"m 93 453 q 145 696 93 588 q 292 864 198 804 q 504 925 385 925 q 721 864 628 925 q 865 696 814 804 q 916 453 916 589 q 863 212 916 319 q 718 44 811 104 q 507 -17 625 -17 q 288 43 382 -17 q 143 211 194 104 q 93 453 93 317 m 851 453 q 805 678 851 583 q 680 822 759 772 q 504 871 601 871 q 329 822 408 871 q 203 678 250 772 q 157 453 157 583 q 203 228 157 321 q 330 85 250 134 q 507 37 410 37 q 681 85 603 37 q 805 228 759 134 q 851 453 851 321 z "},"P":{"ha":753,"x_min":121,"x_max":686,"o":"m 364 907 q 601 845 516 907 q 686 664 686 783 q 583 453 686 522 q 285 385 480 385 q 180 392 244 385 l 180 0 l 121 0 l 121 907 l 364 907 m 624 661 q 550 808 624 763 q 342 852 476 852 l 180 852 l 180 446 q 285 439 248 439 q 544 496 464 439 q 624 661 624 553 z "},"Q":{"ha":1008,"x_min":93,"x_max":920,"o":"m 93 453 q 145 696 93 589 q 292 864 198 804 q 504 925 385 925 q 721 865 627 925 q 865 699 814 804 q 916 464 916 594 q 859 205 916 315 q 707 43 802 96 l 707 39 q 920 50 844 50 l 920 -5 l 832 -3 l 757 0 l 674 -5 q 505 -14 570 -14 q 206 114 319 -14 q 93 453 93 241 m 850 453 q 804 680 850 586 q 680 822 758 774 q 504 869 601 869 q 329 822 408 869 q 203 680 250 774 q 157 453 157 586 q 203 229 157 323 q 329 86 249 135 q 507 37 408 37 q 683 86 605 37 q 805 229 760 135 q 850 453 850 323 z "},"R":{"ha":777,"x_min":121,"x_max":725,"o":"m 319 907 q 452 900 404 907 q 672 667 672 857 q 600 484 672 555 q 408 406 527 412 l 408 403 l 725 0 l 652 0 l 335 399 l 180 399 l 180 0 l 121 0 l 121 907 l 319 907 m 610 668 q 532 811 610 770 q 313 852 455 852 l 180 852 l 180 453 l 315 453 q 536 503 463 453 q 610 668 610 553 z "},"S":{"ha":733,"x_min":89,"x_max":644,"o":"m 93 32 l 93 97 q 201 58 126 77 q 326 39 277 39 q 516 84 448 39 q 583 239 583 130 q 561 330 583 294 q 498 387 538 366 q 357 437 459 409 q 216 481 269 459 q 125 550 162 503 q 89 675 89 596 q 171 857 89 788 q 385 925 252 925 q 554 900 471 925 q 614 875 587 888 l 614 810 q 543 841 572 829 q 472 861 513 852 q 380 871 430 870 q 207 817 263 871 q 150 672 150 762 q 175 583 150 615 q 241 532 199 550 q 367 492 283 515 q 513 444 460 466 q 605 373 566 422 q 644 241 644 325 q 561 51 644 119 q 322 -17 477 -17 q 189 0 258 -17 q 93 32 120 17 z "},"T":{"ha":753,"x_min":33,"x_max":720,"o":"m 346 851 l 33 851 l 33 907 l 720 907 l 720 851 l 406 851 l 406 0 l 346 0 l 346 851 z "},"U":{"ha":895,"x_min":118,"x_max":777,"o":"m 118 323 l 118 907 l 178 907 l 178 298 q 249 106 178 176 q 447 37 319 37 q 646 104 576 37 q 717 298 717 171 l 717 907 l 777 907 l 777 323 q 446 -17 777 -17 q 200 71 281 -17 q 118 323 118 159 z "},"V":{"ha":804,"x_min":39,"x_max":764,"o":"m 100 907 l 275 422 q 401 61 368 168 l 404 61 q 505 357 437 170 l 703 907 l 764 907 l 435 0 l 368 0 l 39 907 l 100 907 z "},"W":{"ha":1189,"x_min":39,"x_max":1150,"o":"m 103 907 l 293 220 q 340 58 318 128 l 342 58 q 378 191 353 112 l 387 221 l 561 907 l 627 907 l 802 221 q 844 57 838 77 l 846 57 q 896 220 879 159 l 1086 907 l 1150 907 l 879 0 l 810 0 l 635 660 q 595 839 600 790 l 591 839 q 550 660 583 788 l 375 0 l 307 0 l 39 907 l 103 907 z "},"X":{"ha":746,"x_min":14,"x_max":732,"o":"m 39 907 l 107 907 l 323 575 l 375 501 l 376 501 l 429 574 l 650 907 l 717 907 l 419 460 l 732 0 l 664 0 l 429 346 l 375 422 l 372 422 l 317 343 l 81 0 l 14 0 l 332 465 l 39 907 z "},"Y":{"ha":774,"x_min":39,"x_max":734,"o":"m 357 364 l 39 907 l 104 907 l 385 416 l 389 416 l 669 907 l 734 907 l 416 364 l 416 0 l 357 0 l 357 364 z "},"Z":{"ha":793,"x_min":74,"x_max":720,"o":"m 74 52 l 646 852 l 86 852 l 86 907 l 714 907 l 714 857 l 140 54 l 720 54 l 720 0 l 74 0 l 74 52 z "},"[":{"ha":437,"x_min":121,"x_max":397,"o":"m 121 -203 l 121 907 l 397 907 l 397 859 l 178 859 l 178 -154 l 397 -154 l 397 -203 l 121 -203 z "},"\\":{"ha":358,"x_min":22,"x_max":336,"o":"m 281 -170 l 22 907 l 79 907 l 336 -170 l 281 -170 z "},"]":{"ha":437,"x_min":40,"x_max":317,"o":"m 317 -203 l 40 -203 l 40 -154 l 260 -154 l 260 859 l 40 859 l 40 907 l 317 907 l 317 -203 z "},"^":{"ha":694,"x_min":31,"x_max":664,"o":"m 31 387 l 321 925 l 374 925 l 664 387 l 604 387 l 347 857 l 345 857 l 90 387 l 31 387 z "},"_":{"ha":677,"x_min":0,"x_max":677,"o":"m 0 -149 l 0 -96 l 677 -96 l 677 -149 l 0 -149 z "},"`":{"ha":414,"x_min":135,"x_max":292,"o":"m 243 762 l 135 999 l 205 999 l 292 762 l 243 762 z "},"a":{"ha":660,"x_min":71,"x_max":545,"o":"m 71 182 q 132 321 71 268 q 290 374 193 374 q 485 336 382 374 l 485 418 q 438 554 485 508 q 289 600 391 600 q 126 568 222 600 l 126 619 q 194 641 146 631 q 289 650 242 650 q 477 592 416 650 q 539 418 539 534 l 539 203 q 545 0 539 136 l 496 0 l 486 74 l 484 74 q 393 10 452 37 q 277 -17 334 -17 q 127 33 184 -17 q 71 182 71 82 m 485 131 l 485 289 q 394 316 434 308 q 283 323 353 323 q 168 287 210 323 q 126 182 126 250 q 168 69 126 106 q 277 32 209 32 q 399 61 351 32 q 485 131 448 90 z "},"b":{"ha":720,"x_min":117,"x_max":646,"o":"m 174 74 l 172 74 l 165 0 l 117 0 q 121 199 121 100 l 121 982 l 175 982 l 175 554 l 176 554 q 263 624 211 598 q 376 650 315 650 q 576 566 506 650 q 646 318 646 482 q 608 133 646 208 q 508 20 570 57 q 371 -17 446 -17 q 257 9 303 -17 q 174 74 210 35 m 589 318 q 378 600 589 600 q 175 496 259 600 l 175 134 q 251 65 201 96 q 368 33 300 33 q 529 110 470 33 q 589 318 589 186 z "},"c":{"ha":606,"x_min":74,"x_max":542,"o":"m 74 311 q 118 508 74 432 q 228 616 161 583 q 366 650 294 650 q 458 640 414 650 q 532 614 503 630 l 532 558 q 451 589 496 577 q 364 600 405 600 q 252 571 305 600 q 165 477 199 543 q 131 310 131 412 q 197 108 131 183 q 376 33 264 33 q 542 72 450 33 l 542 21 q 372 -17 466 -17 q 221 19 289 -17 q 114 129 154 55 q 74 311 74 202 z "},"d":{"ha":720,"x_min":74,"x_max":603,"o":"m 74 313 q 149 558 74 467 q 349 650 223 650 q 461 628 414 650 q 545 559 509 606 l 547 559 l 545 636 l 545 982 l 599 982 l 599 125 q 603 0 599 46 l 562 0 l 547 74 l 545 74 q 460 10 517 37 q 347 -17 403 -17 q 211 18 273 -17 q 112 127 149 53 q 74 313 74 201 m 545 143 l 545 503 q 350 600 461 600 q 190 522 248 600 q 131 310 131 444 q 189 107 131 180 q 349 33 247 33 q 464 64 410 33 q 545 143 517 95 z "},"e":{"ha":672,"x_min":74,"x_max":583,"o":"m 74 323 q 109 496 74 422 q 203 610 143 570 q 339 650 264 650 q 517 577 450 650 q 583 347 583 504 l 583 323 l 131 323 q 197 103 131 174 q 382 33 262 33 q 561 69 484 33 l 561 18 q 382 -17 498 -17 q 154 72 234 -17 q 74 323 74 161 m 339 602 q 197 537 255 602 q 132 372 140 473 l 528 372 q 478 543 526 485 q 339 602 431 602 z "},"f":{"ha":429,"x_min":32,"x_max":453,"o":"m 32 582 l 32 633 l 147 633 l 147 750 q 211 938 147 878 q 376 999 274 999 q 453 993 418 999 l 453 942 q 380 949 412 949 q 247 900 292 949 q 201 743 201 851 l 201 633 l 403 633 l 403 582 l 201 582 l 201 0 l 147 0 l 147 582 l 32 582 z "},"g":{"ha":720,"x_min":74,"x_max":599,"o":"m 119 -297 l 119 -237 q 209 -272 169 -262 q 306 -282 249 -282 q 545 -28 545 -282 l 545 68 l 542 68 q 459 7 510 31 q 347 -17 408 -17 q 147 71 220 -17 q 74 313 74 159 q 150 560 74 470 q 361 650 225 650 q 472 622 427 650 q 545 564 517 595 l 547 564 l 555 633 l 599 633 l 599 -29 q 565 -202 599 -137 q 466 -299 532 -267 q 302 -332 401 -332 q 195 -322 245 -332 q 119 -297 146 -312 m 545 125 l 545 503 q 466 571 519 541 q 359 600 413 600 q 191 524 252 600 q 131 314 131 448 q 188 106 131 179 q 354 33 245 33 q 455 58 404 33 q 545 125 506 82 z "},"h":{"ha":704,"x_min":121,"x_max":590,"o":"m 175 982 l 175 603 l 172 530 l 175 530 q 387 650 262 650 q 541 588 492 650 q 590 418 590 527 l 590 0 l 536 0 l 536 422 q 499 553 536 506 q 385 600 463 600 q 175 468 263 600 l 175 0 l 121 0 l 121 982 l 175 982 z "},"i":{"ha":296,"x_min":117,"x_max":179,"o":"m 117 847 l 179 847 l 179 782 l 117 782 l 117 847 m 121 633 l 175 633 l 175 0 l 121 0 l 121 633 z "},"j":{"ha":296,"x_min":-69,"x_max":179,"o":"m 117 847 l 179 847 l 179 782 l 117 782 l 117 847 m -69 -321 l -69 -269 q 14 -282 -27 -282 q 93 -254 64 -282 q 121 -178 121 -226 l 121 633 l 175 633 l 175 -191 q 130 -294 175 -257 q 12 -332 85 -332 q -69 -321 -31 -332 z "},"k":{"ha":614,"x_min":121,"x_max":583,"o":"m 583 633 l 243 347 l 582 0 l 510 0 l 176 345 l 175 345 l 175 0 l 121 0 l 121 982 l 175 982 l 175 357 l 176 357 l 509 633 l 583 633 z "},"l":{"ha":296,"x_min":121,"x_max":175,"o":"m 121 982 l 175 982 l 175 0 l 121 0 l 121 982 z "},"m":{"ha":1128,"x_min":121,"x_max":1014,"o":"m 164 633 l 175 545 l 176 545 q 268 624 221 597 q 382 650 315 650 q 513 612 463 650 q 581 521 563 575 l 583 521 q 681 618 629 587 q 800 650 732 650 q 959 590 905 650 q 1014 421 1014 530 l 1014 0 l 960 0 l 960 408 q 796 600 960 600 q 683 565 730 600 q 595 463 636 529 l 595 0 l 541 0 l 541 428 q 497 554 541 508 q 375 600 454 600 q 267 571 314 600 q 175 486 220 542 l 175 0 l 121 0 l 121 633 l 164 633 z "},"n":{"ha":704,"x_min":121,"x_max":590,"o":"m 164 633 l 174 530 l 175 530 q 269 618 214 587 q 387 650 323 650 q 539 591 488 650 q 590 418 590 532 l 590 0 l 536 0 l 536 411 q 500 553 536 506 q 380 600 463 600 q 269 565 323 600 q 175 468 214 529 l 175 0 l 121 0 l 121 633 l 164 633 z "},"o":{"ha":714,"x_min":74,"x_max":640,"o":"m 74 315 q 152 558 74 467 q 358 650 229 650 q 564 559 488 650 q 640 315 640 468 q 562 75 640 167 q 358 -17 484 -17 q 151 74 229 -17 q 74 315 74 164 m 583 315 q 522 523 583 446 q 358 600 461 600 q 192 524 254 600 q 131 315 131 447 q 192 109 131 185 q 358 33 252 33 q 523 109 463 33 q 583 315 583 184 z "},"p":{"ha":720,"x_min":121,"x_max":646,"o":"m 158 633 l 175 559 l 176 559 q 264 624 209 599 q 372 650 319 650 q 575 564 505 650 q 646 322 646 478 q 600 112 646 188 q 492 10 553 37 q 372 -17 431 -17 q 175 61 248 -17 l 174 61 l 175 -62 l 175 -315 l 121 -315 l 121 633 l 158 633 m 589 321 q 532 527 589 454 q 372 600 475 600 q 258 570 312 600 q 175 494 205 541 l 175 117 q 267 53 221 73 q 371 33 313 33 q 519 90 450 33 q 589 321 589 146 z "},"q":{"ha":714,"x_min":66,"x_max":591,"o":"m 591 633 l 591 -315 l 538 -315 l 538 -58 l 539 62 l 536 62 q 450 6 506 29 q 338 -17 393 -17 q 137 71 208 -17 q 66 318 66 159 q 105 496 66 421 q 209 610 143 571 q 354 650 274 650 q 538 559 469 650 l 541 559 l 554 633 l 591 633 m 538 497 q 456 574 500 549 q 355 600 412 600 q 185 524 247 600 q 123 314 123 448 q 183 98 123 163 q 346 33 242 33 q 538 117 454 33 l 538 497 z "},"r":{"ha":454,"x_min":121,"x_max":440,"o":"m 164 633 l 174 521 l 175 521 q 281 613 212 576 q 422 650 350 650 l 440 650 l 440 596 l 422 596 q 279 555 348 596 q 175 449 210 515 l 175 0 l 121 0 l 121 633 l 164 633 z "},"s":{"ha":536,"x_min":71,"x_max":471,"o":"m 71 16 l 71 72 q 243 32 144 32 q 371 70 323 32 q 418 175 418 107 q 387 254 418 227 q 282 300 355 282 q 172 334 215 316 q 102 385 130 351 q 75 475 75 419 q 135 607 75 564 q 288 650 195 650 q 446 614 372 650 l 446 561 q 369 591 406 581 q 283 602 332 602 q 167 570 207 602 q 127 479 127 538 q 146 416 127 439 q 197 381 165 393 q 296 353 230 369 q 429 291 387 330 q 471 179 471 252 q 410 36 471 90 q 243 -17 349 -17 q 71 16 129 -17 z "},"t":{"ha":441,"x_min":14,"x_max":397,"o":"m 139 151 l 139 582 l 14 582 l 14 633 l 139 633 l 139 803 l 193 803 l 193 633 l 387 633 l 387 582 l 193 582 l 193 167 q 222 63 193 94 q 311 33 250 33 q 397 45 365 33 l 397 -3 q 301 -17 356 -17 q 182 25 225 -17 q 139 151 139 67 z "},"u":{"ha":684,"x_min":107,"x_max":576,"o":"m 107 243 l 107 633 l 161 633 l 161 229 q 210 79 161 125 q 342 33 258 33 q 442 56 401 33 q 502 117 482 78 q 522 232 522 157 l 522 633 l 576 633 l 576 241 q 563 122 576 165 q 517 46 549 79 q 441 -2 484 13 q 345 -17 399 -17 q 241 0 286 -17 q 165 48 195 18 q 121 121 135 79 q 107 243 107 162 z "},"v":{"ha":604,"x_min":32,"x_max":572,"o":"m 90 633 l 256 180 q 300 53 282 111 l 302 53 l 514 633 l 572 633 l 332 0 l 272 0 l 32 633 l 90 633 z "},"w":{"ha":942,"x_min":46,"x_max":896,"o":"m 896 633 l 707 0 l 647 0 l 471 587 l 467 587 l 298 0 l 239 0 l 46 633 l 104 633 l 231 180 l 267 56 l 269 56 l 435 633 l 507 633 l 639 183 l 675 56 l 677 56 l 700 131 l 839 633 l 896 633 z "},"x":{"ha":549,"x_min":11,"x_max":536,"o":"m 241 321 l 14 633 l 75 633 l 272 359 l 468 633 l 526 633 l 306 322 l 536 0 l 475 0 l 272 282 l 71 0 l 11 0 l 241 321 z "},"y":{"ha":623,"x_min":32,"x_max":590,"o":"m 32 633 l 90 633 q 304 58 282 115 l 310 58 l 532 633 l 590 633 l 207 -315 l 149 -315 l 275 -5 l 32 633 z "},"z":{"ha":589,"x_min":52,"x_max":538,"o":"m 52 28 l 444 582 l 61 582 l 61 633 l 514 633 l 514 595 l 126 51 l 538 51 l 538 0 l 52 0 l 52 28 z "},"{":{"ha":437,"x_min":111,"x_max":396,"o":"m 289 216 q 279 158 289 186 q 252 90 270 130 q 224 20 233 48 q 215 -36 215 -7 q 252 -119 215 -88 q 361 -150 288 -150 l 396 -150 l 396 -199 l 375 -199 q 216 -157 273 -199 q 158 -43 158 -116 q 169 35 158 1 q 201 112 180 69 q 227 171 218 149 q 235 220 235 194 q 216 288 235 265 q 172 318 198 311 q 111 325 146 325 l 111 383 q 172 391 146 383 q 216 424 198 398 q 235 503 235 450 q 227 550 235 528 q 201 605 218 571 q 169 676 180 644 q 158 751 158 708 q 216 866 158 825 q 375 907 273 907 l 396 907 l 396 859 l 361 859 q 252 828 289 859 q 215 745 215 797 q 224 690 215 716 q 252 626 233 664 q 279 561 270 588 q 289 505 289 534 q 259 396 289 429 q 197 355 229 363 l 197 353 q 259 315 229 345 q 289 216 289 285 z "},"|":{"ha":302,"x_min":122,"x_max":180,"o":"m 122 -315 l 122 982 l 180 982 l 180 -315 l 122 -315 z "},"}":{"ha":437,"x_min":41,"x_max":326,"o":"m 240 355 q 179 396 209 363 q 149 505 149 429 q 158 561 149 534 q 186 626 168 588 q 213 690 204 664 q 222 745 222 716 q 185 828 222 797 q 77 859 149 859 l 41 859 l 41 907 l 62 907 q 222 866 165 907 q 279 751 279 826 q 268 676 279 708 q 236 605 257 644 q 211 550 219 571 q 203 503 203 528 q 221 424 203 450 q 266 391 239 398 q 326 383 292 383 l 326 325 q 231 299 258 325 q 203 220 203 273 q 211 171 203 194 q 236 112 219 149 q 268 35 257 69 q 279 -43 279 1 q 222 -158 279 -117 q 62 -199 164 -199 l 41 -199 l 41 -150 l 77 -150 q 186 -119 149 -150 q 222 -36 222 -88 q 213 20 222 -7 q 186 90 204 48 q 158 158 168 130 q 149 216 149 186 q 179 315 149 285 q 240 353 209 345 l 240 355 z "},"~":{"ha":694,"x_min":74,"x_max":603,"o":"m 216 302 q 118 239 157 302 l 74 269 q 129 330 91 304 q 215 357 168 357 q 353 321 266 357 q 416 298 392 305 q 460 290 439 290 q 518 308 491 290 q 561 354 545 326 l 603 326 q 547 264 585 290 q 458 237 510 237 q 405 244 431 237 q 339 267 378 252 q 268 294 294 285 q 216 302 241 302 z "},"":{"ha":833,"x_min":0,"x_max":0,"o":""}," ":{"ha":271,"x_min":0,"x_max":0,"o":""},"¡":{"ha":334,"x_min":125,"x_max":208,"o":"m 125 545 l 125 633 l 208 633 l 208 545 l 125 545 m 132 -273 l 149 368 l 186 368 l 201 -273 l 132 -273 z "},"¢":{"ha":694,"x_min":114,"x_max":589,"o":"m 589 111 q 428 74 522 78 l 428 -17 l 376 -17 l 376 75 q 183 173 253 86 q 114 404 114 260 q 152 586 114 513 q 249 695 189 659 q 376 739 308 731 l 376 844 l 428 844 l 428 741 q 513 728 471 738 q 579 704 555 718 l 579 648 q 508 675 550 664 q 428 689 466 686 l 428 125 q 589 163 513 130 l 589 111 m 376 127 l 376 686 q 223 601 277 675 q 170 408 170 528 q 223 211 170 283 q 376 127 276 139 z "},"£":{"ha":694,"x_min":85,"x_max":625,"o":"m 625 52 l 625 0 l 85 0 l 85 52 l 176 52 l 212 345 l 139 345 l 139 396 l 218 396 l 228 475 q 295 658 243 605 q 447 711 348 711 q 533 703 490 711 q 602 681 575 694 l 602 631 q 443 660 533 660 q 329 611 364 660 q 281 443 294 562 l 275 396 l 522 396 l 522 345 l 269 345 l 235 52 l 625 52 z "},"¤":{"ha":694,"x_min":57,"x_max":636,"o":"m 525 314 l 636 203 l 597 167 l 485 277 q 347 229 418 229 q 208 277 273 229 l 98 167 l 57 203 l 171 317 q 123 454 123 378 q 168 593 123 527 l 60 703 l 100 741 l 210 631 q 347 677 271 677 q 488 632 425 677 l 595 739 l 636 703 l 525 591 q 571 454 571 531 q 525 314 571 376 m 514 454 q 466 576 514 527 q 347 625 417 625 q 229 576 277 625 q 180 454 180 527 q 229 333 180 382 q 347 283 277 283 q 466 333 417 283 q 514 454 514 382 z "},"¥":{"ha":694,"x_min":72,"x_max":621,"o":"m 621 694 l 395 315 l 566 315 l 566 265 l 375 265 l 375 164 l 566 164 l 566 114 l 375 114 l 375 -18 l 318 -18 l 318 114 l 129 114 l 129 164 l 318 164 l 318 265 l 129 265 l 129 315 l 298 315 l 72 694 l 135 694 l 346 334 l 347 334 l 558 694 l 621 694 z "},"¦":{"ha":302,"x_min":122,"x_max":180,"o":"m 122 489 l 122 982 l 180 982 l 180 489 l 122 489 m 122 -315 l 122 157 l 180 157 l 180 -315 l 122 -315 z "},"§":{"ha":562,"x_min":64,"x_max":497,"o":"m 64 600 q 132 848 64 772 q 323 925 200 925 q 409 916 372 925 q 489 889 446 907 l 489 840 q 399 871 434 861 q 318 880 365 880 q 228 851 257 880 q 199 770 199 821 q 221 672 199 728 q 320 486 243 616 q 427 297 396 357 q 478 173 458 237 q 497 45 497 109 q 429 -195 497 -109 q 237 -281 361 -281 q 151 -272 189 -281 q 72 -244 114 -262 l 72 -196 l 112 -211 q 243 -236 177 -236 q 333 -206 304 -236 q 363 -125 363 -176 q 348 -46 363 -89 q 308 40 332 -4 q 242 155 284 84 q 95 435 126 348 q 64 600 64 523 m 151 758 l 154 798 l 150 798 q 121 716 130 750 q 111 636 111 682 q 124 513 111 568 q 163 404 137 458 q 239 265 189 350 q 375 10 341 92 q 408 -129 408 -71 l 407 -153 l 411 -153 q 440 -70 431 -106 q 450 11 450 -35 q 437 133 450 79 q 398 240 424 187 q 322 379 373 293 q 182 636 213 564 q 151 758 151 709 z "},"¨":{"ha":414,"x_min":50,"x_max":364,"o":"m 50 782 l 50 863 l 123 863 l 123 782 l 50 782 m 292 782 l 292 863 l 364 863 l 364 782 l 292 782 z "},"©":{"ha":1143,"x_min":107,"x_max":1036,"o":"m 107 454 q 168 692 107 586 q 335 859 229 798 q 572 920 441 920 q 809 859 703 920 q 976 691 915 798 q 1036 454 1036 585 q 976 216 1036 323 q 809 50 915 110 q 572 -11 703 -11 q 335 50 441 -11 q 168 216 229 110 q 107 454 107 323 m 987 454 q 933 668 987 572 q 784 819 878 764 q 572 873 689 873 q 361 818 456 873 q 212 667 267 763 q 158 454 158 572 q 212 239 158 336 q 361 87 267 142 q 572 32 456 32 q 784 87 689 32 q 933 239 879 142 q 987 454 987 336 m 326 441 q 397 645 326 568 q 587 722 469 722 q 704 699 655 722 l 704 648 q 586 671 642 671 q 436 611 490 671 q 382 444 382 551 q 436 290 382 342 q 586 239 490 239 q 711 258 654 239 l 711 207 q 585 187 646 187 q 392 255 458 187 q 326 441 326 323 z "},"ª":{"ha":503,"x_min":66,"x_max":429,"o":"m 66 484 q 114 591 66 549 q 236 632 161 632 q 382 607 314 632 l 382 644 q 368 731 382 705 q 322 775 353 756 q 236 794 292 794 q 109 770 172 794 l 109 814 q 161 831 123 824 q 236 839 199 839 q 378 797 327 839 q 429 660 429 754 l 429 340 l 387 340 l 383 395 l 380 395 q 315 349 359 371 q 224 328 271 328 q 107 368 149 328 q 66 484 66 409 m 382 440 l 382 566 q 233 590 314 590 q 147 562 179 590 q 115 482 115 534 q 144 396 115 422 q 228 370 172 370 q 382 440 315 370 z "},"«":{"ha":643,"x_min":96,"x_max":585,"o":"m 300 74 l 96 321 l 300 570 l 364 570 l 168 321 l 364 74 l 300 74 m 529 74 l 339 321 l 529 570 l 585 570 l 410 321 l 585 74 l 529 74 z "},"¬":{"ha":694,"x_min":78,"x_max":616,"o":"m 562 65 l 562 322 l 78 322 l 78 375 l 616 375 l 616 65 l 562 65 z "},"­":{"ha":463,"x_min":82,"x_max":380,"o":"m 82 309 l 82 366 l 380 366 l 380 309 l 82 309 z "},"®":{"ha":861,"x_min":109,"x_max":754,"o":"m 109 602 q 151 767 109 693 q 267 883 193 841 q 431 925 341 925 q 594 883 520 925 q 711 767 668 841 q 754 602 754 692 q 711 437 754 511 q 594 322 668 364 q 431 281 520 281 q 201 372 293 281 q 109 602 109 464 m 705 602 q 628 802 705 723 q 431 880 551 880 q 234 802 311 880 q 158 602 158 724 q 235 402 158 480 q 431 325 311 325 q 628 403 551 325 q 705 602 705 481 m 321 772 l 429 772 q 550 672 550 772 q 527 608 550 631 q 469 579 504 585 l 469 576 l 564 439 l 510 439 l 419 571 l 366 571 l 366 439 l 321 439 l 321 772 m 414 611 q 480 628 457 611 q 503 672 503 644 q 486 713 503 695 q 437 730 469 730 l 366 730 l 366 611 l 414 611 z "},"¯":{"ha":414,"x_min":29,"x_max":385,"o":"m 29 800 l 29 851 l 385 851 l 385 800 l 29 800 z "},"°":{"ha":567,"x_min":66,"x_max":500,"o":"m 66 704 q 129 859 66 796 q 283 922 191 922 q 437 860 375 922 q 500 704 500 797 q 437 552 500 614 q 283 489 374 489 q 130 552 193 489 q 66 704 66 614 m 443 704 q 398 824 443 777 q 283 871 353 871 q 168 823 214 871 q 122 704 122 776 q 168 589 122 635 q 283 543 214 543 q 398 588 353 543 q 443 704 443 633 z "},"±":{"ha":694,"x_min":78,"x_max":616,"o":"m 321 164 l 321 372 l 78 372 l 78 425 l 321 425 l 321 633 l 374 633 l 374 425 l 616 425 l 616 372 l 374 372 l 374 164 l 321 164 m 78 0 l 78 53 l 616 53 l 616 0 l 78 0 z "},"²":{"ha":407,"x_min":33,"x_max":358,"o":"m 33 378 q 185 559 134 494 q 261 676 235 625 q 286 777 286 728 q 253 852 286 827 q 172 878 220 878 q 43 850 117 878 l 43 896 q 105 917 69 909 q 171 925 141 925 q 299 883 261 925 q 338 777 338 840 q 289 630 338 710 q 97 393 241 549 l 96 389 q 196 395 159 395 l 358 395 l 358 347 l 33 347 l 33 378 z "},"³":{"ha":380,"x_min":22,"x_max":338,"o":"m 22 359 l 22 406 q 150 379 81 379 q 253 413 220 379 q 286 501 286 447 q 244 586 286 555 q 115 616 201 616 l 93 616 l 93 664 l 111 664 q 233 695 196 664 q 269 777 269 726 q 240 854 269 830 q 151 879 210 879 q 31 850 92 879 l 31 897 q 80 916 46 907 q 150 925 113 925 q 277 885 233 925 q 321 779 321 844 q 295 697 321 734 q 212 644 269 661 l 212 642 q 304 593 271 631 q 338 498 338 555 q 286 377 338 421 q 144 334 235 334 q 75 341 113 334 q 22 359 37 349 z "},"´":{"ha":414,"x_min":131,"x_max":288,"o":"m 131 762 l 216 999 l 288 999 l 179 762 l 131 762 z "},"µ":{"ha":800,"x_min":121,"x_max":713,"o":"m 121 633 l 175 633 l 175 216 q 224 78 175 123 q 355 33 273 33 q 517 90 457 33 q 576 258 576 147 l 576 633 l 631 633 l 631 144 q 642 63 631 87 q 682 39 652 39 l 713 41 l 713 -7 l 673 -9 q 608 20 633 -9 q 581 94 584 49 l 578 94 q 361 -17 507 -17 q 176 56 235 -17 l 172 56 l 175 -227 l 175 -315 l 121 -315 l 121 633 z "},"¶":{"ha":778,"x_min":75,"x_max":646,"o":"m 349 218 q 150 334 224 242 q 75 558 75 427 q 167 810 75 713 q 407 907 259 907 l 646 907 l 646 -262 l 590 -262 l 590 854 l 404 854 l 404 -262 l 349 -262 l 349 218 z "},"·":{"ha":332,"x_min":125,"x_max":208,"o":"m 125 288 l 125 375 l 208 375 l 208 288 l 125 288 z "},"¸":{"ha":414,"x_min":85,"x_max":338,"o":"m 197 -87 q 298 -120 259 -93 q 338 -200 338 -148 q 294 -289 338 -259 q 170 -319 251 -319 q 85 -307 115 -319 l 85 -262 q 163 -273 115 -273 q 249 -256 216 -273 q 282 -201 282 -239 q 139 -126 282 -126 l 176 -1 l 225 -1 l 197 -87 z "},"¹":{"ha":389,"x_min":45,"x_max":363,"o":"m 53 347 l 53 395 l 197 395 l 197 865 l 45 811 l 45 861 l 197 917 l 249 917 l 249 395 l 363 395 l 363 347 l 53 347 z "},"º":{"ha":545,"x_min":56,"x_max":486,"o":"m 56 583 q 116 763 56 691 q 271 835 177 835 q 426 764 366 835 q 486 583 486 694 q 423 407 486 479 q 271 334 360 334 q 117 404 178 334 q 56 583 56 475 m 436 583 q 390 734 436 677 q 271 791 344 791 q 151 734 197 791 q 106 583 106 677 q 152 433 106 490 q 271 376 197 376 q 390 434 344 376 q 436 583 436 491 z "},"»":{"ha":643,"x_min":57,"x_max":546,"o":"m 57 74 l 233 321 l 57 570 l 114 570 l 304 321 l 114 74 l 57 74 m 279 74 l 476 321 l 279 570 l 345 570 l 546 321 l 345 74 l 279 74 z "},"¼":{"ha":1095,"x_min":45,"x_max":985,"o":"m 53 347 l 53 395 l 197 395 l 197 865 l 45 811 l 45 861 l 197 917 l 249 917 l 249 395 l 363 395 l 363 347 l 53 347 m 220 16 l 884 905 l 922 878 l 256 -9 l 220 16 m 869 146 l 631 146 l 631 189 l 803 562 l 856 562 l 757 345 q 727 281 752 333 q 710 245 722 271 q 686 195 698 220 l 686 190 q 772 193 724 193 l 869 193 l 869 366 l 921 366 l 921 193 l 985 193 l 985 146 l 921 146 l 921 3 l 869 3 l 869 146 z "},"½":{"ha":1158,"x_min":45,"x_max":1080,"o":"m 53 347 l 53 395 l 197 395 l 197 865 l 45 811 l 45 861 l 197 917 l 249 917 l 249 395 l 363 395 l 363 347 l 53 347 m 207 16 l 871 905 l 908 878 l 243 -9 l 207 16 m 755 33 q 907 215 857 150 q 983 332 958 280 q 1008 432 1008 384 q 975 508 1008 482 q 895 533 942 533 q 765 505 839 533 l 765 551 q 827 572 791 564 q 893 581 863 581 q 1022 538 983 581 q 1060 432 1060 496 q 1011 285 1060 366 q 819 49 963 205 l 818 44 q 918 50 881 50 l 1080 50 l 1080 3 l 755 3 l 755 33 z "},"¾":{"ha":1042,"x_min":87,"x_max":966,"o":"m 87 359 l 87 406 q 215 379 146 379 q 318 413 286 379 q 351 501 351 447 q 309 586 351 555 q 180 616 267 616 l 158 616 l 158 664 l 176 664 q 298 695 261 664 q 334 777 334 726 q 305 854 334 830 q 216 879 275 879 q 96 850 157 879 l 96 897 q 145 916 111 907 q 215 925 178 925 q 342 885 298 925 q 386 779 386 844 q 360 697 386 734 q 277 644 334 661 l 277 642 q 370 593 336 631 q 403 498 403 555 q 351 377 403 421 q 210 334 300 334 q 140 341 178 334 q 87 359 102 349 m 211 16 l 875 905 l 912 878 l 247 -9 l 211 16 m 851 146 l 612 146 l 612 189 l 785 562 l 838 562 l 739 345 q 709 281 734 333 q 692 245 704 271 q 668 195 680 220 l 668 190 q 754 193 705 193 l 851 193 l 851 366 l 903 366 l 903 193 l 966 193 l 966 146 l 903 146 l 903 3 l 851 3 l 851 146 z "},"¿":{"ha":562,"x_min":74,"x_max":521,"o":"m 418 633 l 418 546 l 338 546 l 338 633 l 418 633 m 400 342 q 371 226 400 279 q 264 107 342 172 q 193 46 218 70 q 151 -12 168 22 q 134 -87 134 -45 q 186 -198 134 -157 q 330 -239 239 -239 q 430 -227 378 -239 q 521 -197 481 -216 l 521 -252 q 334 -292 441 -292 q 144 -236 215 -292 q 74 -85 74 -180 q 94 -1 74 -39 q 141 64 113 37 q 214 127 169 92 q 292 200 267 170 q 333 269 318 229 q 347 361 347 308 l 347 372 l 399 372 l 400 342 z "},"À":{"ha":854,"x_min":26,"x_max":828,"o":"m 26 0 l 397 907 l 456 907 l 828 0 l 762 0 l 632 322 l 221 322 l 92 0 l 26 0 m 610 376 l 575 464 q 429 836 462 745 l 427 836 q 335 606 399 759 q 241 376 315 559 l 610 376 m 389 956 l 271 1124 l 346 1124 l 448 956 l 389 956 z "},"Á":{"ha":854,"x_min":26,"x_max":828,"o":"m 26 0 l 397 907 l 456 907 l 828 0 l 762 0 l 632 322 l 221 322 l 92 0 l 26 0 m 610 376 l 575 464 q 429 836 462 745 l 427 836 q 335 606 399 759 q 241 376 315 559 l 610 376 m 401 956 l 509 1124 l 581 1124 l 464 956 l 401 956 z "},"Â":{"ha":854,"x_min":26,"x_max":828,"o":"m 26 0 l 397 907 l 456 907 l 828 0 l 762 0 l 632 322 l 221 322 l 92 0 l 26 0 m 610 376 l 575 464 q 429 836 462 745 l 427 836 q 335 606 399 759 q 241 376 315 559 l 610 376 m 239 956 l 388 1124 l 465 1124 l 614 956 l 550 956 l 425 1080 l 422 1080 l 304 956 l 239 956 z "},"Ã":{"ha":854,"x_min":26,"x_max":828,"o":"m 26 0 l 397 907 l 456 907 l 828 0 l 762 0 l 632 322 l 221 322 l 92 0 l 26 0 m 610 376 l 575 464 q 429 836 462 745 l 427 836 q 335 606 399 759 q 241 376 315 559 l 610 376 m 328 1050 q 288 1031 302 1050 q 274 981 274 1013 l 225 981 l 225 985 q 251 1066 225 1032 q 332 1100 276 1100 q 389 1089 363 1100 q 446 1059 414 1079 q 489 1036 471 1044 q 524 1028 506 1028 q 565 1048 550 1028 q 579 1097 579 1068 l 629 1097 l 629 1090 q 605 1012 629 1044 q 519 981 581 981 q 464 990 488 981 q 405 1020 439 1000 q 362 1043 378 1036 q 328 1050 346 1050 z "},"Ä":{"ha":854,"x_min":26,"x_max":828,"o":"m 26 0 l 397 907 l 456 907 l 828 0 l 762 0 l 632 322 l 221 322 l 92 0 l 26 0 m 610 376 l 575 464 q 429 836 462 745 l 427 836 q 335 606 399 759 q 241 376 315 559 l 610 376 m 273 982 l 273 1064 l 345 1064 l 345 982 l 273 982 m 515 982 l 515 1064 l 587 1064 l 587 982 l 515 982 z "},"Å":{"ha":854,"x_min":26,"x_max":828,"o":"m 26 0 l 397 907 l 456 907 l 828 0 l 762 0 l 632 322 l 221 322 l 92 0 l 26 0 m 610 376 l 575 464 q 429 836 462 745 l 427 836 q 335 606 399 759 q 241 376 315 559 l 610 376 m 289 1060 q 328 1144 289 1112 q 428 1177 367 1177 q 528 1144 488 1177 q 567 1060 567 1112 q 527 977 567 1009 q 428 945 488 945 q 328 977 367 945 q 289 1060 289 1009 m 519 1060 q 493 1116 519 1094 q 428 1137 467 1137 q 363 1115 390 1137 q 336 1060 336 1093 q 362 1004 336 1025 q 428 983 388 983 q 494 1004 468 983 q 519 1060 519 1025 z "},"Æ":{"ha":1171,"x_min":25,"x_max":1109,"o":"m 25 0 l 528 907 l 1035 907 l 1035 852 l 606 852 l 647 498 l 1014 498 l 1014 444 l 654 444 l 699 56 l 1109 56 l 1109 0 l 646 0 l 612 322 l 269 322 l 89 0 l 25 0 m 297 376 l 603 376 l 550 852 l 297 376 z "},"Ç":{"ha":825,"x_min":93,"x_max":751,"o":"m 397 -307 l 397 -262 q 475 -273 426 -273 q 561 -256 528 -273 q 595 -201 595 -239 q 452 -126 595 -126 l 486 -12 q 195 124 297 7 q 93 446 93 241 q 151 697 93 588 q 314 865 209 806 q 554 925 418 925 q 663 914 609 925 q 742 889 718 903 l 742 832 q 557 869 637 869 q 355 821 446 869 q 210 677 264 773 q 157 444 157 582 q 263 144 157 249 q 571 39 370 39 q 751 75 665 39 l 751 20 q 667 -7 718 2 q 562 -17 616 -17 l 533 -17 l 510 -87 q 611 -120 572 -93 q 650 -200 650 -148 q 606 -289 650 -259 q 482 -319 563 -319 q 397 -307 427 -319 z "},"È":{"ha":745,"x_min":121,"x_max":664,"o":"m 121 907 l 637 907 l 637 852 l 180 852 l 180 492 l 599 492 l 599 437 l 180 437 l 180 54 l 664 54 l 664 0 l 121 0 l 121 907 m 363 956 l 245 1124 l 321 1124 l 423 956 l 363 956 z "},"É":{"ha":745,"x_min":121,"x_max":664,"o":"m 121 907 l 637 907 l 637 852 l 180 852 l 180 492 l 599 492 l 599 437 l 180 437 l 180 54 l 664 54 l 664 0 l 121 0 l 121 907 m 338 956 l 445 1124 l 517 1124 l 400 956 l 338 956 z "},"Ê":{"ha":745,"x_min":121,"x_max":664,"o":"m 121 907 l 637 907 l 637 852 l 180 852 l 180 492 l 599 492 l 599 437 l 180 437 l 180 54 l 664 54 l 664 0 l 121 0 l 121 907 m 189 956 l 338 1124 l 415 1124 l 564 956 l 500 956 l 375 1080 l 372 1080 l 254 956 l 189 956 z "},"Ë":{"ha":745,"x_min":121,"x_max":664,"o":"m 121 907 l 637 907 l 637 852 l 180 852 l 180 492 l 599 492 l 599 437 l 180 437 l 180 54 l 664 54 l 664 0 l 121 0 l 121 907 m 235 982 l 235 1064 l 307 1064 l 307 982 l 235 982 m 477 982 l 477 1064 l 549 1064 l 549 982 l 477 982 z "},"Ì":{"ha":301,"x_min":9,"x_max":187,"o":"m 121 907 l 180 907 l 180 0 l 121 0 l 121 907 m 127 956 l 9 1124 l 85 1124 l 187 956 l 127 956 z "},"Í":{"ha":301,"x_min":115,"x_max":294,"o":"m 121 907 l 180 907 l 180 0 l 121 0 l 121 907 m 115 956 l 222 1124 l 294 1124 l 178 956 l 115 956 z "},"Î":{"ha":301,"x_min":-33,"x_max":342,"o":"m 121 907 l 180 907 l 180 0 l 121 0 l 121 907 m -33 956 l 115 1124 l 193 1124 l 342 956 l 277 956 l 153 1080 l 150 1080 l 32 956 l -33 956 z "},"Ï":{"ha":301,"x_min":-1,"x_max":313,"o":"m 121 907 l 180 907 l 180 0 l 121 0 l 121 907 m -1 982 l -1 1064 l 71 1064 l 71 982 l -1 982 m 241 982 l 241 1064 l 313 1064 l 313 982 l 241 982 z "},"Ð":{"ha":908,"x_min":40,"x_max":815,"o":"m 815 458 q 794 303 815 375 q 732 173 772 231 q 634 77 692 116 q 505 19 577 37 q 318 0 433 0 l 121 0 l 121 444 l 40 444 l 40 498 l 121 498 l 121 907 l 298 907 q 485 893 418 907 q 734 738 652 850 q 815 458 815 625 m 751 457 q 684 704 751 607 q 489 836 616 802 q 401 849 450 846 q 273 852 352 852 l 180 852 l 180 498 l 408 498 l 408 444 l 180 444 l 180 54 l 278 54 q 394 57 352 54 q 476 68 435 59 q 678 200 605 96 q 751 457 751 304 z "},"Ñ":{"ha":926,"x_min":121,"x_max":806,"o":"m 172 907 l 581 336 l 751 92 l 755 92 q 746 372 746 177 l 746 907 l 806 907 l 806 0 l 754 0 l 345 576 l 175 817 l 172 817 q 180 498 180 731 l 180 0 l 121 0 l 121 907 l 172 907 m 375 1050 q 335 1031 349 1050 q 321 981 321 1013 l 272 981 l 272 985 q 297 1066 272 1032 q 379 1100 323 1100 q 435 1089 410 1100 q 492 1059 460 1079 q 535 1036 518 1044 q 571 1028 553 1028 q 611 1048 597 1028 q 626 1097 626 1068 l 676 1097 l 676 1090 q 652 1012 676 1044 q 566 981 627 981 q 510 990 535 981 q 452 1020 486 1000 q 409 1043 425 1036 q 375 1050 393 1050 z "},"Ò":{"ha":1008,"x_min":93,"x_max":916,"o":"m 93 453 q 145 696 93 588 q 292 864 198 804 q 504 925 385 925 q 721 864 628 925 q 865 696 814 804 q 916 453 916 589 q 863 212 916 319 q 718 44 811 104 q 507 -17 625 -17 q 288 43 382 -17 q 143 211 194 104 q 93 453 93 317 m 851 453 q 805 678 851 583 q 680 822 759 772 q 504 871 601 871 q 329 822 408 871 q 203 678 250 772 q 157 453 157 583 q 203 228 157 321 q 330 85 250 134 q 507 37 410 37 q 681 85 603 37 q 805 228 759 134 q 851 453 851 321 m 486 956 l 368 1124 l 443 1124 l 545 956 l 486 956 z "},"Ó":{"ha":1008,"x_min":93,"x_max":916,"o":"m 93 453 q 145 696 93 588 q 292 864 198 804 q 504 925 385 925 q 721 864 628 925 q 865 696 814 804 q 916 453 916 589 q 863 212 916 319 q 718 44 811 104 q 507 -17 625 -17 q 288 43 382 -17 q 143 211 194 104 q 93 453 93 317 m 851 453 q 805 678 851 583 q 680 822 759 772 q 504 871 601 871 q 329 822 408 871 q 203 678 250 772 q 157 453 157 583 q 203 228 157 321 q 330 85 250 134 q 507 37 410 37 q 681 85 603 37 q 805 228 759 134 q 851 453 851 321 m 467 956 l 574 1124 l 646 1124 l 529 956 l 467 956 z "},"Ô":{"ha":1008,"x_min":93,"x_max":916,"o":"m 93 453 q 145 696 93 588 q 292 864 198 804 q 504 925 385 925 q 721 864 628 925 q 865 696 814 804 q 916 453 916 589 q 863 212 916 319 q 718 44 811 104 q 507 -17 625 -17 q 288 43 382 -17 q 143 211 194 104 q 93 453 93 317 m 851 453 q 805 678 851 583 q 680 822 759 772 q 504 871 601 871 q 329 822 408 871 q 203 678 250 772 q 157 453 157 583 q 203 228 157 321 q 330 85 250 134 q 507 37 410 37 q 681 85 603 37 q 805 228 759 134 q 851 453 851 321 m 321 956 l 469 1124 l 547 1124 l 696 956 l 631 956 l 507 1080 l 504 1080 l 386 956 l 321 956 z "},"Õ":{"ha":1008,"x_min":93,"x_max":916,"o":"m 93 453 q 145 696 93 588 q 292 864 198 804 q 504 925 385 925 q 721 864 628 925 q 865 696 814 804 q 916 453 916 589 q 863 212 916 319 q 718 44 811 104 q 507 -17 625 -17 q 288 43 382 -17 q 143 211 194 104 q 93 453 93 317 m 851 453 q 805 678 851 583 q 680 822 759 772 q 504 871 601 871 q 329 822 408 871 q 203 678 250 772 q 157 453 157 583 q 203 228 157 321 q 330 85 250 134 q 507 37 410 37 q 681 85 603 37 q 805 228 759 134 q 851 453 851 321 m 404 1050 q 364 1031 378 1050 q 350 981 350 1013 l 301 981 l 301 985 q 327 1066 301 1032 q 408 1100 352 1100 q 465 1089 439 1100 q 522 1059 490 1079 q 565 1036 547 1044 q 600 1028 582 1028 q 641 1048 626 1028 q 655 1097 655 1068 l 705 1097 l 705 1090 q 681 1012 705 1044 q 595 981 656 981 q 539 990 564 981 q 481 1020 515 1000 q 438 1043 454 1036 q 404 1050 422 1050 z "},"Ö":{"ha":1008,"x_min":93,"x_max":916,"o":"m 93 453 q 145 696 93 588 q 292 864 198 804 q 504 925 385 925 q 721 864 628 925 q 865 696 814 804 q 916 453 916 589 q 863 212 916 319 q 718 44 811 104 q 507 -17 625 -17 q 288 43 382 -17 q 143 211 194 104 q 93 453 93 317 m 851 453 q 805 678 851 583 q 680 822 759 772 q 504 871 601 871 q 329 822 408 871 q 203 678 250 772 q 157 453 157 583 q 203 228 157 321 q 330 85 250 134 q 507 37 410 37 q 681 85 603 37 q 805 228 759 134 q 851 453 851 321 m 346 982 l 346 1064 l 418 1064 l 418 982 l 346 982 m 589 982 l 589 1064 l 660 1064 l 660 982 l 589 982 z "},"×":{"ha":694,"x_min":78,"x_max":618,"o":"m 114 75 l 78 113 l 311 346 l 78 581 l 114 618 l 348 385 l 582 618 l 618 581 l 386 346 l 618 113 l 582 75 l 348 310 l 114 75 z "},"Ø":{"ha":1008,"x_min":93,"x_max":916,"o":"m 916 453 q 863 212 916 319 q 718 44 811 104 q 507 -17 625 -17 q 228 92 338 -17 l 134 -17 l 93 16 l 193 131 q 93 453 93 254 q 145 696 93 588 q 292 864 198 804 q 504 925 385 925 q 783 814 676 925 l 872 917 l 914 885 l 818 775 q 916 453 916 646 m 233 176 l 745 768 q 636 845 699 819 q 504 871 574 871 q 329 822 408 871 q 203 678 250 772 q 157 453 157 583 q 233 176 157 286 m 851 453 q 778 726 851 618 l 267 136 q 507 37 360 37 q 681 85 603 37 q 805 228 759 134 q 851 453 851 321 z "},"Ù":{"ha":895,"x_min":118,"x_max":777,"o":"m 118 323 l 118 907 l 178 907 l 178 298 q 249 106 178 176 q 447 37 319 37 q 646 104 576 37 q 717 298 717 171 l 717 907 l 777 907 l 777 323 q 446 -17 777 -17 q 200 71 281 -17 q 118 323 118 159 m 415 956 l 297 1124 l 372 1124 l 475 956 l 415 956 z "},"Ú":{"ha":895,"x_min":118,"x_max":777,"o":"m 118 323 l 118 907 l 178 907 l 178 298 q 249 106 178 176 q 447 37 319 37 q 646 104 576 37 q 717 298 717 171 l 717 907 l 777 907 l 777 323 q 446 -17 777 -17 q 200 71 281 -17 q 118 323 118 159 m 400 956 l 507 1124 l 579 1124 l 463 956 l 400 956 z "},"Û":{"ha":895,"x_min":118,"x_max":777,"o":"m 118 323 l 118 907 l 178 907 l 178 298 q 249 106 178 176 q 447 37 319 37 q 646 104 576 37 q 717 298 717 171 l 717 907 l 777 907 l 777 323 q 446 -17 777 -17 q 200 71 281 -17 q 118 323 118 159 m 258 956 l 407 1124 l 484 1124 l 633 956 l 569 956 l 444 1080 l 441 1080 l 323 956 l 258 956 z "},"Ü":{"ha":895,"x_min":118,"x_max":777,"o":"m 118 323 l 118 907 l 178 907 l 178 298 q 249 106 178 176 q 447 37 319 37 q 646 104 576 37 q 717 298 717 171 l 717 907 l 777 907 l 777 323 q 446 -17 777 -17 q 200 71 281 -17 q 118 323 118 159 m 292 982 l 292 1064 l 363 1064 l 363 982 l 292 982 m 534 982 l 534 1064 l 606 1064 l 606 982 l 534 982 z "},"Ý":{"ha":774,"x_min":39,"x_max":734,"o":"m 357 364 l 39 907 l 104 907 l 385 416 l 389 416 l 669 907 l 734 907 l 416 364 l 416 0 l 357 0 l 357 364 m 347 956 l 454 1124 l 526 1124 l 410 956 l 347 956 z "},"Þ":{"ha":753,"x_min":121,"x_max":686,"o":"m 686 482 q 585 282 686 342 q 285 221 484 221 q 180 228 248 221 l 180 0 l 121 0 l 121 907 l 180 907 l 180 715 l 364 715 q 599 652 512 715 q 686 482 686 589 m 624 479 q 551 614 624 566 q 342 661 477 661 l 180 661 l 180 282 q 285 275 248 275 q 543 323 462 275 q 624 479 624 370 z "},"ß":{"ha":815,"x_min":121,"x_max":753,"o":"m 353 16 l 353 72 q 519 32 448 32 q 653 69 606 32 q 700 178 700 106 q 672 274 700 237 q 566 340 644 311 q 480 378 513 360 q 424 427 447 395 q 401 510 401 459 q 414 575 401 545 q 446 627 427 604 q 495 679 465 649 q 562 759 547 730 q 576 818 576 788 q 530 914 576 879 q 401 949 484 949 q 229 876 282 949 q 175 675 175 803 l 175 0 l 121 0 l 121 681 q 192 914 121 829 q 404 999 264 999 q 571 951 511 999 q 631 821 631 904 q 618 756 631 785 q 586 704 605 726 q 536 652 568 682 q 469 572 484 601 q 454 514 454 544 q 477 446 454 471 q 566 399 500 420 q 660 357 620 380 q 726 290 699 334 q 753 180 753 247 q 692 36 753 88 q 525 -17 631 -17 q 426 -7 473 -17 q 353 16 380 3 z "},"à":{"ha":660,"x_min":71,"x_max":545,"o":"m 71 182 q 132 321 71 268 q 290 374 193 374 q 485 336 382 374 l 485 418 q 438 554 485 508 q 289 600 391 600 q 126 568 222 600 l 126 619 q 194 641 146 631 q 289 650 242 650 q 477 592 416 650 q 539 418 539 534 l 539 203 q 545 0 539 136 l 496 0 l 486 74 l 484 74 q 393 10 452 37 q 277 -17 334 -17 q 127 33 184 -17 q 71 182 71 82 m 485 131 l 485 289 q 394 316 434 308 q 283 323 353 323 q 168 287 210 323 q 126 182 126 250 q 168 69 126 106 q 277 32 209 32 q 399 61 351 32 q 485 131 448 90 m 307 762 l 199 999 l 269 999 l 355 762 l 307 762 z "},"á":{"ha":660,"x_min":71,"x_max":545,"o":"m 71 182 q 132 321 71 268 q 290 374 193 374 q 485 336 382 374 l 485 418 q 438 554 485 508 q 289 600 391 600 q 126 568 222 600 l 126 619 q 194 641 146 631 q 289 650 242 650 q 477 592 416 650 q 539 418 539 534 l 539 203 q 545 0 539 136 l 496 0 l 486 74 l 484 74 q 393 10 452 37 q 277 -17 334 -17 q 127 33 184 -17 q 71 182 71 82 m 485 131 l 485 289 q 394 316 434 308 q 283 323 353 323 q 168 287 210 323 q 126 182 126 250 q 168 69 126 106 q 277 32 209 32 q 399 61 351 32 q 485 131 448 90 m 285 762 l 370 999 l 441 999 l 333 762 l 285 762 z "},"â":{"ha":660,"x_min":71,"x_max":545,"o":"m 71 182 q 132 321 71 268 q 290 374 193 374 q 485 336 382 374 l 485 418 q 438 554 485 508 q 289 600 391 600 q 126 568 222 600 l 126 619 q 194 641 146 631 q 289 650 242 650 q 477 592 416 650 q 539 418 539 534 l 539 203 q 545 0 539 136 l 496 0 l 486 74 l 484 74 q 393 10 452 37 q 277 -17 334 -17 q 127 33 184 -17 q 71 182 71 82 m 485 131 l 485 289 q 394 316 434 308 q 283 323 353 323 q 168 287 210 323 q 126 182 126 250 q 168 69 126 106 q 277 32 209 32 q 399 61 351 32 q 485 131 448 90 m 138 762 l 285 999 l 350 999 l 500 762 l 448 762 l 318 950 l 315 950 l 191 762 l 138 762 z "},"ã":{"ha":660,"x_min":71,"x_max":545,"o":"m 71 182 q 132 321 71 268 q 290 374 193 374 q 485 336 382 374 l 485 418 q 438 554 485 508 q 289 600 391 600 q 126 568 222 600 l 126 619 q 194 641 146 631 q 289 650 242 650 q 477 592 416 650 q 539 418 539 534 l 539 203 q 545 0 539 136 l 496 0 l 486 74 l 484 74 q 393 10 452 37 q 277 -17 334 -17 q 127 33 184 -17 q 71 182 71 82 m 485 131 l 485 289 q 394 316 434 308 q 283 323 353 323 q 168 287 210 323 q 126 182 126 250 q 168 69 126 106 q 277 32 209 32 q 399 61 351 32 q 485 131 448 90 m 214 882 q 171 863 186 882 q 155 808 155 844 l 109 808 l 109 812 q 134 894 109 860 q 216 928 159 928 q 270 916 245 928 q 330 883 296 905 q 373 858 356 866 q 406 850 389 850 q 451 871 437 850 q 465 925 465 893 l 513 925 l 513 918 q 489 838 513 871 q 404 806 465 806 q 348 817 374 806 q 289 850 322 829 q 247 874 263 866 q 214 882 230 882 z "},"ä":{"ha":660,"x_min":71,"x_max":545,"o":"m 71 182 q 132 321 71 268 q 290 374 193 374 q 485 336 382 374 l 485 418 q 438 554 485 508 q 289 600 391 600 q 126 568 222 600 l 126 619 q 194 641 146 631 q 289 650 242 650 q 477 592 416 650 q 539 418 539 534 l 539 203 q 545 0 539 136 l 496 0 l 486 74 l 484 74 q 393 10 452 37 q 277 -17 334 -17 q 127 33 184 -17 q 71 182 71 82 m 485 131 l 485 289 q 394 316 434 308 q 283 323 353 323 q 168 287 210 323 q 126 182 126 250 q 168 69 126 106 q 277 32 209 32 q 399 61 351 32 q 485 131 448 90 m 171 782 l 171 863 l 244 863 l 244 782 l 171 782 m 412 782 l 412 863 l 485 863 l 485 782 l 412 782 z "},"å":{"ha":660,"x_min":71,"x_max":545,"o":"m 71 182 q 132 321 71 268 q 290 374 193 374 q 485 336 382 374 l 485 418 q 438 554 485 508 q 289 600 391 600 q 126 568 222 600 l 126 619 q 194 641 146 631 q 289 650 242 650 q 477 592 416 650 q 539 418 539 534 l 539 203 q 545 0 539 136 l 496 0 l 486 74 l 484 74 q 393 10 452 37 q 277 -17 334 -17 q 127 33 184 -17 q 71 182 71 82 m 485 131 l 485 289 q 394 316 434 308 q 283 323 353 323 q 168 287 210 323 q 126 182 126 250 q 168 69 126 106 q 277 32 209 32 q 399 61 351 32 q 485 131 448 90 m 168 878 q 207 965 168 930 q 307 1000 246 1000 q 405 965 365 1000 q 446 878 446 930 q 406 791 446 826 q 307 757 366 757 q 208 791 248 757 q 168 878 168 825 m 397 878 q 371 937 397 912 q 307 961 345 961 q 243 937 269 961 q 216 878 216 912 q 242 820 216 843 q 307 796 268 796 q 372 820 347 796 q 397 878 397 843 z "},"æ":{"ha":1078,"x_min":71,"x_max":989,"o":"m 989 323 l 536 323 q 602 103 536 174 q 787 33 668 33 q 966 69 889 33 l 966 18 q 787 -17 903 -17 q 533 113 608 -17 q 416 20 477 57 q 277 -17 355 -17 q 127 33 184 -17 q 71 182 71 82 q 132 321 71 268 q 290 374 193 374 q 485 336 382 374 l 485 418 q 438 554 485 508 q 289 600 391 600 q 126 568 222 600 l 126 619 q 194 641 146 631 q 289 650 242 650 q 453 615 395 650 q 526 505 511 581 q 616 612 560 574 q 745 650 672 650 q 922 577 856 650 q 989 347 989 504 l 989 323 m 933 372 q 884 543 931 485 q 745 602 836 602 q 603 537 661 602 q 538 372 545 473 l 933 372 m 511 161 q 485 289 487 222 q 394 316 434 308 q 283 323 353 323 q 168 287 210 323 q 126 182 126 250 q 168 69 126 106 q 277 32 209 32 q 380 54 335 32 q 453 100 426 75 q 511 161 480 125 z "},"ç":{"ha":606,"x_min":74,"x_max":542,"o":"m 253 -307 l 253 -262 q 330 -273 283 -273 q 417 -256 383 -273 q 450 -201 450 -239 q 307 -126 450 -126 l 340 -16 q 144 82 215 -4 q 74 311 74 169 q 118 508 74 432 q 228 616 161 583 q 366 650 294 650 q 458 640 414 650 q 532 614 503 630 l 532 558 q 451 589 496 577 q 364 600 405 600 q 252 571 305 600 q 165 477 199 543 q 131 310 131 412 q 197 108 131 183 q 376 33 264 33 q 542 72 450 33 l 542 21 q 389 -17 475 -12 l 366 -87 q 466 -120 427 -93 q 505 -200 505 -148 q 462 -289 505 -259 q 338 -319 418 -319 q 253 -307 282 -319 z "},"è":{"ha":672,"x_min":74,"x_max":583,"o":"m 74 323 q 109 496 74 422 q 203 610 143 570 q 339 650 264 650 q 517 577 450 650 q 583 347 583 504 l 583 323 l 131 323 q 197 103 131 174 q 382 33 262 33 q 561 69 484 33 l 561 18 q 382 -17 498 -17 q 154 72 234 -17 q 74 323 74 161 m 339 602 q 197 537 255 602 q 132 372 140 473 l 528 372 q 478 543 526 485 q 339 602 431 602 m 342 762 l 235 999 l 305 999 l 391 762 l 342 762 z "},"é":{"ha":672,"x_min":74,"x_max":583,"o":"m 74 323 q 109 496 74 422 q 203 610 143 570 q 339 650 264 650 q 517 577 450 650 q 583 347 583 504 l 583 323 l 131 323 q 197 103 131 174 q 382 33 262 33 q 561 69 484 33 l 561 18 q 382 -17 498 -17 q 154 72 234 -17 q 74 323 74 161 m 339 602 q 197 537 255 602 q 132 372 140 473 l 528 372 q 478 543 526 485 q 339 602 431 602 m 328 762 l 414 999 l 485 999 l 376 762 l 328 762 z "},"ê":{"ha":672,"x_min":74,"x_max":583,"o":"m 74 323 q 109 496 74 422 q 203 610 143 570 q 339 650 264 650 q 517 577 450 650 q 583 347 583 504 l 583 323 l 131 323 q 197 103 131 174 q 382 33 262 33 q 561 69 484 33 l 561 18 q 382 -17 498 -17 q 154 72 234 -17 q 74 323 74 161 m 339 602 q 197 537 255 602 q 132 372 140 473 l 528 372 q 478 543 526 485 q 339 602 431 602 m 164 762 l 311 999 l 376 999 l 526 762 l 474 762 l 345 950 l 342 950 l 217 762 l 164 762 z "},"ë":{"ha":672,"x_min":74,"x_max":583,"o":"m 74 323 q 109 496 74 422 q 203 610 143 570 q 339 650 264 650 q 517 577 450 650 q 583 347 583 504 l 583 323 l 131 323 q 197 103 131 174 q 382 33 262 33 q 561 69 484 33 l 561 18 q 382 -17 498 -17 q 154 72 234 -17 q 74 323 74 161 m 339 602 q 197 537 255 602 q 132 372 140 473 l 528 372 q 478 543 526 485 q 339 602 431 602 m 201 782 l 201 863 l 275 863 l 275 782 l 201 782 m 443 782 l 443 863 l 515 863 l 515 782 l 443 782 z "},"ì":{"ha":296,"x_min":22,"x_max":179,"o":"m 121 0 l 121 633 l 175 633 l 175 0 l 121 0 m 130 762 l 22 999 l 93 999 l 179 762 l 130 762 z "},"í":{"ha":296,"x_min":121,"x_max":289,"o":"m 121 0 l 121 633 l 175 633 l 175 0 l 121 0 m 132 762 l 218 999 l 289 999 l 180 762 l 132 762 z "},"î":{"ha":296,"x_min":-33,"x_max":329,"o":"m 121 0 l 121 633 l 175 633 l 175 0 l 121 0 m -33 762 l 114 999 l 179 999 l 329 762 l 277 762 l 147 950 l 144 950 l 20 762 l -33 762 z "},"ï":{"ha":296,"x_min":-8,"x_max":306,"o":"m 121 0 l 121 633 l 175 633 l 175 0 l 121 0 m -8 782 l -8 863 l 65 863 l 65 782 l -8 782 m 233 782 l 233 863 l 306 863 l 306 782 l 233 782 z "},"ð":{"ha":707,"x_min":72,"x_max":616,"o":"m 616 315 q 584 149 616 224 q 488 28 551 73 q 342 -17 426 -17 q 198 25 259 -17 q 104 139 136 67 q 72 298 72 212 q 146 536 72 448 q 343 624 220 624 q 525 549 447 624 l 529 550 q 383 793 465 696 l 214 734 l 196 778 l 349 831 q 171 982 275 907 l 249 982 q 403 850 329 926 l 554 901 l 572 857 l 437 811 q 616 315 616 598 m 559 325 q 525 476 559 420 q 441 554 491 532 q 339 576 391 576 q 184 503 239 576 q 129 298 129 429 q 188 106 129 179 q 342 33 246 33 q 502 111 444 33 q 559 325 559 189 z "},"ñ":{"ha":704,"x_min":121,"x_max":590,"o":"m 164 633 l 174 530 l 175 530 q 269 618 214 587 q 387 650 323 650 q 539 591 488 650 q 590 418 590 532 l 590 0 l 536 0 l 536 411 q 500 553 536 506 q 380 600 463 600 q 269 565 323 600 q 175 468 214 529 l 175 0 l 121 0 l 121 633 l 164 633 m 241 882 q 197 863 213 882 q 181 808 181 844 l 135 808 l 135 812 q 160 894 135 860 q 242 928 186 928 q 297 916 271 928 q 357 883 322 905 q 399 858 382 866 q 432 850 416 850 q 477 871 463 850 q 492 925 492 893 l 539 925 l 539 918 q 515 838 539 871 q 431 806 492 806 q 375 817 401 806 q 315 850 349 829 q 273 874 290 866 q 241 882 256 882 z "},"ò":{"ha":714,"x_min":74,"x_max":640,"o":"m 74 315 q 152 558 74 467 q 358 650 229 650 q 564 559 488 650 q 640 315 640 468 q 562 75 640 167 q 358 -17 484 -17 q 151 74 229 -17 q 74 315 74 164 m 583 315 q 522 523 583 446 q 358 600 461 600 q 192 524 254 600 q 131 315 131 447 q 192 109 131 185 q 358 33 252 33 q 523 109 463 33 q 583 315 583 184 m 341 762 l 233 999 l 304 999 l 390 762 l 341 762 z "},"ó":{"ha":714,"x_min":74,"x_max":640,"o":"m 74 315 q 152 558 74 467 q 358 650 229 650 q 564 559 488 650 q 640 315 640 468 q 562 75 640 167 q 358 -17 484 -17 q 151 74 229 -17 q 74 315 74 164 m 583 315 q 522 523 583 446 q 358 600 461 600 q 192 524 254 600 q 131 315 131 447 q 192 109 131 185 q 358 33 252 33 q 523 109 463 33 q 583 315 583 184 m 339 762 l 425 999 l 496 999 l 387 762 l 339 762 z "},"ô":{"ha":714,"x_min":74,"x_max":640,"o":"m 74 315 q 152 558 74 467 q 358 650 229 650 q 564 559 488 650 q 640 315 640 468 q 562 75 640 167 q 358 -17 484 -17 q 151 74 229 -17 q 74 315 74 164 m 583 315 q 522 523 583 446 q 358 600 461 600 q 192 524 254 600 q 131 315 131 447 q 192 109 131 185 q 358 33 252 33 q 523 109 463 33 q 583 315 583 184 m 178 762 l 325 999 l 390 999 l 540 762 l 488 762 l 358 950 l 355 950 l 231 762 l 178 762 z "},"õ":{"ha":714,"x_min":74,"x_max":640,"o":"m 74 315 q 152 558 74 467 q 358 650 229 650 q 564 559 488 650 q 640 315 640 468 q 562 75 640 167 q 358 -17 484 -17 q 151 74 229 -17 q 74 315 74 164 m 583 315 q 522 523 583 446 q 358 600 461 600 q 192 524 254 600 q 131 315 131 447 q 192 109 131 185 q 358 33 252 33 q 523 109 463 33 q 583 315 583 184 m 254 882 q 211 863 227 882 q 195 808 195 844 l 149 808 l 149 812 q 174 894 149 860 q 256 928 199 928 q 310 916 285 928 q 370 883 336 905 q 413 858 396 866 q 446 850 429 850 q 491 871 477 850 q 505 925 505 893 l 553 925 l 553 918 q 529 838 553 871 q 444 806 505 806 q 388 817 414 806 q 329 850 362 829 q 287 874 303 866 q 254 882 270 882 z "},"ö":{"ha":714,"x_min":74,"x_max":640,"o":"m 74 315 q 152 558 74 467 q 358 650 229 650 q 564 559 488 650 q 640 315 640 468 q 562 75 640 167 q 358 -17 484 -17 q 151 74 229 -17 q 74 315 74 164 m 583 315 q 522 523 583 446 q 358 600 461 600 q 192 524 254 600 q 131 315 131 447 q 192 109 131 185 q 358 33 252 33 q 523 109 463 33 q 583 315 583 184 m 200 782 l 200 863 l 273 863 l 273 782 l 200 782 m 441 782 l 441 863 l 514 863 l 514 782 l 441 782 z "},"÷":{"ha":694,"x_min":78,"x_max":616,"o":"m 307 533 l 307 621 l 386 621 l 386 533 l 307 533 m 78 322 l 78 375 l 616 375 l 616 322 l 78 322 m 307 74 l 307 158 l 386 158 l 386 74 l 307 74 z "},"ø":{"ha":714,"x_min":74,"x_max":640,"o":"m 640 315 q 562 75 640 167 q 358 -17 484 -17 q 170 56 243 -17 l 113 -14 l 75 17 l 138 92 q 74 315 74 180 q 152 558 74 467 q 358 650 229 650 q 542 582 472 650 l 595 646 l 632 615 l 575 546 q 640 315 640 454 m 174 136 l 507 541 q 358 600 446 600 q 192 524 254 600 q 131 315 131 447 q 174 136 131 204 m 583 315 q 538 501 583 428 l 203 96 q 358 33 263 33 q 523 109 463 33 q 583 315 583 184 z "},"ù":{"ha":684,"x_min":107,"x_max":576,"o":"m 107 243 l 107 633 l 161 633 l 161 229 q 210 79 161 125 q 342 33 258 33 q 442 56 401 33 q 502 117 482 78 q 522 232 522 157 l 522 633 l 576 633 l 576 241 q 563 122 576 165 q 517 46 549 79 q 441 -2 484 13 q 345 -17 399 -17 q 241 0 286 -17 q 165 48 195 18 q 121 121 135 79 q 107 243 107 162 m 328 762 l 220 999 l 290 999 l 376 762 l 328 762 z "},"ú":{"ha":684,"x_min":107,"x_max":576,"o":"m 107 243 l 107 633 l 161 633 l 161 229 q 210 79 161 125 q 342 33 258 33 q 442 56 401 33 q 502 117 482 78 q 522 232 522 157 l 522 633 l 576 633 l 576 241 q 563 122 576 165 q 517 46 549 79 q 441 -2 484 13 q 345 -17 399 -17 q 241 0 286 -17 q 165 48 195 18 q 121 121 135 79 q 107 243 107 162 m 313 762 l 398 999 l 469 999 l 361 762 l 313 762 z "},"û":{"ha":684,"x_min":107,"x_max":576,"o":"m 107 243 l 107 633 l 161 633 l 161 229 q 210 79 161 125 q 342 33 258 33 q 442 56 401 33 q 502 117 482 78 q 522 232 522 157 l 522 633 l 576 633 l 576 241 q 563 122 576 165 q 517 46 549 79 q 441 -2 484 13 q 345 -17 399 -17 q 241 0 286 -17 q 165 48 195 18 q 121 121 135 79 q 107 243 107 162 m 163 762 l 310 999 l 375 999 l 525 762 l 473 762 l 343 950 l 340 950 l 216 762 l 163 762 z "},"ü":{"ha":684,"x_min":107,"x_max":576,"o":"m 107 243 l 107 633 l 161 633 l 161 229 q 210 79 161 125 q 342 33 258 33 q 442 56 401 33 q 502 117 482 78 q 522 232 522 157 l 522 633 l 576 633 l 576 241 q 563 122 576 165 q 517 46 549 79 q 441 -2 484 13 q 345 -17 399 -17 q 241 0 286 -17 q 165 48 195 18 q 121 121 135 79 q 107 243 107 162 m 188 782 l 188 863 l 261 863 l 261 782 l 188 782 m 429 782 l 429 863 l 502 863 l 502 782 l 429 782 z "},"ý":{"ha":623,"x_min":32,"x_max":590,"o":"m 32 633 l 90 633 q 304 58 282 115 l 310 58 l 532 633 l 590 633 l 207 -315 l 149 -315 l 275 -5 l 32 633 m 264 762 l 350 999 l 421 999 l 313 762 l 264 762 z "},"þ":{"ha":713,"x_min":114,"x_max":639,"o":"m 168 982 l 168 559 l 170 559 q 257 624 201 599 q 366 650 313 650 q 569 564 498 650 q 639 322 639 478 q 593 112 639 188 q 485 10 547 37 q 366 -17 424 -17 q 168 61 239 -17 l 167 61 l 168 -62 l 168 -315 l 114 -315 l 114 982 l 168 982 m 582 321 q 525 527 582 454 q 366 600 468 600 q 272 580 313 600 q 204 536 230 560 q 168 494 178 511 l 168 117 q 260 53 214 73 q 364 33 306 33 q 513 90 444 33 q 582 321 582 146 z "},"ÿ":{"ha":623,"x_min":32,"x_max":590,"o":"m 32 633 l 90 633 q 304 58 282 115 l 310 58 l 532 633 l 590 633 l 207 -315 l 149 -315 l 275 -5 l 32 633 m 150 782 l 150 863 l 223 863 l 223 782 l 150 782 m 391 782 l 391 863 l 464 863 l 464 782 l 391 782 z "},"Ā":{"ha":854,"x_min":26,"x_max":828,"o":"m 26 0 l 397 907 l 456 907 l 828 0 l 762 0 l 632 322 l 221 322 l 92 0 l 26 0 m 610 376 l 575 464 q 429 836 462 745 l 427 836 q 335 606 399 759 q 241 376 315 559 l 610 376 m 250 987 l 250 1042 l 606 1042 l 606 987 l 250 987 z "},"ā":{"ha":660,"x_min":71,"x_max":545,"o":"m 71 182 q 132 321 71 268 q 290 374 193 374 q 485 336 382 374 l 485 418 q 438 554 485 508 q 289 600 391 600 q 126 568 222 600 l 126 619 q 194 641 146 631 q 289 650 242 650 q 477 592 416 650 q 539 418 539 534 l 539 203 q 545 0 539 136 l 496 0 l 486 74 l 484 74 q 393 10 452 37 q 277 -17 334 -17 q 127 33 184 -17 q 71 182 71 82 m 485 131 l 485 289 q 394 316 434 308 q 283 323 353 323 q 168 287 210 323 q 126 182 126 250 q 168 69 126 106 q 277 32 209 32 q 399 61 351 32 q 485 131 448 90 m 158 800 l 158 851 l 513 851 l 513 800 l 158 800 z "},"Ă":{"ha":854,"x_min":26,"x_max":828,"o":"m 26 0 l 397 907 l 456 907 l 828 0 l 762 0 l 632 322 l 221 322 l 92 0 l 26 0 m 610 376 l 575 464 q 429 836 462 745 l 427 836 q 335 606 399 759 q 241 376 315 559 l 610 376 m 236 1125 l 285 1125 q 334 1037 294 1066 q 425 1007 375 1007 q 520 1039 481 1007 q 567 1125 559 1072 l 616 1125 q 554 1005 608 1050 q 425 960 501 960 q 296 1005 349 960 q 236 1125 243 1051 z "},"ă":{"ha":660,"x_min":71,"x_max":545,"o":"m 71 182 q 132 321 71 268 q 290 374 193 374 q 485 336 382 374 l 485 418 q 438 554 485 508 q 289 600 391 600 q 126 568 222 600 l 126 619 q 194 641 146 631 q 289 650 242 650 q 477 592 416 650 q 539 418 539 534 l 539 203 q 545 0 539 136 l 496 0 l 486 74 l 484 74 q 393 10 452 37 q 277 -17 334 -17 q 127 33 184 -17 q 71 182 71 82 m 485 131 l 485 289 q 394 316 434 308 q 283 323 353 323 q 168 287 210 323 q 126 182 126 250 q 168 69 126 106 q 277 32 209 32 q 399 61 351 32 q 485 131 448 90 m 132 974 l 180 974 q 228 876 189 905 q 318 847 266 847 q 410 877 370 847 q 457 974 450 906 l 506 974 q 447 847 498 894 q 318 800 395 800 q 190 847 241 800 q 132 974 139 895 z "},"Ą":{"ha":854,"x_min":26,"x_max":828,"o":"m 757 -273 q 828 -265 791 -273 l 828 -307 q 753 -318 797 -318 q 665 -285 697 -318 q 632 -192 632 -252 q 761 1 632 -90 l 632 322 l 221 322 l 92 0 l 26 0 l 397 907 l 456 907 l 828 0 q 719 -95 754 -51 q 684 -184 684 -140 q 702 -249 684 -225 q 757 -273 721 -273 m 610 376 l 575 464 q 429 836 462 745 l 427 836 q 335 606 399 759 q 241 376 315 559 l 610 376 z "},"ą":{"ha":660,"x_min":71,"x_max":550,"o":"m 550 -265 l 550 -307 q 475 -318 519 -318 q 387 -285 419 -318 q 354 -192 354 -252 q 494 5 354 -89 l 486 74 l 484 74 q 393 10 452 37 q 277 -17 334 -17 q 127 33 184 -17 q 71 182 71 82 q 132 321 71 268 q 290 374 193 374 q 485 336 382 374 l 485 418 q 438 554 485 508 q 289 600 391 600 q 126 568 222 600 l 126 619 q 194 641 146 631 q 289 650 242 650 q 477 592 416 650 q 539 418 539 534 l 539 203 q 545 0 539 136 q 444 -91 481 -46 q 406 -184 406 -135 q 425 -249 406 -225 q 479 -273 444 -273 q 550 -265 513 -273 m 485 289 q 394 316 434 308 q 283 323 353 323 q 168 287 210 323 q 126 182 126 250 q 168 69 126 106 q 277 32 209 32 q 399 61 351 32 q 485 131 448 90 l 485 289 z "},"Ć":{"ha":825,"x_min":93,"x_max":751,"o":"m 93 446 q 151 697 93 588 q 312 865 208 806 q 551 925 416 925 q 662 914 607 925 q 742 889 718 903 l 742 832 q 557 869 637 869 q 355 821 446 869 q 210 677 264 773 q 157 444 157 582 q 263 144 157 249 q 571 39 370 39 q 751 75 665 39 l 751 20 q 667 -7 718 2 q 562 -17 616 -17 q 214 103 336 -17 q 93 446 93 223 m 486 956 l 593 1124 l 665 1124 l 549 956 l 486 956 z "},"ć":{"ha":606,"x_min":74,"x_max":542,"o":"m 74 311 q 118 508 74 432 q 228 616 161 583 q 366 650 294 650 q 458 640 414 650 q 532 614 503 630 l 532 558 q 451 589 496 577 q 364 600 405 600 q 252 571 305 600 q 165 477 199 543 q 131 310 131 412 q 197 108 131 183 q 376 33 264 33 q 542 72 450 33 l 542 21 q 372 -17 466 -17 q 221 19 289 -17 q 114 129 154 55 q 74 311 74 202 m 313 762 l 398 999 l 469 999 l 361 762 l 313 762 z "},"Ċ":{"ha":825,"x_min":93,"x_max":751,"o":"m 93 446 q 151 697 93 588 q 312 865 208 806 q 551 925 416 925 q 662 914 607 925 q 742 889 718 903 l 742 832 q 557 869 637 869 q 355 821 446 869 q 210 677 264 773 q 157 444 157 582 q 263 144 157 249 q 571 39 370 39 q 751 75 665 39 l 751 20 q 667 -7 718 2 q 562 -17 616 -17 q 214 103 336 -17 q 93 446 93 223 m 481 982 l 481 1064 l 553 1064 l 553 982 l 481 982 z "},"ċ":{"ha":606,"x_min":74,"x_max":542,"o":"m 74 311 q 118 508 74 432 q 228 616 161 583 q 366 650 294 650 q 458 640 414 650 q 532 614 503 630 l 532 558 q 451 589 496 577 q 364 600 405 600 q 252 571 305 600 q 165 477 199 543 q 131 310 131 412 q 197 108 131 183 q 376 33 264 33 q 542 72 450 33 l 542 21 q 372 -17 466 -17 q 221 19 289 -17 q 114 129 154 55 q 74 311 74 202 m 336 847 l 399 847 l 399 782 l 336 782 l 336 847 z "},"Č":{"ha":825,"x_min":93,"x_max":751,"o":"m 93 446 q 151 697 93 588 q 312 865 208 806 q 551 925 416 925 q 662 914 607 925 q 742 889 718 903 l 742 832 q 557 869 637 869 q 355 821 446 869 q 210 677 264 773 q 157 444 157 582 q 263 144 157 249 q 571 39 370 39 q 751 75 665 39 l 751 20 q 667 -7 718 2 q 562 -17 616 -17 q 214 103 336 -17 q 93 446 93 223 m 353 1124 l 418 1124 l 535 999 l 538 999 l 661 1124 l 726 1124 l 578 956 l 500 956 l 353 1124 z "},"č":{"ha":606,"x_min":74,"x_max":542,"o":"m 74 311 q 118 508 74 432 q 228 616 161 583 q 366 650 294 650 q 458 640 414 650 q 532 614 503 630 l 532 558 q 451 589 496 577 q 364 600 405 600 q 252 571 305 600 q 165 477 199 543 q 131 310 131 412 q 197 108 131 183 q 376 33 264 33 q 542 72 450 33 l 542 21 q 372 -17 466 -17 q 221 19 289 -17 q 114 129 154 55 q 74 311 74 202 m 172 999 l 225 999 l 350 811 l 353 811 l 478 999 l 534 999 l 385 762 l 319 762 l 172 999 z "},"Ď":{"ha":908,"x_min":121,"x_max":815,"o":"m 298 907 q 485 893 418 907 q 734 738 652 850 q 815 458 815 625 q 727 165 815 285 q 485 14 638 46 q 318 0 417 0 l 121 0 l 121 907 l 298 907 m 751 457 q 684 704 751 607 q 489 836 616 802 q 401 849 450 846 q 273 852 352 852 l 180 852 l 180 54 l 278 54 q 395 57 352 54 q 476 68 438 59 q 678 200 605 96 q 751 457 751 304 m 236 1124 l 301 1124 l 418 999 l 420 999 l 544 1124 l 608 1124 l 460 956 l 383 956 l 236 1124 z "},"ď":{"ha":717,"x_min":74,"x_max":800,"o":"m 74 313 q 149 558 74 467 q 349 650 223 650 q 461 628 414 650 q 545 559 509 606 l 547 559 l 545 636 l 545 982 l 599 982 l 599 125 q 603 0 599 46 l 562 0 l 547 74 l 545 74 q 460 10 517 37 q 347 -17 403 -17 q 211 18 273 -17 q 112 127 149 53 q 74 313 74 201 m 545 143 l 545 503 q 350 600 461 600 q 190 522 248 600 q 131 310 131 444 q 189 107 131 180 q 349 33 247 33 q 464 64 410 33 q 545 143 517 95 m 749 865 q 726 915 749 898 q 664 932 704 932 l 664 979 l 685 981 q 769 954 738 981 q 800 876 800 926 q 789 809 800 839 q 746 739 777 779 l 694 739 q 749 865 749 818 z "},"Đ":{"ha":908,"x_min":40,"x_max":815,"o":"m 815 458 q 794 303 815 375 q 732 173 772 231 q 634 77 692 116 q 505 19 577 37 q 318 0 433 0 l 121 0 l 121 444 l 40 444 l 40 498 l 121 498 l 121 907 l 298 907 q 485 893 418 907 q 734 738 652 850 q 815 458 815 625 m 751 457 q 684 704 751 607 q 489 836 616 802 q 401 849 450 846 q 273 852 352 852 l 180 852 l 180 498 l 408 498 l 408 444 l 180 444 l 180 54 l 278 54 q 394 57 352 54 q 476 68 435 59 q 678 200 605 96 q 751 457 751 304 z "},"đ":{"ha":717,"x_min":74,"x_max":721,"o":"m 599 810 l 599 125 q 603 0 599 46 l 562 0 l 547 74 l 545 74 q 460 10 517 37 q 347 -17 403 -17 q 211 18 273 -17 q 112 127 149 53 q 74 313 74 201 q 149 558 74 467 q 349 650 223 650 q 461 628 414 650 q 545 559 509 606 l 547 559 l 545 636 l 545 810 l 328 810 l 328 860 l 545 860 l 545 982 l 599 982 l 599 860 l 721 860 l 721 810 l 599 810 m 545 503 q 350 600 461 600 q 190 522 248 600 q 131 310 131 444 q 189 107 131 180 q 349 33 247 33 q 464 64 410 33 q 545 143 517 95 l 545 503 z "},"Ē":{"ha":745,"x_min":121,"x_max":664,"o":"m 121 907 l 637 907 l 637 852 l 180 852 l 180 492 l 599 492 l 599 437 l 180 437 l 180 54 l 664 54 l 664 0 l 121 0 l 121 907 m 214 987 l 214 1042 l 569 1042 l 569 987 l 214 987 z "},"ē":{"ha":672,"x_min":74,"x_max":583,"o":"m 74 323 q 109 496 74 422 q 203 610 143 570 q 339 650 264 650 q 517 577 450 650 q 583 347 583 504 l 583 323 l 131 323 q 197 103 131 174 q 382 33 262 33 q 561 69 484 33 l 561 18 q 382 -17 498 -17 q 154 72 234 -17 q 74 323 74 161 m 339 602 q 197 537 255 602 q 132 372 140 473 l 528 372 q 478 543 526 485 q 339 602 431 602 m 178 800 l 178 851 l 533 851 l 533 800 l 178 800 z "},"Ė":{"ha":745,"x_min":121,"x_max":664,"o":"m 121 907 l 637 907 l 637 852 l 180 852 l 180 492 l 599 492 l 599 437 l 180 437 l 180 54 l 664 54 l 664 0 l 121 0 l 121 907 m 346 982 l 346 1064 l 418 1064 l 418 982 l 346 982 z "},"ė":{"ha":672,"x_min":74,"x_max":583,"o":"m 74 323 q 109 496 74 422 q 203 610 143 570 q 339 650 264 650 q 517 577 450 650 q 583 347 583 504 l 583 323 l 131 323 q 197 103 131 174 q 382 33 262 33 q 561 69 484 33 l 561 18 q 382 -17 498 -17 q 154 72 234 -17 q 74 323 74 161 m 339 602 q 197 537 255 602 q 132 372 140 473 l 528 372 q 478 543 526 485 q 339 602 431 602 m 325 847 l 387 847 l 387 782 l 325 782 l 325 847 z "},"Ę":{"ha":745,"x_min":121,"x_max":667,"o":"m 667 -265 l 667 -307 q 591 -318 635 -318 q 503 -285 536 -318 q 471 -192 471 -252 q 597 0 471 -91 l 121 0 l 121 907 l 637 907 l 637 852 l 180 852 l 180 492 l 599 492 l 599 437 l 180 437 l 180 54 l 664 54 l 664 0 l 663 0 q 561 -91 600 -46 q 522 -184 522 -136 q 541 -249 522 -225 q 596 -273 560 -273 q 667 -265 629 -273 z "},"ę":{"ha":672,"x_min":74,"x_max":583,"o":"m 583 323 l 131 323 q 197 103 131 174 q 382 33 262 33 q 561 69 484 33 l 561 18 q 401 -176 401 -80 q 420 -241 401 -217 q 475 -265 439 -265 q 546 -257 509 -265 l 546 -298 q 471 -310 515 -310 q 382 -276 415 -310 q 350 -183 350 -243 q 449 -12 350 -94 q 382 -17 421 -17 q 154 72 234 -17 q 74 323 74 161 q 109 496 74 422 q 203 610 143 570 q 339 650 264 650 q 517 577 450 650 q 583 347 583 504 l 583 323 m 528 372 q 478 543 526 485 q 339 602 431 602 q 197 537 255 602 q 132 372 140 473 l 528 372 z "},"Ě":{"ha":745,"x_min":121,"x_max":664,"o":"m 121 907 l 637 907 l 637 852 l 180 852 l 180 492 l 599 492 l 599 437 l 180 437 l 180 54 l 664 54 l 664 0 l 121 0 l 121 907 m 196 1124 l 261 1124 l 378 999 l 380 999 l 504 1124 l 568 1124 l 420 956 l 343 956 l 196 1124 z "},"ě":{"ha":672,"x_min":74,"x_max":583,"o":"m 74 323 q 109 496 74 422 q 203 610 143 570 q 339 650 264 650 q 517 577 450 650 q 583 347 583 504 l 583 323 l 131 323 q 197 103 131 174 q 382 33 262 33 q 561 69 484 33 l 561 18 q 382 -17 498 -17 q 154 72 234 -17 q 74 323 74 161 m 339 602 q 197 537 255 602 q 132 372 140 473 l 528 372 q 478 543 526 485 q 339 602 431 602 m 180 999 l 233 999 l 358 811 l 361 811 l 486 999 l 543 999 l 393 762 l 328 762 l 180 999 z "},"Ğ":{"ha":922,"x_min":93,"x_max":802,"o":"m 93 433 q 156 696 93 585 q 331 866 220 807 q 585 925 443 925 q 695 915 644 925 q 768 893 747 905 l 768 835 q 679 858 734 848 q 576 868 624 868 q 370 821 465 868 q 215 679 274 774 q 157 444 157 583 q 266 142 157 250 q 575 35 375 35 q 742 62 650 35 l 742 392 l 532 392 l 532 449 l 802 449 l 802 28 q 709 -3 781 11 q 564 -17 637 -17 q 218 103 343 -17 q 93 433 93 222 m 323 1125 l 372 1125 q 422 1037 381 1066 q 513 1007 463 1007 q 608 1039 569 1007 q 654 1125 647 1072 l 703 1125 q 642 1005 695 1050 q 513 960 589 960 q 384 1005 437 960 q 323 1125 331 1051 z "},"ğ":{"ha":720,"x_min":74,"x_max":599,"o":"m 119 -297 l 119 -237 q 209 -272 169 -262 q 306 -282 249 -282 q 545 -28 545 -282 l 545 68 l 542 68 q 459 7 510 31 q 347 -17 408 -17 q 147 71 220 -17 q 74 313 74 159 q 150 560 74 470 q 361 650 225 650 q 472 622 427 650 q 545 564 517 595 l 547 564 l 555 633 l 599 633 l 599 -29 q 565 -202 599 -137 q 466 -299 532 -267 q 302 -332 401 -332 q 195 -322 245 -332 q 119 -297 146 -312 m 545 125 l 545 503 q 466 571 519 541 q 359 600 413 600 q 191 524 252 600 q 131 314 131 448 q 188 106 131 179 q 354 33 245 33 q 455 58 404 33 q 545 125 506 82 m 159 974 l 207 974 q 254 876 216 905 q 345 847 292 847 q 436 877 397 847 q 484 974 476 906 l 532 974 q 473 847 524 894 q 345 800 422 800 q 216 847 267 800 q 159 974 165 895 z "},"Ġ":{"ha":922,"x_min":93,"x_max":802,"o":"m 93 433 q 156 696 93 585 q 331 866 220 807 q 585 925 443 925 q 695 915 644 925 q 768 893 747 905 l 768 835 q 679 858 734 848 q 576 868 624 868 q 370 821 465 868 q 215 679 274 774 q 157 444 157 583 q 266 142 157 250 q 575 35 375 35 q 742 62 650 35 l 742 392 l 532 392 l 532 449 l 802 449 l 802 28 q 709 -3 781 11 q 564 -17 637 -17 q 218 103 343 -17 q 93 433 93 222 m 498 982 l 498 1064 l 570 1064 l 570 982 l 498 982 z "},"ġ":{"ha":720,"x_min":74,"x_max":599,"o":"m 119 -297 l 119 -237 q 209 -272 169 -262 q 306 -282 249 -282 q 545 -28 545 -282 l 545 68 l 542 68 q 459 7 510 31 q 347 -17 408 -17 q 147 71 220 -17 q 74 313 74 159 q 150 560 74 470 q 361 650 225 650 q 472 622 427 650 q 545 564 517 595 l 547 564 l 555 633 l 599 633 l 599 -29 q 565 -202 599 -137 q 466 -299 532 -267 q 302 -332 401 -332 q 195 -322 245 -332 q 119 -297 146 -312 m 545 125 l 545 503 q 466 571 519 541 q 359 600 413 600 q 191 524 252 600 q 131 314 131 448 q 188 106 131 179 q 354 33 245 33 q 455 58 404 33 q 545 125 506 82 m 330 847 l 393 847 l 393 782 l 330 782 l 330 847 z "},"Ģ":{"ha":922,"x_min":93,"x_max":802,"o":"m 93 433 q 156 696 93 585 q 331 866 220 807 q 585 925 443 925 q 695 915 644 925 q 768 893 747 905 l 768 835 q 679 858 734 848 q 576 868 624 868 q 370 821 465 868 q 215 679 274 774 q 157 444 157 583 q 266 142 157 250 q 575 35 375 35 q 742 62 650 35 l 742 392 l 532 392 l 532 449 l 802 449 l 802 28 q 709 -3 781 11 q 564 -17 637 -17 q 218 103 343 -17 q 93 433 93 222 m 503 -205 q 481 -156 503 -173 q 418 -139 458 -139 l 418 -92 l 439 -90 q 524 -117 492 -90 q 555 -195 555 -144 q 543 -262 555 -232 q 500 -332 532 -292 l 449 -332 q 503 -205 503 -253 z "},"ģ":{"ha":713,"x_min":74,"x_max":599,"o":"m 311 872 q 334 823 311 840 q 396 806 356 806 l 396 758 l 375 757 q 291 784 322 757 q 260 861 260 811 q 271 929 260 899 q 314 999 283 960 l 366 999 q 311 872 311 920 m 119 -297 l 119 -237 q 209 -272 169 -262 q 306 -282 249 -282 q 545 -28 545 -282 l 545 68 l 542 68 q 459 7 510 31 q 347 -17 408 -17 q 147 71 220 -17 q 74 313 74 159 q 150 560 74 470 q 361 650 225 650 q 472 622 427 650 q 545 564 517 595 l 547 564 l 555 633 l 599 633 l 599 -29 q 565 -202 599 -137 q 466 -299 532 -267 q 302 -332 401 -332 q 195 -322 245 -332 q 119 -297 146 -312 m 545 125 l 545 503 q 466 571 519 541 q 359 600 413 600 q 191 524 252 600 q 131 314 131 448 q 188 106 131 179 q 354 33 245 33 q 455 58 404 33 q 545 125 506 82 z "},"Ħ":{"ha":888,"x_min":36,"x_max":851,"o":"m 851 715 l 851 663 l 766 663 l 766 0 l 707 0 l 707 440 l 180 440 l 180 0 l 121 0 l 121 663 l 36 663 l 36 715 l 121 715 l 121 907 l 180 907 l 180 715 l 707 715 l 707 907 l 766 907 l 766 715 l 851 715 m 707 494 l 707 663 l 180 663 l 180 494 l 707 494 z "},"ħ":{"ha":704,"x_min":0,"x_max":590,"o":"m 590 418 l 590 0 l 536 0 l 536 422 q 499 553 536 506 q 385 600 463 600 q 175 468 263 600 l 175 0 l 121 0 l 121 810 l 0 810 l 0 860 l 121 860 l 121 982 l 175 982 l 175 860 l 366 860 l 366 810 l 175 810 l 175 603 l 172 530 l 175 530 q 387 650 262 650 q 541 588 492 650 q 590 418 590 527 z "},"Ī":{"ha":301,"x_min":-24,"x_max":332,"o":"m 121 907 l 180 907 l 180 0 l 121 0 l 121 907 m -24 987 l -24 1042 l 332 1042 l 332 987 l -24 987 z "},"ī":{"ha":296,"x_min":-29,"x_max":326,"o":"m 121 0 l 121 633 l 175 633 l 175 0 l 121 0 m -29 800 l -29 851 l 326 851 l 326 800 l -29 800 z "},"Į":{"ha":301,"x_min":4,"x_max":203,"o":"m 203 -277 l 203 -321 q 127 -332 172 -332 q 38 -297 72 -332 q 4 -205 4 -262 q 33 -95 4 -142 q 121 1 62 -49 l 121 907 l 180 907 l 180 1 q 90 -87 121 -37 q 58 -195 58 -137 q 76 -257 58 -229 q 132 -285 94 -285 q 203 -277 157 -285 z "},"į":{"ha":296,"x_min":14,"x_max":214,"o":"m 182 847 l 182 782 l 119 782 l 119 847 l 182 847 m 214 -265 l 214 -307 q 139 -318 183 -318 q 48 -284 83 -318 q 14 -191 14 -250 q 39 -84 14 -132 q 123 4 64 -37 l 123 633 l 178 633 l 178 0 q 65 -183 65 -81 q 86 -248 65 -223 q 143 -273 107 -273 q 214 -265 177 -273 z "},"İ":{"ha":301,"x_min":114,"x_max":186,"o":"m 121 907 l 180 907 l 180 0 l 121 0 l 121 907 m 114 982 l 114 1064 l 186 1064 l 186 982 l 114 982 z "},"ı":{"ha":296,"x_min":121,"x_max":175,"o":"m 121 0 l 121 633 l 175 633 l 175 0 l 121 0 z "},"Ķ":{"ha":781,"x_min":121,"x_max":747,"o":"m 747 0 l 665 0 l 182 449 l 180 449 l 180 0 l 121 0 l 121 907 l 180 907 l 180 456 l 182 456 l 640 907 l 713 907 l 258 453 l 747 0 m 380 -205 q 358 -156 380 -173 q 296 -139 336 -139 l 296 -92 l 317 -90 q 401 -117 370 -90 q 432 -195 432 -144 q 420 -262 432 -232 q 378 -332 409 -292 l 326 -332 q 380 -205 380 -253 z "},"ķ":{"ha":614,"x_min":121,"x_max":583,"o":"m 583 633 l 243 347 l 582 0 l 510 0 l 176 345 l 175 345 l 175 0 l 121 0 l 121 982 l 175 982 l 175 357 l 176 357 l 509 633 l 583 633 m 338 -205 q 315 -156 338 -173 q 253 -139 293 -139 l 253 -92 l 274 -90 q 358 -117 327 -90 q 389 -195 389 -144 q 378 -262 389 -232 q 335 -332 366 -292 l 283 -332 q 338 -205 338 -253 z "},"Ĺ":{"ha":701,"x_min":121,"x_max":640,"o":"m 121 907 l 180 907 l 180 54 l 640 54 l 640 0 l 121 0 l 121 907 m 125 956 l 232 1124 l 304 1124 l 187 956 l 125 956 z "},"ĺ":{"ha":296,"x_min":121,"x_max":300,"o":"m 121 982 l 175 982 l 175 0 l 121 0 l 121 982 m 121 1031 l 228 1199 l 300 1199 l 183 1031 l 121 1031 z "},"Ļ":{"ha":701,"x_min":121,"x_max":640,"o":"m 121 907 l 180 907 l 180 54 l 640 54 l 640 0 l 121 0 l 121 907 m 380 -205 q 358 -156 380 -173 q 296 -139 336 -139 l 296 -92 l 317 -90 q 401 -117 370 -90 q 432 -195 432 -144 q 420 -262 432 -232 q 378 -332 409 -292 l 326 -332 q 380 -205 380 -253 z "},"ļ":{"ha":296,"x_min":87,"x_max":224,"o":"m 121 982 l 175 982 l 175 0 l 121 0 l 121 982 m 172 -205 q 150 -156 172 -173 q 87 -139 127 -139 l 87 -92 l 109 -90 q 193 -117 161 -90 q 224 -195 224 -144 q 212 -262 224 -232 q 170 -332 201 -292 l 118 -332 q 172 -205 172 -253 z "},"Ľ":{"ha":701,"x_min":121,"x_max":640,"o":"m 121 907 l 180 907 l 180 54 l 640 54 l 640 0 l 121 0 l 121 907 m 475 799 q 453 848 475 831 q 391 865 431 865 l 391 913 l 412 914 q 496 887 465 914 q 527 810 527 860 q 515 742 527 772 q 473 673 504 712 l 421 673 q 475 799 475 751 z "},"ľ":{"ha":296,"x_min":121,"x_max":378,"o":"m 121 982 l 175 982 l 175 0 l 121 0 l 121 982 m 326 867 q 304 916 326 899 q 241 933 281 933 l 241 981 l 262 982 q 347 955 315 982 q 378 878 378 928 q 366 810 378 840 q 323 741 355 780 l 272 741 q 326 867 326 819 z "},"Ł":{"ha":701,"x_min":24,"x_max":640,"o":"m 180 54 l 640 54 l 640 0 l 121 0 l 121 395 l 24 353 l 24 410 l 121 452 l 121 907 l 180 907 l 180 476 l 454 595 l 454 538 l 180 419 l 180 54 z "},"ł":{"ha":297,"x_min":-12,"x_max":323,"o":"m 323 661 l 323 600 l 175 501 l 175 0 l 121 0 l 121 465 l -12 376 l -12 437 l 121 526 l 121 982 l 175 982 l 175 562 l 323 661 z "},"Ń":{"ha":926,"x_min":121,"x_max":806,"o":"m 172 907 l 581 336 l 751 92 l 755 92 q 746 372 746 177 l 746 907 l 806 907 l 806 0 l 754 0 l 345 576 l 175 817 l 172 817 q 180 498 180 731 l 180 0 l 121 0 l 121 907 l 172 907 m 436 956 l 543 1124 l 615 1124 l 498 956 l 436 956 z "},"ń":{"ha":704,"x_min":121,"x_max":590,"o":"m 164 633 l 174 530 l 175 530 q 269 618 214 587 q 387 650 323 650 q 539 591 488 650 q 590 418 590 532 l 590 0 l 536 0 l 536 411 q 500 553 536 506 q 380 600 463 600 q 269 565 323 600 q 175 468 214 529 l 175 0 l 121 0 l 121 633 l 164 633 m 336 762 l 422 999 l 493 999 l 385 762 l 336 762 z "},"Ņ":{"ha":926,"x_min":121,"x_max":806,"o":"m 172 907 l 581 336 l 751 92 l 755 92 q 746 372 746 177 l 746 907 l 806 907 l 806 0 l 754 0 l 345 576 l 175 817 l 172 817 q 180 498 180 731 l 180 0 l 121 0 l 121 907 l 172 907 m 478 -205 q 456 -156 478 -173 q 393 -139 433 -139 l 393 -92 l 414 -90 q 498 -117 467 -90 q 530 -195 530 -144 q 518 -262 530 -232 q 475 -332 507 -292 l 424 -332 q 478 -205 478 -253 z "},"ņ":{"ha":704,"x_min":121,"x_max":590,"o":"m 164 633 l 174 530 l 175 530 q 269 618 214 587 q 387 650 323 650 q 539 591 488 650 q 590 418 590 532 l 590 0 l 536 0 l 536 411 q 500 553 536 506 q 380 600 463 600 q 269 565 323 600 q 175 468 214 529 l 175 0 l 121 0 l 121 633 l 164 633 m 388 -205 q 366 -156 388 -173 q 303 -139 343 -139 l 303 -92 l 324 -90 q 408 -117 377 -90 q 439 -195 439 -144 q 428 -262 439 -232 q 385 -332 416 -292 l 334 -332 q 388 -205 388 -253 z "},"Ň":{"ha":926,"x_min":121,"x_max":806,"o":"m 172 907 l 581 336 l 751 92 l 755 92 q 746 372 746 177 l 746 907 l 806 907 l 806 0 l 754 0 l 345 576 l 175 817 l 172 817 q 180 498 180 731 l 180 0 l 121 0 l 121 907 l 172 907 m 283 1124 l 349 1124 l 465 999 l 468 999 l 591 1124 l 656 1124 l 508 956 l 431 956 l 283 1124 z "},"ň":{"ha":704,"x_min":121,"x_max":590,"o":"m 164 633 l 174 530 l 175 530 q 269 618 214 587 q 387 650 323 650 q 539 591 488 650 q 590 418 590 532 l 590 0 l 536 0 l 536 411 q 500 553 536 506 q 380 600 463 600 q 269 565 323 600 q 175 468 214 529 l 175 0 l 121 0 l 121 633 l 164 633 m 178 999 l 231 999 l 355 811 l 358 811 l 484 999 l 540 999 l 390 762 l 325 762 l 178 999 z "},"Ŋ":{"ha":926,"x_min":121,"x_max":806,"o":"m 806 907 l 806 -139 q 632 -281 806 -281 q 562 -273 608 -281 l 562 -220 q 625 -228 602 -228 q 722 -204 691 -228 q 753 -126 753 -180 l 753 1 l 345 576 l 175 817 l 172 817 q 180 498 180 731 l 180 0 l 121 0 l 121 907 l 172 907 l 581 336 l 751 92 l 755 92 q 746 372 746 177 l 746 907 l 806 907 z "},"ŋ":{"ha":697,"x_min":121,"x_max":590,"o":"m 590 418 l 590 -121 q 546 -222 590 -186 q 428 -257 501 -257 q 346 -252 384 -257 l 346 -200 q 429 -207 388 -207 q 508 -181 480 -207 q 536 -109 536 -156 l 536 411 q 500 553 536 506 q 380 600 463 600 q 269 565 323 600 q 175 468 214 529 l 175 0 l 121 0 l 121 633 l 164 633 l 174 530 l 175 530 q 269 618 214 587 q 387 650 323 650 q 539 591 488 650 q 590 418 590 532 z "},"Ō":{"ha":1008,"x_min":93,"x_max":916,"o":"m 93 453 q 145 696 93 588 q 292 864 198 804 q 504 925 385 925 q 721 864 628 925 q 865 696 814 804 q 916 453 916 589 q 863 212 916 319 q 718 44 811 104 q 507 -17 625 -17 q 288 43 382 -17 q 143 211 194 104 q 93 453 93 317 m 851 453 q 805 678 851 583 q 680 822 759 772 q 504 871 601 871 q 329 822 408 871 q 203 678 250 772 q 157 453 157 583 q 203 228 157 321 q 330 85 250 134 q 507 37 410 37 q 681 85 603 37 q 805 228 759 134 q 851 453 851 321 m 325 987 l 325 1042 l 680 1042 l 680 987 l 325 987 z "},"ō":{"ha":714,"x_min":74,"x_max":640,"o":"m 74 315 q 152 558 74 467 q 358 650 229 650 q 564 559 488 650 q 640 315 640 468 q 562 75 640 167 q 358 -17 484 -17 q 151 74 229 -17 q 74 315 74 164 m 583 315 q 522 523 583 446 q 358 600 461 600 q 192 524 254 600 q 131 315 131 447 q 192 109 131 185 q 358 33 252 33 q 523 109 463 33 q 583 315 583 184 m 179 800 l 179 851 l 534 851 l 534 800 l 179 800 z "},"Ő":{"ha":1008,"x_min":93,"x_max":916,"o":"m 93 453 q 145 696 93 588 q 292 864 198 804 q 504 925 385 925 q 721 864 628 925 q 865 696 814 804 q 916 453 916 589 q 863 212 916 319 q 718 44 811 104 q 507 -17 625 -17 q 288 43 382 -17 q 143 211 194 104 q 93 453 93 317 m 851 453 q 805 678 851 583 q 680 822 759 772 q 504 871 601 871 q 329 822 408 871 q 203 678 250 772 q 157 453 157 583 q 203 228 157 321 q 330 85 250 134 q 507 37 410 37 q 681 85 603 37 q 805 228 759 134 q 851 453 851 321 m 375 956 l 464 1124 l 542 1124 l 432 956 l 375 956 m 557 956 l 646 1124 l 724 1124 l 614 956 l 557 956 z "},"ő":{"ha":714,"x_min":74,"x_max":640,"o":"m 74 315 q 152 558 74 467 q 358 650 229 650 q 564 559 488 650 q 640 315 640 468 q 562 75 640 167 q 358 -17 484 -17 q 151 74 229 -17 q 74 315 74 164 m 583 315 q 522 523 583 446 q 358 600 461 600 q 192 524 254 600 q 131 315 131 447 q 192 109 131 185 q 358 33 252 33 q 523 109 463 33 q 583 315 583 184 m 240 762 l 326 999 l 397 999 l 289 762 l 240 762 m 435 762 l 521 999 l 591 999 l 484 762 l 435 762 z "},"Œ":{"ha":1471,"x_min":93,"x_max":1390,"o":"m 1390 54 l 1390 0 l 847 0 l 847 204 q 708 43 797 102 q 507 -17 620 -17 q 288 43 382 -17 q 143 211 194 104 q 93 453 93 317 q 145 696 93 588 q 292 864 198 804 q 504 925 385 925 q 709 867 621 925 q 847 708 798 808 l 847 907 l 1364 907 l 1364 852 l 907 852 l 907 492 l 1325 492 l 1325 437 l 907 437 l 907 54 l 1390 54 m 847 453 q 802 678 847 584 q 678 822 756 772 q 504 871 600 871 q 329 822 408 871 q 203 678 250 772 q 157 453 157 583 q 203 228 157 321 q 330 85 250 134 q 507 37 410 37 q 680 85 603 37 q 802 227 757 134 q 847 453 847 321 z "},"œ":{"ha":1182,"x_min":74,"x_max":1093,"o":"m 1093 323 l 640 323 q 706 103 640 174 q 892 33 772 33 q 1071 69 991 33 l 1071 18 q 892 -17 1008 -17 q 714 31 785 -17 q 611 172 642 79 q 516 34 581 84 q 358 -17 450 -17 q 151 74 229 -17 q 74 315 74 164 q 152 558 74 467 q 358 650 229 650 q 517 601 452 650 q 611 465 581 553 q 703 601 640 553 q 848 650 765 650 q 1026 577 960 650 q 1093 347 1093 504 l 1093 323 m 1038 372 q 988 543 1036 485 q 848 602 940 602 q 708 538 765 602 q 642 372 650 474 l 1038 372 m 583 315 q 522 523 583 446 q 358 600 461 600 q 192 524 254 600 q 131 315 131 447 q 192 109 131 185 q 358 33 252 33 q 523 109 463 33 q 583 315 583 184 z "},"Ŕ":{"ha":777,"x_min":121,"x_max":725,"o":"m 319 907 q 452 900 404 907 q 672 667 672 857 q 600 484 672 555 q 408 406 527 412 l 408 403 l 725 0 l 652 0 l 335 399 l 180 399 l 180 0 l 121 0 l 121 907 l 319 907 m 610 668 q 532 811 610 770 q 313 852 455 852 l 180 852 l 180 453 l 315 453 q 536 503 463 453 q 610 668 610 553 m 278 956 l 385 1124 l 457 1124 l 340 956 l 278 956 z "},"ŕ":{"ha":454,"x_min":121,"x_max":440,"o":"m 164 633 l 174 521 l 175 521 q 281 613 212 576 q 422 650 350 650 l 440 650 l 440 596 l 422 596 q 279 555 348 596 q 175 449 210 515 l 175 0 l 121 0 l 121 633 l 164 633 m 212 762 l 297 999 l 368 999 l 260 762 l 212 762 z "},"Ŗ":{"ha":777,"x_min":121,"x_max":725,"o":"m 319 907 q 452 900 404 907 q 672 667 672 857 q 600 484 672 555 q 408 406 527 412 l 408 403 l 725 0 l 652 0 l 335 399 l 180 399 l 180 0 l 121 0 l 121 907 l 319 907 m 610 668 q 532 811 610 770 q 313 852 455 852 l 180 852 l 180 453 l 315 453 q 536 503 463 453 q 610 668 610 553 m 427 -205 q 404 -156 427 -173 q 342 -139 382 -139 l 342 -92 l 363 -90 q 447 -117 416 -90 q 478 -195 478 -144 q 467 -262 478 -232 q 424 -332 455 -292 l 372 -332 q 427 -205 427 -253 z "},"ŗ":{"ha":447,"x_min":115,"x_max":440,"o":"m 200 -205 q 178 -156 200 -173 q 115 -139 155 -139 l 115 -92 l 136 -90 q 220 -117 189 -90 q 252 -195 252 -144 q 240 -262 252 -232 q 197 -332 229 -292 l 146 -332 q 200 -205 200 -253 m 164 633 l 174 521 l 175 521 q 281 613 212 576 q 422 650 350 650 l 440 650 l 440 596 l 422 596 q 279 555 348 596 q 175 449 210 515 l 175 0 l 121 0 l 121 633 l 164 633 z "},"Ř":{"ha":777,"x_min":121,"x_max":725,"o":"m 319 907 q 452 900 404 907 q 672 667 672 857 q 600 484 672 555 q 408 406 527 412 l 408 403 l 725 0 l 652 0 l 335 399 l 180 399 l 180 0 l 121 0 l 121 907 l 319 907 m 610 668 q 532 811 610 770 q 313 852 455 852 l 180 852 l 180 453 l 315 453 q 536 503 463 453 q 610 668 610 553 m 170 1124 l 235 1124 l 351 999 l 354 999 l 477 1124 l 542 1124 l 394 956 l 317 956 l 170 1124 z "},"ř":{"ha":454,"x_min":77,"x_max":440,"o":"m 164 633 l 174 521 l 175 521 q 281 613 212 576 q 422 650 350 650 l 440 650 l 440 596 l 422 596 q 279 555 348 596 q 175 449 210 515 l 175 0 l 121 0 l 121 633 l 164 633 m 77 999 l 130 999 l 254 811 l 257 811 l 382 999 l 439 999 l 289 762 l 224 762 l 77 999 z "},"Ś":{"ha":733,"x_min":89,"x_max":644,"o":"m 93 32 l 93 97 q 201 58 126 77 q 326 39 277 39 q 516 84 448 39 q 583 239 583 130 q 561 330 583 294 q 498 387 538 366 q 357 437 459 409 q 216 481 269 459 q 125 550 162 503 q 89 675 89 596 q 171 857 89 788 q 385 925 252 925 q 554 900 471 925 q 614 875 587 888 l 614 810 q 543 841 572 829 q 472 861 513 852 q 380 871 430 870 q 207 817 263 871 q 150 672 150 762 q 175 583 150 615 q 241 532 199 550 q 367 492 283 515 q 513 444 460 466 q 605 373 566 422 q 644 241 644 325 q 561 51 644 119 q 322 -17 477 -17 q 189 0 258 -17 q 93 32 120 17 m 333 956 l 440 1124 l 512 1124 l 395 956 l 333 956 z "},"ś":{"ha":536,"x_min":71,"x_max":471,"o":"m 71 16 l 71 72 q 243 32 144 32 q 371 70 323 32 q 418 175 418 107 q 387 254 418 227 q 282 300 355 282 q 172 334 215 316 q 102 385 130 351 q 75 475 75 419 q 135 607 75 564 q 288 650 195 650 q 446 614 372 650 l 446 561 q 369 591 406 581 q 283 602 332 602 q 167 570 207 602 q 127 479 127 538 q 146 416 127 439 q 197 381 165 393 q 296 353 230 369 q 429 291 387 330 q 471 179 471 252 q 410 36 471 90 q 243 -17 349 -17 q 71 16 129 -17 m 234 762 l 319 999 l 391 999 l 282 762 l 234 762 z "},"Ş":{"ha":733,"x_min":89,"x_max":644,"o":"m 332 -87 q 433 -120 394 -93 q 472 -200 472 -148 q 429 -289 472 -259 q 304 -319 385 -319 q 220 -307 249 -319 l 220 -262 q 297 -273 248 -273 q 383 -256 350 -273 q 416 -201 416 -239 q 273 -126 416 -126 l 307 -17 q 189 0 254 -15 q 93 32 125 15 l 93 97 q 201 58 126 77 q 326 39 277 39 q 516 84 448 39 q 583 239 583 130 q 561 330 583 294 q 498 387 538 366 q 357 437 459 409 q 216 481 269 459 q 125 550 162 503 q 89 675 89 596 q 171 857 89 788 q 385 925 252 925 q 554 900 471 925 q 614 875 587 888 l 614 810 q 543 841 572 829 q 472 861 513 852 q 380 871 430 870 q 207 817 263 871 q 150 672 150 762 q 175 583 150 615 q 241 532 199 550 q 367 492 283 515 q 513 444 460 466 q 605 373 566 422 q 644 241 644 325 q 566 55 644 119 q 355 -16 487 -9 l 332 -87 z "},"ş":{"ha":536,"x_min":71,"x_max":471,"o":"m 142 -307 l 142 -262 q 220 -273 172 -273 q 306 -256 273 -273 q 339 -201 339 -239 q 196 -126 339 -126 l 229 -17 q 71 16 132 -15 l 71 72 q 243 32 144 32 q 371 70 323 32 q 418 175 418 107 q 387 254 418 227 q 282 300 355 282 q 172 334 215 316 q 102 385 130 351 q 75 475 75 419 q 135 607 75 564 q 288 650 195 650 q 446 614 372 650 l 446 561 q 369 591 406 581 q 283 602 332 602 q 167 570 207 602 q 127 479 127 538 q 146 416 127 439 q 197 381 165 393 q 296 353 230 369 q 429 291 387 330 q 471 179 471 252 q 418 44 471 95 q 278 -16 366 -7 l 254 -87 q 355 -120 316 -93 q 395 -200 395 -148 q 351 -289 395 -259 q 227 -319 308 -319 q 142 -307 171 -319 z "},"Š":{"ha":733,"x_min":89,"x_max":644,"o":"m 93 32 l 93 97 q 201 58 126 77 q 326 39 277 39 q 516 84 448 39 q 583 239 583 130 q 561 330 583 294 q 498 387 538 366 q 357 437 459 409 q 216 481 269 459 q 125 550 162 503 q 89 675 89 596 q 171 857 89 788 q 385 925 252 925 q 554 900 471 925 q 614 875 587 888 l 614 810 q 543 841 572 829 q 472 861 513 852 q 380 871 430 870 q 207 817 263 871 q 150 672 150 762 q 175 583 150 615 q 241 532 199 550 q 367 492 283 515 q 513 444 460 466 q 605 373 566 422 q 644 241 644 325 q 561 51 644 119 q 322 -17 477 -17 q 189 0 258 -17 q 93 32 120 17 m 200 1124 l 265 1124 l 382 999 l 385 999 l 508 1124 l 572 1124 l 425 956 l 347 956 l 200 1124 z "},"š":{"ha":536,"x_min":71,"x_max":471,"o":"m 71 16 l 71 72 q 243 32 144 32 q 371 70 323 32 q 418 175 418 107 q 387 254 418 227 q 282 300 355 282 q 172 334 215 316 q 102 385 130 351 q 75 475 75 419 q 135 607 75 564 q 288 650 195 650 q 446 614 372 650 l 446 561 q 369 591 406 581 q 283 602 332 602 q 167 570 207 602 q 127 479 127 538 q 146 416 127 439 q 197 381 165 393 q 296 353 230 369 q 429 291 387 330 q 471 179 471 252 q 410 36 471 90 q 243 -17 349 -17 q 71 16 129 -17 m 104 999 l 157 999 l 282 811 l 285 811 l 410 999 l 467 999 l 317 762 l 252 762 l 104 999 z "},"Ţ":{"ha":753,"x_min":33,"x_max":720,"o":"m 346 851 l 33 851 l 33 907 l 720 907 l 720 851 l 406 851 l 406 0 l 378 -86 q 479 -119 440 -92 q 518 -199 518 -146 q 475 -288 518 -258 q 350 -318 431 -318 q 265 -306 296 -318 l 265 -261 q 343 -272 295 -272 q 429 -255 396 -272 q 463 -200 463 -237 q 319 -125 463 -125 l 357 0 l 346 0 l 346 851 z "},"ţ":{"ha":441,"x_min":14,"x_max":397,"o":"m 132 -307 l 132 -262 q 210 -273 161 -273 q 296 -256 262 -273 q 329 -201 329 -239 q 186 -126 329 -126 l 224 -3 q 139 151 139 35 l 139 582 l 14 582 l 14 633 l 139 633 l 139 803 l 193 803 l 193 633 l 387 633 l 387 582 l 193 582 l 193 167 q 222 63 193 94 q 311 33 250 33 q 397 45 365 33 l 397 -3 q 301 -17 356 -17 q 268 -14 287 -17 l 244 -87 q 346 -120 307 -93 q 385 -200 385 -148 q 341 -289 385 -259 q 216 -319 298 -319 q 132 -307 161 -319 z "},"Ť":{"ha":753,"x_min":33,"x_max":720,"o":"m 346 851 l 33 851 l 33 907 l 720 907 l 720 851 l 406 851 l 406 0 l 346 0 l 346 851 m 184 1124 l 249 1124 l 366 999 l 368 999 l 492 1124 l 556 1124 l 408 956 l 331 956 l 184 1124 z "},"ť":{"ha":441,"x_min":14,"x_max":473,"o":"m 139 151 l 139 582 l 14 582 l 14 633 l 139 633 l 139 803 l 193 803 l 193 633 l 387 633 l 387 582 l 193 582 l 193 167 q 222 63 193 94 q 311 33 250 33 q 397 45 365 33 l 397 -3 q 301 -17 356 -17 q 182 25 225 -17 q 139 151 139 67 m 421 865 q 399 915 421 898 q 336 932 376 932 l 336 979 l 357 981 q 441 954 410 981 q 473 876 473 926 q 461 809 473 839 q 418 739 450 779 l 367 739 q 421 865 421 818 z "},"Ū":{"ha":895,"x_min":118,"x_max":777,"o":"m 118 323 l 118 907 l 178 907 l 178 298 q 249 106 178 176 q 447 37 319 37 q 646 104 576 37 q 717 298 717 171 l 717 907 l 777 907 l 777 323 q 446 -17 777 -17 q 200 71 281 -17 q 118 323 118 159 m 272 987 l 272 1042 l 627 1042 l 627 987 l 272 987 z "},"ū":{"ha":684,"x_min":107,"x_max":576,"o":"m 107 243 l 107 633 l 161 633 l 161 229 q 210 79 161 125 q 342 33 258 33 q 442 56 401 33 q 502 117 482 78 q 522 232 522 157 l 522 633 l 576 633 l 576 241 q 563 122 576 165 q 517 46 549 79 q 441 -2 484 13 q 345 -17 399 -17 q 241 0 286 -17 q 165 48 195 18 q 121 121 135 79 q 107 243 107 162 m 164 800 l 164 851 l 519 851 l 519 800 l 164 800 z "},"Ŭ":{"ha":895,"x_min":118,"x_max":777,"o":"m 118 323 l 118 907 l 178 907 l 178 298 q 249 106 178 176 q 447 37 319 37 q 646 104 576 37 q 717 298 717 171 l 717 907 l 777 907 l 777 323 q 446 -17 777 -17 q 200 71 281 -17 q 118 323 118 159 m 255 1125 l 304 1125 q 353 1037 313 1066 q 444 1007 394 1007 q 539 1039 500 1007 q 586 1125 578 1072 l 635 1125 q 573 1005 627 1050 q 444 960 520 960 q 315 1005 368 960 q 255 1125 262 1051 z "},"ŭ":{"ha":684,"x_min":107,"x_max":576,"o":"m 107 243 l 107 633 l 161 633 l 161 229 q 210 79 161 125 q 342 33 258 33 q 442 56 401 33 q 502 117 482 78 q 522 232 522 157 l 522 633 l 576 633 l 576 241 q 563 122 576 165 q 517 46 549 79 q 441 -2 484 13 q 345 -17 399 -17 q 241 0 286 -17 q 165 48 195 18 q 121 121 135 79 q 107 243 107 162 m 147 974 l 195 974 q 242 876 204 905 q 333 847 281 847 q 425 877 385 847 q 472 974 465 906 l 521 974 q 461 847 513 894 q 333 800 410 800 q 205 847 256 800 q 147 974 154 895 z "},"Ů":{"ha":895,"x_min":118,"x_max":777,"o":"m 118 323 l 118 907 l 178 907 l 178 298 q 249 106 178 176 q 447 37 319 37 q 646 104 576 37 q 717 298 717 171 l 717 907 l 777 907 l 777 323 q 446 -17 777 -17 q 200 71 281 -17 q 118 323 118 159 m 304 1060 q 343 1144 304 1112 q 443 1177 382 1177 q 543 1144 503 1177 q 582 1060 582 1112 q 542 977 582 1009 q 443 945 503 945 q 343 977 382 945 q 304 1060 304 1009 m 534 1060 q 508 1116 534 1094 q 443 1137 482 1137 q 378 1115 405 1137 q 351 1060 351 1093 q 377 1004 351 1025 q 443 983 403 983 q 509 1004 483 983 q 534 1060 534 1025 z "},"ů":{"ha":684,"x_min":107,"x_max":576,"o":"m 107 243 l 107 633 l 161 633 l 161 229 q 210 79 161 125 q 342 33 258 33 q 442 56 401 33 q 502 117 482 78 q 522 232 522 157 l 522 633 l 576 633 l 576 241 q 563 122 576 165 q 517 46 549 79 q 441 -2 484 13 q 345 -17 399 -17 q 241 0 286 -17 q 165 48 195 18 q 121 121 135 79 q 107 243 107 162 m 203 878 q 242 965 203 930 q 342 1000 281 1000 q 440 965 400 1000 q 481 878 481 930 q 441 791 481 826 q 342 757 401 757 q 243 791 283 757 q 203 878 203 825 m 432 878 q 406 937 432 912 q 342 961 380 961 q 278 937 304 961 q 252 878 252 912 q 277 820 252 843 q 342 796 303 796 q 407 820 382 796 q 432 878 432 843 z "},"Ű":{"ha":895,"x_min":118,"x_max":777,"o":"m 118 323 l 118 907 l 178 907 l 178 298 q 249 106 178 176 q 447 37 319 37 q 646 104 576 37 q 717 298 717 171 l 717 907 l 777 907 l 777 323 q 446 -17 777 -17 q 200 71 281 -17 q 118 323 118 159 m 321 956 l 410 1124 l 488 1124 l 378 956 l 321 956 m 503 956 l 592 1124 l 669 1124 l 559 956 l 503 956 z "},"ű":{"ha":684,"x_min":107,"x_max":576,"o":"m 107 243 l 107 633 l 161 633 l 161 229 q 210 79 161 125 q 342 33 258 33 q 442 56 401 33 q 502 117 482 78 q 522 232 522 157 l 522 633 l 576 633 l 576 241 q 563 122 576 165 q 517 46 549 79 q 441 -2 484 13 q 345 -17 399 -17 q 241 0 286 -17 q 165 48 195 18 q 121 121 135 79 q 107 243 107 162 m 215 762 l 301 999 l 372 999 l 264 762 l 215 762 m 410 762 l 496 999 l 566 999 l 458 762 l 410 762 z "},"Ų":{"ha":895,"x_min":118,"x_max":777,"o":"m 777 907 l 777 323 q 635 24 777 101 q 534 -67 572 -22 q 496 -160 496 -111 q 515 -225 496 -201 q 570 -249 534 -249 q 640 -240 601 -249 l 640 -282 q 566 -293 609 -293 q 477 -260 509 -293 q 444 -167 444 -227 q 526 -11 444 -87 q 446 -17 494 -17 q 200 71 281 -17 q 118 323 118 159 l 118 907 l 178 907 l 178 298 q 249 106 178 176 q 447 37 319 37 q 646 104 576 37 q 717 298 717 171 l 717 907 l 777 907 z "},"ų":{"ha":684,"x_min":107,"x_max":576,"o":"m 576 633 l 576 241 q 563 124 576 167 q 521 50 550 81 q 387 -97 416 -54 q 358 -182 358 -139 q 377 -247 358 -222 q 432 -271 396 -271 q 503 -262 466 -271 l 503 -304 q 428 -315 472 -315 q 340 -282 372 -315 q 307 -189 307 -249 q 403 -11 307 -109 q 345 -17 379 -17 q 241 0 286 -17 q 165 48 195 18 q 121 121 135 79 q 107 243 107 162 l 107 633 l 161 633 l 161 229 q 210 79 161 125 q 342 33 258 33 q 442 56 401 33 q 502 117 482 78 q 522 232 522 157 l 522 633 l 576 633 z "},"Ÿ":{"ha":774,"x_min":39,"x_max":734,"o":"m 357 364 l 39 907 l 104 907 l 385 416 l 389 416 l 669 907 l 734 907 l 416 364 l 416 0 l 357 0 l 357 364 m 232 982 l 232 1064 l 304 1064 l 304 982 l 232 982 m 475 982 l 475 1064 l 546 1064 l 546 982 l 475 982 z "},"Ź":{"ha":793,"x_min":74,"x_max":720,"o":"m 74 52 l 646 852 l 86 852 l 86 907 l 714 907 l 714 857 l 140 54 l 720 54 l 720 0 l 74 0 l 74 52 m 353 956 l 460 1124 l 532 1124 l 415 956 l 353 956 z "},"ź":{"ha":589,"x_min":52,"x_max":538,"o":"m 52 28 l 444 582 l 61 582 l 61 633 l 514 633 l 514 595 l 126 51 l 538 51 l 538 0 l 52 0 l 52 28 m 256 762 l 341 999 l 412 999 l 304 762 l 256 762 z "},"Ż":{"ha":793,"x_min":74,"x_max":720,"o":"m 74 52 l 646 852 l 86 852 l 86 907 l 714 907 l 714 857 l 140 54 l 720 54 l 720 0 l 74 0 l 74 52 m 363 982 l 363 1064 l 435 1064 l 435 982 l 363 982 z "},"ż":{"ha":589,"x_min":52,"x_max":538,"o":"m 52 28 l 444 582 l 61 582 l 61 633 l 514 633 l 514 595 l 126 51 l 538 51 l 538 0 l 52 0 l 52 28 m 264 847 l 326 847 l 326 782 l 264 782 l 264 847 z "},"Ž":{"ha":793,"x_min":74,"x_max":720,"o":"m 74 52 l 646 852 l 86 852 l 86 907 l 714 907 l 714 857 l 140 54 l 720 54 l 720 0 l 74 0 l 74 52 m 205 1124 l 271 1124 l 387 999 l 390 999 l 513 1124 l 578 1124 l 430 956 l 353 956 l 205 1124 z "},"ž":{"ha":589,"x_min":52,"x_max":538,"o":"m 52 28 l 444 582 l 61 582 l 61 633 l 514 633 l 514 595 l 126 51 l 538 51 l 538 0 l 52 0 l 52 28 m 110 999 l 163 999 l 288 811 l 290 811 l 416 999 l 472 999 l 322 762 l 257 762 l 110 999 z "},"Ɓ":{"ha":873,"x_min":4,"x_max":781,"o":"m 781 256 q 740 122 781 184 q 632 31 700 61 q 416 0 565 0 l 208 0 l 208 854 l 199 854 q 64 732 64 854 q 74 647 64 690 l 17 647 q 4 741 4 700 q 57 866 4 826 q 200 907 111 907 l 354 907 q 531 897 468 907 q 645 856 594 887 q 719 782 696 825 q 742 677 742 739 q 571 469 742 509 l 571 467 q 725 409 669 465 q 781 256 781 354 m 268 492 l 454 492 q 578 513 531 492 q 650 576 626 534 q 675 675 675 618 q 647 775 675 737 q 563 833 620 814 q 382 852 506 852 l 268 852 l 268 492 m 714 256 q 681 372 714 326 q 566 431 647 418 q 456 436 528 436 l 268 436 l 268 54 l 425 54 q 590 74 526 54 q 685 145 655 94 q 714 256 714 197 z "},"Ɔ":{"ha":825,"x_min":93,"x_max":751,"o":"m 751 463 q 694 211 751 320 q 532 43 636 102 q 293 -17 428 -17 q 182 -6 237 -17 q 102 19 127 5 l 102 76 q 288 39 207 39 q 490 87 399 39 q 634 231 581 135 q 688 464 688 326 q 581 764 688 659 q 273 869 474 869 q 93 833 180 869 l 93 888 q 177 916 127 906 q 282 925 228 925 q 630 805 509 925 q 751 463 751 685 z "},"Ɖ":{"ha":908,"x_min":40,"x_max":815,"o":"m 815 458 q 794 303 815 375 q 732 173 772 231 q 634 77 692 116 q 505 19 577 37 q 318 0 433 0 l 121 0 l 121 444 l 40 444 l 40 498 l 121 498 l 121 907 l 298 907 q 485 893 418 907 q 734 738 652 850 q 815 458 815 625 m 751 457 q 684 704 751 607 q 489 836 616 802 q 401 849 450 846 q 273 852 352 852 l 180 852 l 180 498 l 408 498 l 408 444 l 180 444 l 180 54 l 278 54 q 394 57 352 54 q 476 68 435 59 q 678 200 605 96 q 751 457 751 304 z "},"Ɗ":{"ha":996,"x_min":4,"x_max":903,"o":"m 903 458 q 870 268 903 355 q 775 120 837 181 q 630 30 713 60 q 406 0 547 0 l 208 0 l 208 854 l 199 854 q 64 732 64 854 q 74 647 64 690 l 17 647 q 4 741 4 700 q 57 866 4 826 q 200 907 111 907 l 386 907 q 572 893 506 907 q 821 738 740 850 q 903 458 903 625 m 839 457 q 771 704 839 607 q 576 836 704 802 q 488 849 537 846 q 361 852 439 852 l 268 852 l 268 54 l 366 54 q 564 68 494 54 q 766 200 692 96 q 839 457 839 304 z "},"Ǝ":{"ha":745,"x_min":81,"x_max":624,"o":"m 624 0 l 107 0 l 107 54 l 564 54 l 564 415 l 146 415 l 146 469 l 564 469 l 564 852 l 81 852 l 81 907 l 624 907 l 624 0 z "},"Ə":{"ha":895,"x_min":68,"x_max":802,"o":"m 68 366 l 68 416 l 742 416 q 650 753 742 635 q 378 871 558 871 q 253 863 302 871 q 147 838 203 855 l 147 892 q 247 917 195 909 q 378 925 299 925 q 691 796 580 925 q 802 433 802 667 q 755 208 802 311 q 621 44 708 105 q 419 -17 534 -17 q 244 27 324 -17 q 116 157 164 71 q 68 366 68 243 m 734 363 l 127 363 q 166 183 127 257 q 272 73 205 109 q 421 36 339 36 q 570 78 500 36 q 684 194 640 119 q 734 363 728 269 z "},"Ɛ":{"ha":697,"x_min":83,"x_max":648,"o":"m 83 252 q 139 402 83 349 q 279 469 195 456 l 279 473 q 159 544 207 492 q 111 684 111 596 q 185 860 111 795 q 386 925 260 925 q 528 911 463 925 q 629 879 593 897 l 629 821 q 386 871 510 871 q 230 821 286 871 q 174 681 174 771 q 233 548 174 599 q 432 497 293 497 l 482 497 l 482 443 l 429 443 q 146 252 146 443 q 209 91 146 144 q 410 37 273 37 q 546 52 480 37 q 648 87 612 67 l 648 26 q 539 -5 608 7 q 408 -17 470 -17 q 160 53 237 -17 q 83 252 83 123 z "},"Ƒ":{"ha":679,"x_min":-25,"x_max":629,"o":"m 180 852 l 180 494 l 590 494 l 590 440 l 180 440 l 180 -168 q 142 -296 180 -260 q 33 -332 104 -332 q -25 -321 2 -332 l -25 -271 q 33 -279 1 -279 q 99 -255 77 -279 q 121 -172 121 -231 l 121 907 l 629 907 l 629 852 l 180 852 z "},"ƒ":{"ha":694,"x_min":20,"x_max":590,"o":"m 20 -220 l 20 -174 q 81 -180 45 -180 q 186 -113 147 -180 q 250 98 226 -45 q 297 505 274 241 l 135 505 l 135 557 l 304 557 q 378 843 326 761 q 529 925 431 925 q 590 916 564 925 l 590 871 q 526 876 561 876 q 414 803 453 876 q 359 557 376 729 l 551 557 l 551 505 l 353 505 q 302 81 328 231 q 223 -149 275 -68 q 75 -229 170 -229 q 20 -220 39 -229 z "},"Ɣ":{"ha":732,"x_min":9,"x_max":726,"o":"m 403 179 q 495 -31 481 9 q 515 -102 509 -70 q 521 -167 521 -134 q 482 -278 521 -235 q 368 -322 444 -322 q 253 -278 290 -322 q 216 -164 216 -234 q 244 -18 216 -99 q 329 192 271 63 l 9 907 l 77 907 l 371 244 l 660 907 l 726 907 l 403 179 m 463 -161 q 444 -72 463 -122 q 386 64 426 -22 l 361 119 q 275 -163 275 -81 q 368 -269 275 -269 q 438 -239 414 -269 q 463 -161 463 -210 z "},"Ƙ":{"ha":781,"x_min":121,"x_max":747,"o":"m 747 0 l 665 0 l 182 449 l 180 449 l 180 0 l 121 0 l 121 907 l 180 907 l 180 456 l 182 456 l 585 852 q 645 901 621 887 q 703 914 669 914 q 746 905 718 914 l 747 851 q 704 860 727 860 q 662 849 680 860 q 616 811 643 838 l 258 453 l 747 0 z "},"ƙ":{"ha":614,"x_min":121,"x_max":583,"o":"m 244 347 l 582 0 l 511 0 l 176 345 l 175 345 l 175 0 l 121 0 l 121 851 q 161 964 121 930 q 273 997 202 997 q 309 994 289 997 q 339 986 330 990 l 339 940 q 273 949 313 949 q 200 924 226 949 q 175 838 175 899 l 175 357 l 176 357 l 510 633 l 583 633 l 244 347 z "},"Ơ":{"ha":1038,"x_min":93,"x_max":1003,"o":"m 867 693 q 916 453 916 587 q 863 212 916 319 q 718 44 811 104 q 507 -17 625 -17 q 288 43 382 -17 q 143 211 194 104 q 93 453 93 317 q 145 696 93 588 q 292 864 198 804 q 504 925 385 925 q 706 874 618 925 q 847 732 794 823 q 921 779 895 751 q 946 852 946 807 q 914 968 946 916 l 978 968 q 1003 859 1003 910 q 971 753 1003 790 q 867 693 940 717 m 851 453 q 805 678 851 583 q 680 822 759 772 q 504 871 601 871 q 329 822 408 871 q 203 678 250 772 q 157 453 157 583 q 203 228 157 321 q 330 85 250 134 q 507 37 410 37 q 681 85 603 37 q 805 228 759 134 q 851 453 851 321 z "},"ơ":{"ha":783,"x_min":74,"x_max":765,"o":"m 619 454 q 640 315 640 394 q 562 75 640 167 q 358 -17 484 -17 q 151 74 229 -17 q 74 315 74 164 q 152 558 74 467 q 358 650 229 650 q 507 609 444 650 q 604 494 570 568 q 682 543 655 515 q 708 618 708 571 q 676 733 708 685 l 741 733 q 765 624 765 675 q 731 517 765 555 q 619 454 697 479 m 583 315 q 522 523 583 446 q 358 600 461 600 q 192 524 254 600 q 131 315 131 447 q 192 109 131 185 q 358 33 252 33 q 523 109 463 33 q 583 315 583 184 z "},"Ư":{"ha":989,"x_min":118,"x_max":961,"o":"m 777 689 l 777 323 q 446 -17 777 -17 q 200 71 281 -17 q 118 323 118 159 l 118 907 l 178 907 l 178 298 q 249 106 178 176 q 447 37 319 37 q 646 104 576 37 q 717 298 717 171 l 717 907 l 777 907 l 777 729 q 904 852 904 749 q 872 968 904 920 l 936 968 q 961 859 961 911 q 920 747 961 789 q 777 689 879 704 z "},"ư":{"ha":775,"x_min":107,"x_max":762,"o":"m 576 456 l 576 241 q 563 122 576 165 q 517 46 549 79 q 441 -2 484 13 q 345 -17 399 -17 q 241 0 286 -17 q 165 48 195 18 q 121 121 135 79 q 107 243 107 162 l 107 633 l 161 633 l 161 229 q 210 79 161 125 q 342 33 258 33 q 442 56 401 33 q 502 117 482 78 q 522 232 522 157 l 522 633 l 576 633 l 576 496 q 673 538 642 506 q 705 619 705 570 q 673 734 705 686 l 737 734 q 762 625 762 678 q 721 513 762 555 q 576 456 679 470 z "},"Ʋ":{"ha":895,"x_min":118,"x_max":777,"o":"m 777 323 q 446 -17 777 -17 q 200 71 281 -17 q 118 323 118 159 l 118 907 l 178 907 l 178 298 q 249 106 178 176 q 447 37 319 37 q 646 104 576 37 q 717 298 717 171 l 717 542 q 700 743 717 673 q 649 838 684 812 q 557 864 615 864 q 475 852 507 864 l 475 904 q 571 918 511 918 q 727 848 677 918 q 777 615 777 777 l 777 323 z "},"Ƴ":{"ha":774,"x_min":39,"x_max":743,"o":"m 416 364 l 416 0 l 357 0 l 357 364 l 39 907 l 104 907 l 385 416 l 389 416 l 575 836 q 623 900 595 881 q 690 918 652 918 q 743 909 715 918 l 743 856 q 694 864 723 864 q 653 852 669 864 q 624 810 637 840 l 416 364 z "},"ƴ":{"ha":623,"x_min":32,"x_max":730,"o":"m 207 -315 l 149 -315 l 275 -5 l 32 633 l 90 633 q 304 58 282 115 l 310 58 l 355 175 l 562 715 q 610 796 584 772 q 676 821 637 821 q 730 812 704 821 l 730 761 q 682 770 710 770 q 645 759 657 770 q 616 713 633 749 l 207 -315 z "},"Ʒ":{"ha":729,"x_min":86,"x_max":623,"o":"m 90 24 l 90 81 q 294 36 195 36 q 561 275 561 36 q 492 424 561 366 q 261 481 424 481 l 214 481 l 214 541 l 505 852 l 86 852 l 86 907 l 581 907 l 581 857 l 269 530 q 440 505 361 530 q 571 422 520 480 q 623 273 623 365 q 537 60 623 138 q 301 -17 451 -17 q 183 -5 239 -17 q 90 24 127 7 z "},"ǝ":{"ha":672,"x_min":89,"x_max":598,"o":"m 598 310 q 564 137 598 211 q 469 23 529 63 q 333 -16 408 -16 q 155 57 222 -16 q 89 286 89 130 l 89 310 l 541 310 q 475 530 541 460 q 290 600 410 600 q 111 564 189 600 l 111 615 q 290 650 174 650 q 518 562 438 650 q 598 310 598 473 m 333 32 q 475 96 417 32 q 540 261 532 160 l 144 261 q 194 90 146 149 q 333 32 241 32 z "},"Ș":{"ha":733,"x_min":89,"x_max":644,"o":"m 93 32 l 93 97 q 201 58 126 77 q 326 39 277 39 q 516 84 448 39 q 583 239 583 130 q 561 330 583 294 q 498 387 538 366 q 357 437 459 409 q 216 481 269 459 q 125 550 162 503 q 89 675 89 596 q 171 857 89 788 q 385 925 252 925 q 554 900 471 925 q 614 875 587 888 l 614 810 q 543 841 572 829 q 472 861 513 852 q 380 871 430 870 q 207 817 263 871 q 150 672 150 762 q 175 583 150 615 q 241 532 199 550 q 367 492 283 515 q 513 444 460 466 q 605 373 566 422 q 644 241 644 325 q 561 51 644 119 q 322 -17 477 -17 q 189 0 258 -17 q 93 32 120 17 m 379 -205 q 357 -156 379 -173 q 294 -139 334 -139 l 294 -92 l 315 -90 q 399 -117 368 -90 q 431 -195 431 -144 q 419 -262 431 -232 q 376 -332 408 -292 l 325 -332 q 379 -205 379 -253 z "},"ș":{"ha":536,"x_min":71,"x_max":471,"o":"m 292 -205 q 269 -156 292 -173 q 207 -139 247 -139 l 207 -92 l 228 -90 q 312 -117 281 -90 q 343 -195 343 -144 q 332 -262 343 -232 q 289 -332 320 -292 l 237 -332 q 292 -205 292 -253 m 71 16 l 71 72 q 243 32 144 32 q 371 70 323 32 q 418 175 418 107 q 387 254 418 227 q 282 300 355 282 q 172 334 215 316 q 102 385 130 351 q 75 475 75 419 q 135 607 75 564 q 288 650 195 650 q 446 614 372 650 l 446 561 q 369 591 406 581 q 283 602 332 602 q 167 570 207 602 q 127 479 127 538 q 146 416 127 439 q 197 381 165 393 q 296 353 230 369 q 429 291 387 330 q 471 179 471 252 q 410 36 471 90 q 243 -17 349 -17 q 71 16 129 -17 z "},"Ț":{"ha":753,"x_min":33,"x_max":720,"o":"m 346 851 l 33 851 l 33 907 l 720 907 l 720 851 l 406 851 l 406 0 l 346 0 l 346 851 m 393 -205 q 371 -156 393 -173 q 309 -139 349 -139 l 309 -92 l 330 -90 q 414 -117 382 -90 q 445 -195 445 -144 q 433 -262 445 -232 q 391 -332 422 -292 l 339 -332 q 393 -205 393 -253 z "},"ț":{"ha":432,"x_min":14,"x_max":397,"o":"m 139 151 l 139 582 l 14 582 l 14 633 l 139 633 l 139 803 l 193 803 l 193 633 l 387 633 l 387 582 l 193 582 l 193 167 q 222 63 193 94 q 311 33 250 33 q 397 45 365 33 l 397 -3 q 301 -17 356 -17 q 182 25 225 -17 q 139 151 139 67 m 248 -205 q 225 -156 248 -173 q 163 -139 203 -139 l 163 -92 l 184 -90 q 268 -117 237 -90 q 299 -195 299 -144 q 288 -262 299 -232 q 245 -332 276 -292 l 193 -332 q 248 -205 248 -253 z "},"ɓ":{"ha":720,"x_min":117,"x_max":646,"o":"m 646 318 q 608 133 646 208 q 508 20 570 57 q 371 -17 446 -17 q 257 9 303 -17 q 174 74 210 35 l 172 74 l 165 0 l 117 0 q 121 199 121 100 l 121 851 q 161 964 121 930 q 273 997 202 997 q 309 994 289 997 q 339 986 330 990 l 339 940 q 273 949 313 949 q 200 924 226 949 q 175 838 175 899 l 175 554 l 176 554 q 263 624 211 598 q 376 650 315 650 q 576 566 506 650 q 646 318 646 482 m 589 318 q 378 600 589 600 q 175 496 259 600 l 175 134 q 251 65 201 96 q 368 33 300 33 q 529 110 470 33 q 589 318 589 186 z "},"ɔ":{"ha":606,"x_min":64,"x_max":532,"o":"m 532 322 q 488 126 532 201 q 378 17 444 50 q 240 -16 311 -16 q 147 -6 192 -16 q 74 20 102 3 l 74 75 q 155 45 109 56 q 241 33 201 33 q 354 62 300 33 q 441 156 407 91 q 475 323 475 221 q 408 525 475 450 q 229 600 342 600 q 64 562 156 600 l 64 612 q 233 650 140 650 q 384 614 317 650 q 492 505 452 578 q 532 322 532 431 z "},"ɖ":{"ha":720,"x_min":74,"x_max":750,"o":"m 750 -275 l 750 -321 q 692 -332 723 -332 q 583 -298 621 -332 q 545 -186 545 -265 l 545 74 l 542 74 q 459 10 515 37 q 347 -17 403 -17 q 211 18 273 -17 q 112 127 149 53 q 74 313 74 201 q 149 558 74 467 q 349 650 223 650 q 461 628 414 650 q 545 559 509 606 l 547 559 l 545 636 l 545 982 l 599 982 l 599 -172 q 622 -259 599 -234 q 692 -283 645 -283 q 750 -275 723 -283 m 545 143 l 545 503 q 350 600 461 600 q 190 522 248 600 q 131 310 131 444 q 189 107 131 180 q 349 33 247 33 q 464 64 410 33 q 545 143 517 95 z "},"ɗ":{"ha":720,"x_min":74,"x_max":753,"o":"m 753 986 l 753 940 q 688 949 726 949 q 599 825 599 949 l 599 125 q 603 0 599 46 l 562 0 l 547 74 l 545 74 q 460 10 517 37 q 347 -17 403 -17 q 211 18 273 -17 q 112 127 149 53 q 74 313 74 201 q 149 558 74 467 q 349 650 223 650 q 461 628 414 650 q 545 559 509 606 l 547 559 l 545 636 l 545 839 q 688 997 545 997 q 723 994 703 997 q 753 986 743 990 m 545 503 q 350 600 461 600 q 190 522 248 600 q 131 310 131 444 q 189 107 131 180 q 349 33 247 33 q 464 64 410 33 q 545 143 517 95 l 545 503 z "},"ə":{"ha":672,"x_min":89,"x_max":598,"o":"m 598 310 q 564 137 598 211 q 469 23 529 63 q 333 -16 408 -16 q 155 57 222 -16 q 89 286 89 130 l 89 310 l 541 310 q 475 530 541 460 q 290 600 410 600 q 111 564 189 600 l 111 615 q 290 650 174 650 q 518 562 438 650 q 598 310 598 473 m 333 32 q 475 96 417 32 q 540 261 532 160 l 144 261 q 194 90 146 149 q 333 32 241 32 z "},"ɛ":{"ha":608,"x_min":74,"x_max":553,"o":"m 74 172 q 113 277 74 233 q 212 329 153 320 l 212 332 q 129 380 165 344 q 93 482 93 416 q 159 605 93 561 q 342 650 226 650 q 536 624 442 650 l 536 572 q 430 594 473 587 q 340 600 387 600 q 150 479 150 600 q 340 355 150 355 q 452 358 404 355 l 452 302 q 329 306 408 306 q 182 272 233 306 q 131 175 131 237 q 336 33 131 33 q 454 44 404 33 q 553 74 505 54 l 553 22 q 328 -17 473 -17 q 136 34 199 -17 q 74 172 74 85 z "},"ɣ":{"ha":500,"x_min":24,"x_max":476,"o":"m 283 149 q 361 -11 340 33 q 390 -95 381 -54 q 397 -163 399 -135 q 363 -276 397 -229 q 252 -322 328 -322 q 140 -276 174 -322 q 106 -165 106 -230 q 125 -45 106 -106 q 209 139 144 16 l 220 161 l 24 633 l 82 633 l 254 218 l 418 633 l 476 633 l 283 149 m 345 -164 q 323 -66 345 -125 q 248 100 302 -7 q 161 -151 161 -73 q 252 -272 161 -272 q 319 -240 293 -272 q 345 -164 345 -209 z "},"ʃ":{"ha":314,"x_min":-43,"x_max":383,"o":"m -43 -317 l -43 -264 l -15 -271 q 36 -281 21 -281 q 105 -263 80 -281 q 141 -202 130 -246 q 153 -74 153 -157 q 144 266 153 85 q 131 771 131 625 q 172 944 131 889 q 300 999 213 999 q 383 983 336 999 l 383 930 q 307 947 317 947 q 238 931 262 947 q 202 865 214 914 q 191 718 191 817 q 198 442 191 666 l 205 233 q 212 -81 212 73 q 173 -274 212 -216 q 40 -332 134 -332 q -43 -317 2 -332 z "},"ʋ":{"ha":684,"x_min":107,"x_max":576,"o":"m 576 241 q 563 122 576 165 q 517 46 549 79 q 441 -2 484 13 q 345 -17 399 -17 q 241 0 286 -17 q 165 48 195 18 q 121 121 135 79 q 107 243 107 162 l 107 633 l 161 633 l 161 229 q 210 79 161 125 q 342 33 258 33 q 442 56 401 33 q 502 117 482 78 q 522 232 522 157 l 522 376 q 516 503 522 455 q 490 578 511 550 q 428 607 469 607 q 379 603 405 607 q 339 591 353 598 l 339 639 q 425 659 370 659 q 527 621 494 659 q 568 527 559 583 q 576 383 576 471 l 576 241 z "},"ʒ":{"ha":663,"x_min":89,"x_max":597,"o":"m 93 -250 l 93 -200 q 277 -240 188 -240 q 405 -212 344 -240 q 503 -129 465 -183 q 541 -1 541 -75 q 475 148 541 90 q 264 205 409 205 l 216 205 l 216 254 l 488 582 l 89 582 l 89 633 l 555 633 l 555 586 l 282 257 q 432 231 360 257 q 551 148 504 205 q 597 1 597 90 q 506 -207 597 -123 q 273 -290 414 -290 q 93 -250 170 -290 z "},"ʻ":{"ha":273,"x_min":56,"x_max":220,"o":"m 153 607 l 56 907 l 110 907 l 220 607 l 153 607 z "},"ʼ":{"ha":273,"x_min":54,"x_max":216,"o":"m 54 607 l 147 907 l 216 907 l 109 607 l 54 607 z "},"ˆ":{"ha":414,"x_min":26,"x_max":389,"o":"m 26 762 l 174 999 l 239 999 l 389 762 l 336 762 l 207 950 l 204 950 l 79 762 l 26 762 z "},"ˇ":{"ha":414,"x_min":28,"x_max":390,"o":"m 28 999 l 81 999 l 205 811 l 208 811 l 334 999 l 390 999 l 240 762 l 175 762 l 28 999 z "},"ˉ":{"ha":414,"x_min":29,"x_max":385,"o":"m 29 800 l 29 851 l 385 851 l 385 800 l 29 800 z "},"˘":{"ha":414,"x_min":20,"x_max":393,"o":"m 20 974 l 68 974 q 115 876 77 905 q 205 847 153 847 q 297 877 258 847 q 345 974 337 906 l 393 974 q 334 847 385 894 q 205 800 283 800 q 77 847 128 800 q 20 974 26 895 z "},"˙":{"ha":414,"x_min":176,"x_max":239,"o":"m 176 847 l 239 847 l 239 782 l 176 782 l 176 847 z "},"˚":{"ha":414,"x_min":68,"x_max":346,"o":"m 68 878 q 107 965 68 930 q 207 1000 146 1000 q 306 965 265 1000 q 346 878 346 930 q 306 791 346 826 q 207 757 266 757 q 108 791 148 757 q 68 878 68 825 m 297 878 q 271 937 297 912 q 207 961 245 961 q 143 937 170 961 q 117 878 117 912 q 142 820 117 843 q 207 796 168 796 q 272 820 247 796 q 297 878 297 843 z "},"˛":{"ha":414,"x_min":117,"x_max":313,"o":"m 168 -184 q 187 -249 168 -225 q 241 -273 206 -273 q 313 -265 275 -273 l 313 -307 q 237 -318 281 -318 q 149 -285 182 -318 q 117 -192 117 -252 q 268 17 117 -83 l 310 1 q 207 -90 246 -45 q 168 -184 168 -135 z "},"˜":{"ha":414,"x_min":29,"x_max":433,"o":"m 135 882 q 91 863 107 882 q 75 808 75 844 l 29 808 l 29 812 q 55 894 29 860 q 136 928 80 928 q 191 916 165 928 q 251 883 216 905 q 293 858 277 866 q 326 850 310 850 q 372 871 357 850 q 386 925 386 893 l 433 925 l 433 918 q 410 838 433 871 q 325 806 386 806 q 269 817 295 806 q 210 850 243 829 q 167 874 184 866 q 135 882 151 882 z "},"˝":{"ha":414,"x_min":35,"x_max":386,"o":"m 35 762 l 121 999 l 192 999 l 83 762 l 35 762 m 229 762 l 315 999 l 386 999 l 278 762 l 229 762 z "},"̀":{"ha":0,"x_min":-498,"x_max":-342,"o":"m -391 762 l -498 999 l -428 999 l -342 762 l -391 762 z "},"́":{"ha":0,"x_min":-414,"x_max":-257,"o":"m -414 762 l -328 999 l -257 999 l -366 762 l -414 762 z "},"̂":{"ha":0,"x_min":-555,"x_max":-193,"o":"m -555 762 l -408 999 l -343 999 l -193 762 l -245 762 l -375 950 l -378 950 l -503 762 l -555 762 z "},"̃":{"ha":0,"x_min":-576,"x_max":-172,"o":"m -471 882 q -514 863 -498 882 q -530 808 -530 844 l -576 808 l -576 812 q -551 894 -576 860 q -469 928 -526 928 q -415 916 -440 928 q -355 883 -389 905 q -312 858 -329 866 q -279 850 -296 850 q -234 871 -248 850 q -220 925 -220 893 l -172 925 l -172 918 q -196 838 -172 871 q -281 806 -220 806 q -337 817 -311 806 q -396 850 -363 829 q -438 874 -422 866 q -471 882 -455 882 z "},"̄":{"ha":0,"x_min":-554,"x_max":-199,"o":"m -554 800 l -554 851 l -199 851 l -199 800 l -554 800 z "},"̆":{"ha":0,"x_min":-553,"x_max":-179,"o":"m -553 974 l -505 974 q -457 876 -496 905 q -367 847 -419 847 q -275 877 -315 847 q -228 974 -235 906 l -179 974 q -238 847 -187 894 q -367 800 -290 800 q -495 847 -444 800 q -553 974 -546 895 z "},"̇":{"ha":0,"x_min":-420,"x_max":-357,"o":"m -420 847 l -357 847 l -357 782 l -420 782 l -420 847 z "},"̈":{"ha":0,"x_min":-530,"x_max":-216,"o":"m -530 782 l -530 863 l -457 863 l -457 782 l -530 782 m -289 782 l -289 863 l -216 863 l -216 782 l -289 782 z "},"̊":{"ha":0,"x_min":-525,"x_max":-247,"o":"m -525 878 q -486 965 -525 930 q -386 1000 -446 1000 q -287 965 -328 1000 q -247 878 -247 930 q -287 791 -247 826 q -386 757 -327 757 q -485 791 -445 757 q -525 878 -525 825 m -296 878 q -321 937 -296 912 q -386 961 -347 961 q -450 937 -423 961 q -476 878 -476 912 q -450 820 -476 843 q -386 796 -425 796 q -321 820 -346 796 q -296 878 -296 843 z "},"̋":{"ha":0,"x_min":-526,"x_max":-175,"o":"m -526 762 l -440 999 l -369 999 l -477 762 l -526 762 m -332 762 l -245 999 l -175 999 l -283 762 l -332 762 z "},"̌":{"ha":0,"x_min":-564,"x_max":-201,"o":"m -564 999 l -511 999 l -386 811 l -383 811 l -258 999 l -201 999 l -351 762 l -416 762 l -564 999 z "},"̒":{"ha":0,"x_min":-407,"x_max":-271,"o":"m -355 872 q -333 823 -355 840 q -271 806 -311 806 l -271 758 l -292 757 q -376 784 -345 757 q -407 861 -407 811 q -395 929 -407 899 q -353 999 -384 960 l -301 999 q -355 872 -355 920 z "},"̕":{"ha":0,"x_min":-81,"x_max":56,"o":"m 4 865 q -18 915 4 898 q -81 932 -41 932 l -81 979 l -60 981 q 24 954 -7 981 q 56 876 56 926 q 44 809 56 839 q 1 739 33 779 l -50 739 q 4 865 4 818 z "},"̦":{"ha":0,"x_min":-272,"x_max":-136,"o":"m -187 -205 q -210 -156 -187 -173 q -272 -139 -232 -139 l -272 -92 l -251 -90 q -167 -117 -198 -90 q -136 -195 -136 -144 q -147 -262 -136 -232 q -190 -332 -159 -292 l -241 -332 q -187 -205 -187 -253 z "},"̧":{"ha":0,"x_min":-443,"x_max":-190,"o":"m -330 -87 q -229 -120 -269 -93 q -190 -200 -190 -148 q -233 -289 -190 -259 q -358 -319 -277 -319 q -443 -307 -412 -319 l -443 -262 q -365 -273 -413 -273 q -279 -256 -312 -273 q -245 -201 -245 -239 q -389 -126 -245 -126 l -351 -1 l -302 -1 l -330 -87 z "},"̨":{"ha":0,"x_min":-385,"x_max":-189,"o":"m -333 -184 q -314 -249 -333 -225 q -260 -273 -295 -273 q -189 -265 -226 -273 l -189 -307 q -264 -318 -220 -318 q -352 -285 -319 -318 q -385 -192 -385 -252 q -233 17 -385 -83 l -191 1 q -294 -90 -255 -45 q -333 -184 -333 -135 z "},"̈́":{"ha":0,"x_min":-549,"x_max":-195,"o":"m -415 762 l -364 999 l -301 999 l -368 762 l -415 762 m -549 785 l -549 871 l -476 871 l -476 785 l -549 785 m -265 785 l -265 871 l -195 871 l -195 785 l -265 785 z "},"ʹ":{"ha":285,"x_min":94,"x_max":290,"o":"m 94 728 l 214 947 l 290 947 l 144 728 l 94 728 z "},"͵":{"ha":285,"x_min":-22,"x_max":174,"o":"m -22 -220 l 122 0 l 174 0 l 53 -220 l -22 -220 z "},"΄":{"ha":414,"x_min":117,"x_max":315,"o":"m 117 762 l 240 999 l 315 999 l 167 762 l 117 762 z "},"΅":{"ha":414,"x_min":32,"x_max":386,"o":"m 165 762 l 216 999 l 279 999 l 212 762 l 165 762 m 32 785 l 32 871 l 104 871 l 104 785 l 32 785 m 315 785 l 315 871 l 386 871 l 386 785 l 315 785 z "},"Ά":{"ha":854,"x_min":26,"x_max":828,"o":"m 26 0 l 397 907 l 456 907 l 828 0 l 762 0 l 632 322 l 221 322 l 92 0 l 26 0 m 610 376 l 575 464 q 429 836 462 745 l 427 836 q 335 606 399 759 q 241 376 315 559 l 610 376 m 68 671 l 191 907 l 267 907 l 118 671 l 68 671 z "},"Έ":{"ha":821,"x_min":-45,"x_max":741,"o":"m 197 907 l 714 907 l 714 852 l 257 852 l 257 492 l 675 492 l 675 437 l 257 437 l 257 54 l 741 54 l 741 0 l 197 0 l 197 907 m -45 671 l 79 907 l 154 907 l 5 671 l -45 671 z "},"Ή":{"ha":964,"x_min":-45,"x_max":843,"o":"m 197 907 l 257 907 l 257 494 l 783 494 l 783 907 l 843 907 l 843 0 l 783 0 l 783 440 l 257 440 l 257 0 l 197 0 l 197 907 m -45 671 l 79 907 l 154 907 l 5 671 l -45 671 z "},"Ί":{"ha":376,"x_min":-45,"x_max":256,"o":"m 196 907 l 256 907 l 256 0 l 196 0 l 196 907 m -45 671 l 79 907 l 154 907 l 5 671 l -45 671 z "},"Ό":{"ha":1046,"x_min":-17,"x_max":953,"o":"m 130 453 q 183 696 130 588 q 329 864 235 804 q 541 925 422 925 q 759 864 665 925 q 902 696 852 804 q 953 453 953 589 q 901 212 953 319 q 755 44 848 104 q 545 -17 662 -17 q 325 43 419 -17 q 181 211 231 104 q 130 453 130 317 m 888 453 q 842 678 888 583 q 717 822 796 772 q 541 871 638 871 q 366 822 446 871 q 240 678 287 772 q 194 453 194 583 q 241 228 194 321 q 367 85 288 134 q 545 37 447 37 q 718 85 640 37 q 842 228 796 134 q 888 453 888 321 m -17 671 l 106 907 l 182 907 l 33 671 l -17 671 z "},"Ύ":{"ha":914,"x_min":-45,"x_max":867,"o":"m 492 281 q 451 474 492 375 q 342 676 411 572 q 178 907 273 779 l 248 907 q 425 649 361 752 q 524 437 488 546 q 628 661 566 554 q 798 907 691 767 l 867 907 q 697 670 758 762 q 594 478 635 578 q 552 281 552 378 l 552 0 l 492 0 l 492 281 m -45 671 l 79 907 l 154 907 l 5 671 l -45 671 z "},"Ώ":{"ha":1036,"x_min":-17,"x_max":960,"o":"m 205 488 q 271 255 205 368 q 456 52 337 143 l 456 0 l 124 0 l 124 54 l 376 54 q 196 267 251 157 q 142 496 142 376 q 250 810 142 694 q 542 925 357 925 q 834 810 726 925 q 942 496 942 694 q 887 267 942 376 q 707 54 833 157 l 960 54 l 960 0 l 628 0 l 628 52 q 812 255 747 143 q 878 488 878 368 q 790 769 878 668 q 542 871 701 871 q 294 770 383 871 q 205 488 205 669 m -17 671 l 106 907 l 182 907 l 33 671 l -17 671 z "},"ΐ":{"ha":335,"x_min":-31,"x_max":323,"o":"m 109 109 l 109 633 l 163 633 l 163 125 q 176 54 163 68 q 222 39 189 39 q 292 49 268 39 l 292 3 q 214 -9 259 -9 q 134 20 159 -9 q 109 109 109 49 m 103 762 l 154 999 l 217 999 l 150 762 l 103 762 m -31 785 l -31 871 l 42 871 l 42 785 l -31 785 m 253 785 l 253 871 l 323 871 l 323 785 l 253 785 z "},"Α":{"ha":854,"x_min":26,"x_max":828,"o":"m 26 0 l 397 907 l 456 907 l 828 0 l 762 0 l 632 322 l 221 322 l 92 0 l 26 0 m 610 376 l 575 464 q 429 836 462 745 l 427 836 q 335 606 399 759 q 241 376 315 559 l 610 376 z "},"Β":{"ha":786,"x_min":127,"x_max":700,"o":"m 273 907 q 450 897 387 907 q 564 856 513 887 q 638 782 615 825 q 661 677 661 739 q 490 469 661 509 l 490 467 q 644 409 589 465 q 700 256 700 354 q 660 122 700 184 q 552 31 619 61 q 336 0 484 0 l 127 0 l 127 907 l 273 907 m 594 675 q 567 775 594 737 q 482 833 539 814 q 301 852 425 852 l 187 852 l 187 492 l 374 492 q 498 513 450 492 q 570 576 545 534 q 594 675 594 618 m 633 256 q 600 372 633 326 q 485 431 566 418 q 375 436 448 436 l 187 436 l 187 54 l 345 54 q 508 74 443 54 q 603 144 573 94 q 633 256 633 195 z "},"Γ":{"ha":689,"x_min":122,"x_max":665,"o":"m 122 0 l 122 907 l 665 907 l 665 847 l 182 852 l 182 0 l 122 0 z "},"Δ":{"ha":852,"x_min":40,"x_max":814,"o":"m 40 0 l 40 35 l 392 907 l 465 907 l 814 35 l 814 0 l 40 0 m 746 54 l 547 558 l 501 671 q 429 851 453 787 l 424 851 l 349 661 l 311 564 l 107 54 l 746 54 z "},"Ε":{"ha":745,"x_min":121,"x_max":664,"o":"m 121 907 l 637 907 l 637 852 l 180 852 l 180 492 l 599 492 l 599 437 l 180 437 l 180 54 l 664 54 l 664 0 l 121 0 l 121 907 z "},"Ζ":{"ha":793,"x_min":74,"x_max":720,"o":"m 74 52 l 646 852 l 86 852 l 86 907 l 714 907 l 714 857 l 140 54 l 720 54 l 720 0 l 74 0 l 74 52 z "},"Η":{"ha":888,"x_min":121,"x_max":766,"o":"m 121 907 l 180 907 l 180 494 l 707 494 l 707 907 l 766 907 l 766 0 l 707 0 l 707 440 l 180 440 l 180 0 l 121 0 l 121 907 z "},"Θ":{"ha":1008,"x_min":93,"x_max":916,"o":"m 93 453 q 145 696 93 588 q 292 864 198 804 q 504 925 385 925 q 721 864 628 925 q 865 696 814 804 q 916 453 916 589 q 863 212 916 319 q 718 44 811 104 q 507 -17 625 -17 q 288 43 382 -17 q 143 211 194 104 q 93 453 93 317 m 851 453 q 805 678 851 583 q 680 822 759 772 q 504 871 601 871 q 329 822 408 871 q 203 678 250 772 q 157 453 157 583 q 203 228 157 321 q 330 85 250 134 q 507 37 410 37 q 681 85 603 37 q 805 228 759 134 q 851 453 851 321 m 288 440 l 288 494 l 721 494 l 721 440 l 288 440 z "},"Ι":{"ha":304,"x_min":121,"x_max":180,"o":"m 121 907 l 180 907 l 180 0 l 121 0 l 121 907 z "},"Κ":{"ha":807,"x_min":121,"x_max":747,"o":"m 747 0 l 665 0 l 182 449 l 180 449 l 180 0 l 121 0 l 121 907 l 180 907 l 180 456 l 182 456 l 640 907 l 713 907 l 258 453 l 747 0 z "},"Λ":{"ha":850,"x_min":26,"x_max":823,"o":"m 429 836 l 427 836 q 335 606 399 759 q 92 0 309 544 l 26 0 l 393 907 l 460 907 l 823 0 l 758 0 l 571 464 q 429 836 503 635 z "},"Μ":{"ha":1135,"x_min":121,"x_max":1014,"o":"m 214 907 l 486 273 l 568 71 l 571 71 l 921 907 l 1014 907 l 1014 0 l 956 0 l 956 419 q 965 851 956 623 l 960 851 q 835 568 859 625 l 600 0 l 542 0 l 301 568 q 175 851 283 610 l 171 851 q 180 419 180 563 l 180 0 l 121 0 l 121 907 l 214 907 z "},"Ν":{"ha":926,"x_min":121,"x_max":806,"o":"m 172 907 l 581 336 l 751 92 l 755 92 q 746 372 746 177 l 746 907 l 806 907 l 806 0 l 754 0 l 345 576 l 175 817 l 172 817 q 180 498 180 731 l 180 0 l 121 0 l 121 907 l 172 907 z "},"Ξ":{"ha":760,"x_min":75,"x_max":685,"o":"m 98 852 l 98 907 l 661 907 l 661 852 l 98 852 m 147 440 l 147 494 l 612 494 l 612 440 l 147 440 m 75 0 l 75 54 l 685 54 l 685 0 l 75 0 z "},"Ο":{"ha":1008,"x_min":93,"x_max":916,"o":"m 93 453 q 145 696 93 588 q 292 864 198 804 q 504 925 385 925 q 721 864 628 925 q 865 696 814 804 q 916 453 916 589 q 863 212 916 319 q 718 44 811 104 q 507 -17 625 -17 q 288 43 382 -17 q 143 211 194 104 q 93 453 93 317 m 851 453 q 805 678 851 583 q 680 822 759 772 q 504 871 601 871 q 329 822 408 871 q 203 678 250 772 q 157 453 157 583 q 203 228 157 321 q 330 85 250 134 q 507 37 410 37 q 681 85 603 37 q 805 228 759 134 q 851 453 851 321 z "},"Π":{"ha":899,"x_min":121,"x_max":778,"o":"m 121 0 l 121 907 l 778 907 l 778 0 l 718 0 l 718 852 l 180 852 l 180 0 l 121 0 z "},"Ρ":{"ha":753,"x_min":121,"x_max":686,"o":"m 364 907 q 601 845 516 907 q 686 664 686 783 q 583 453 686 522 q 285 385 480 385 q 180 392 244 385 l 180 0 l 121 0 l 121 907 l 364 907 m 624 661 q 550 808 624 763 q 342 852 476 852 l 180 852 l 180 446 q 285 439 248 439 q 544 496 464 439 q 624 661 624 553 z "},"Σ":{"ha":796,"x_min":83,"x_max":717,"o":"m 83 40 l 461 464 l 461 471 l 93 863 l 93 907 l 711 907 l 711 854 l 334 854 l 171 857 l 534 467 l 161 52 l 329 54 l 717 54 l 717 0 l 83 0 l 83 40 z "},"Τ":{"ha":753,"x_min":33,"x_max":720,"o":"m 346 851 l 33 851 l 33 907 l 720 907 l 720 851 l 406 851 l 406 0 l 346 0 l 346 851 z "},"Υ":{"ha":783,"x_min":47,"x_max":736,"o":"m 361 281 q 320 474 361 375 q 211 676 280 572 q 47 907 142 779 l 117 907 q 294 649 231 752 q 393 437 357 546 q 497 661 435 554 q 667 907 560 767 l 736 907 q 566 670 627 762 q 463 478 505 578 q 421 281 421 378 l 421 0 l 361 0 l 361 281 z "},"Φ":{"ha":1046,"x_min":93,"x_max":953,"o":"m 493 64 q 200 178 308 72 q 93 461 93 285 q 201 742 93 635 q 493 859 310 849 l 493 961 l 553 961 l 553 859 q 847 744 741 850 q 953 461 953 638 q 844 180 953 288 q 553 64 734 72 l 553 -40 l 493 -40 l 493 64 m 493 804 q 323 763 399 802 q 202 647 247 724 q 157 461 157 571 q 202 275 157 351 q 323 160 247 199 q 493 118 399 121 l 493 804 m 889 461 q 844 648 889 572 q 724 762 800 724 q 553 804 648 801 l 553 118 q 724 159 648 120 q 844 274 800 197 q 889 461 889 350 z "},"Χ":{"ha":746,"x_min":14,"x_max":732,"o":"m 39 907 l 107 907 l 323 575 l 375 501 l 376 501 l 429 574 l 650 907 l 717 907 l 419 460 l 732 0 l 664 0 l 429 346 l 375 422 l 372 422 l 317 343 l 81 0 l 14 0 l 332 465 l 39 907 z "},"Ψ":{"ha":966,"x_min":79,"x_max":890,"o":"m 453 315 q 215 376 295 320 q 107 545 135 432 q 79 864 79 659 l 81 907 l 140 907 l 139 854 q 166 562 139 663 q 259 418 193 461 q 453 370 325 374 l 453 907 l 513 907 l 513 370 q 709 418 642 374 q 803 562 776 461 q 831 854 831 663 l 829 907 l 889 907 l 890 864 q 862 546 890 659 q 753 376 833 432 q 513 315 672 320 l 513 0 l 453 0 l 453 315 z "},"Ω":{"ha":989,"x_min":77,"x_max":913,"o":"m 158 488 q 224 255 158 368 q 408 52 290 143 l 408 0 l 77 0 l 77 54 l 329 54 q 149 267 203 157 q 94 496 94 376 q 202 810 94 694 q 494 925 310 925 q 787 810 679 925 q 895 496 895 694 q 840 267 895 376 q 660 54 785 157 l 913 54 l 913 0 l 581 0 l 581 52 q 765 255 699 143 q 831 488 831 368 q 742 769 831 668 q 494 871 654 871 q 247 770 336 871 q 158 488 158 669 z "},"Ϊ":{"ha":304,"x_min":-16,"x_max":298,"o":"m 121 907 l 180 907 l 180 0 l 121 0 l 121 907 m -16 982 l -16 1064 l 56 1064 l 56 982 l -16 982 m 227 982 l 227 1064 l 298 1064 l 298 982 l 227 982 z "},"Ϋ":{"ha":783,"x_min":47,"x_max":736,"o":"m 361 281 q 320 474 361 375 q 211 676 280 572 q 47 907 142 779 l 117 907 q 294 649 231 752 q 393 437 357 546 q 497 661 435 554 q 667 907 560 767 l 736 907 q 566 670 627 762 q 463 478 505 578 q 421 281 421 378 l 421 0 l 361 0 l 361 281 m 233 982 l 233 1064 l 305 1064 l 305 982 l 233 982 m 476 982 l 476 1064 l 547 1064 l 547 982 l 476 982 z "},"ά":{"ha":751,"x_min":72,"x_max":707,"o":"m 72 310 q 110 505 72 429 q 205 615 149 581 q 318 650 261 650 q 454 590 397 650 q 538 428 511 530 l 541 428 q 572 533 551 469 q 611 633 593 597 l 665 633 q 601 451 618 505 q 567 317 584 398 q 594 102 567 163 q 672 40 621 40 q 707 43 694 40 l 707 -5 q 673 -9 688 -9 q 568 43 607 -9 q 526 187 530 95 l 522 187 q 311 -17 461 -17 q 194 19 248 -17 q 105 128 139 54 q 72 310 72 201 m 509 355 q 440 532 493 465 q 317 600 387 600 q 183 520 237 600 q 129 318 129 439 q 179 110 129 187 q 311 33 229 33 q 415 81 372 33 q 482 204 458 130 q 509 355 505 278 m 279 762 l 403 999 l 478 999 l 330 762 l 279 762 z "},"έ":{"ha":608,"x_min":74,"x_max":553,"o":"m 74 172 q 113 277 74 233 q 212 329 153 320 l 212 332 q 129 380 165 344 q 93 482 93 416 q 159 605 93 561 q 342 650 226 650 q 536 624 442 650 l 536 572 q 430 594 473 587 q 340 600 387 600 q 150 479 150 600 q 340 355 150 355 q 452 358 404 355 l 452 302 q 329 306 408 306 q 182 272 233 306 q 131 175 131 237 q 336 33 131 33 q 454 44 404 33 q 553 74 505 54 l 553 22 q 328 -17 473 -17 q 136 34 199 -17 q 74 172 74 85 m 289 762 l 412 999 l 488 999 l 339 762 l 289 762 z "},"ή":{"ha":733,"x_min":39,"x_max":627,"o":"m 572 422 q 528 553 572 505 q 396 600 484 600 q 279 567 333 600 q 186 472 225 533 l 186 0 l 132 0 l 132 497 q 121 574 132 556 q 75 591 110 591 q 39 587 54 591 l 39 637 q 77 643 54 643 q 141 631 119 643 q 172 598 163 619 q 183 542 180 578 l 187 542 q 279 621 223 592 q 395 650 336 650 q 569 594 511 650 q 627 435 627 538 l 627 -315 l 572 -315 l 572 422 m 367 762 l 490 999 l 566 999 l 417 762 l 367 762 z "},"ί":{"ha":335,"x_min":109,"x_max":325,"o":"m 109 109 l 109 633 l 163 633 l 163 125 q 176 54 163 68 q 222 39 189 39 q 292 49 268 39 l 292 3 q 214 -9 259 -9 q 134 20 159 -9 q 109 109 109 49 m 126 762 l 250 999 l 325 999 l 176 762 l 126 762 z "},"ΰ":{"ha":742,"x_min":32,"x_max":648,"o":"m 135 268 l 139 501 q 123 571 139 549 q 69 593 106 593 q 32 586 45 593 l 32 635 q 79 643 45 643 q 153 622 128 643 q 186 571 178 602 q 193 496 193 540 l 189 267 q 228 90 189 146 q 363 33 267 33 q 534 115 473 33 q 595 343 595 197 q 543 633 595 486 l 603 633 q 648 345 648 477 q 572 81 648 179 q 367 -17 495 -17 q 191 47 248 -17 q 135 268 135 112 m 313 762 l 363 999 l 427 999 l 359 762 l 313 762 m 179 785 l 179 871 l 252 871 l 252 785 l 179 785 m 463 785 l 463 871 l 533 871 l 533 785 l 463 785 z "},"α":{"ha":751,"x_min":72,"x_max":707,"o":"m 72 310 q 110 505 72 429 q 205 615 149 581 q 318 650 261 650 q 454 590 397 650 q 538 428 511 530 l 541 428 q 572 533 551 469 q 611 633 593 597 l 665 633 q 601 451 618 505 q 567 317 584 398 q 594 102 567 163 q 672 40 621 40 q 707 43 694 40 l 707 -5 q 673 -9 688 -9 q 568 43 607 -9 q 526 187 530 95 l 522 187 q 311 -17 461 -17 q 194 19 248 -17 q 105 128 139 54 q 72 310 72 201 m 509 355 q 440 532 493 465 q 317 600 387 600 q 183 520 237 600 q 129 318 129 439 q 179 110 129 187 q 311 33 229 33 q 415 81 372 33 q 482 204 458 130 q 509 355 505 278 z "},"β":{"ha":714,"x_min":121,"x_max":640,"o":"m 121 717 q 146 874 121 815 q 225 966 172 934 q 350 999 278 999 q 524 936 461 999 q 587 760 587 873 q 551 615 587 675 q 444 526 514 555 l 444 524 q 588 429 535 500 q 640 254 640 357 q 569 55 640 127 q 372 -17 497 -17 q 253 1 304 -17 q 176 39 203 19 l 175 39 l 175 -315 l 121 -315 l 121 717 m 583 253 q 544 395 583 342 q 452 470 505 448 q 350 492 399 492 q 261 489 297 492 l 261 546 q 339 543 286 543 q 478 604 426 543 q 530 761 530 664 q 482 899 530 848 q 351 949 434 949 q 228 903 280 949 q 175 742 175 858 l 175 104 q 259 54 206 74 q 372 33 312 33 q 526 93 469 33 q 583 253 583 153 z "},"γ":{"ha":623,"x_min":35,"x_max":583,"o":"m 249 -129 q 190 239 249 33 q 35 633 132 446 l 97 633 q 214 354 159 511 q 286 36 269 197 l 289 36 q 429 316 363 161 q 524 633 494 472 l 583 633 q 473 286 554 464 q 300 -41 391 107 l 301 -144 q 290 -315 301 -234 l 236 -315 q 249 -129 249 -209 z "},"δ":{"ha":713,"x_min":72,"x_max":640,"o":"m 72 262 q 152 489 72 391 q 375 632 233 587 l 375 635 l 345 663 q 230 783 259 740 q 201 864 201 827 q 401 999 201 999 q 523 982 461 999 q 637 939 585 965 l 637 882 q 403 949 507 949 q 296 931 334 949 q 258 869 258 914 q 276 815 258 843 q 319 761 293 787 q 395 690 346 734 q 539 547 490 606 q 615 424 589 488 q 640 279 640 359 q 560 65 640 147 q 351 -17 480 -17 q 150 61 227 -17 q 72 262 72 138 m 583 288 q 560 412 583 357 q 504 505 537 466 q 412 599 471 543 q 204 468 279 555 q 129 269 129 380 q 191 99 129 165 q 350 33 252 33 q 520 102 457 33 q 583 288 583 171 z "},"ε":{"ha":608,"x_min":74,"x_max":553,"o":"m 74 172 q 113 277 74 233 q 212 329 153 320 l 212 332 q 129 380 165 344 q 93 482 93 416 q 159 605 93 561 q 342 650 226 650 q 536 624 442 650 l 536 572 q 430 594 473 587 q 340 600 387 600 q 150 479 150 600 q 340 355 150 355 q 452 358 404 355 l 452 302 q 329 306 408 306 q 182 272 233 306 q 131 175 131 237 q 336 33 131 33 q 454 44 404 33 q 553 74 505 54 l 553 22 q 328 -17 473 -17 q 136 34 199 -17 q 74 172 74 85 z "},"ζ":{"ha":607,"x_min":72,"x_max":590,"o":"m 536 -110 q 519 -45 536 -69 q 470 -7 501 -21 q 347 32 439 7 q 202 84 263 53 q 107 174 142 116 q 72 325 72 232 q 138 579 72 454 q 310 802 204 705 q 533 953 416 900 l 533 956 q 355 917 440 927 q 154 907 270 907 l 154 958 q 359 964 283 958 q 581 997 435 970 l 581 950 q 380 802 485 897 q 202 585 276 707 q 129 335 129 462 q 153 210 129 258 q 226 133 176 162 q 389 75 275 104 q 498 39 459 56 q 564 -14 538 22 q 590 -110 590 -49 q 575 -195 590 -157 q 533 -272 561 -232 l 473 -272 q 521 -186 505 -229 q 536 -110 536 -143 z "},"η":{"ha":733,"x_min":39,"x_max":627,"o":"m 572 422 q 528 553 572 505 q 396 600 484 600 q 279 567 333 600 q 186 472 225 533 l 186 0 l 132 0 l 132 497 q 121 574 132 556 q 75 591 110 591 q 39 587 54 591 l 39 637 q 77 643 54 643 q 141 631 119 643 q 172 598 163 619 q 183 542 180 578 l 187 542 q 279 621 223 592 q 395 650 336 650 q 569 594 511 650 q 627 435 627 538 l 627 -315 l 572 -315 l 572 422 z "},"θ":{"ha":720,"x_min":74,"x_max":646,"o":"m 74 485 q 147 870 74 741 q 358 999 220 999 q 571 876 497 999 q 646 497 646 752 q 571 112 646 241 q 359 -17 497 -17 q 148 106 221 -17 q 74 485 74 230 m 591 522 q 358 949 579 949 q 194 843 254 949 q 127 522 134 738 l 591 522 m 591 472 l 127 472 q 188 141 133 248 q 358 33 243 33 q 527 137 468 33 q 591 472 585 241 z "},"ι":{"ha":335,"x_min":109,"x_max":292,"o":"m 109 109 l 109 633 l 163 633 l 163 125 q 176 54 163 68 q 222 39 189 39 q 292 49 268 39 l 292 3 q 214 -9 259 -9 q 134 20 159 -9 q 109 109 109 49 z "},"κ":{"ha":700,"x_min":121,"x_max":653,"o":"m 653 0 l 582 0 l 292 338 l 175 235 l 175 0 l 121 0 l 121 633 l 175 633 l 175 296 l 526 610 q 579 642 555 635 q 637 650 603 650 l 637 599 q 592 590 610 599 q 547 559 573 582 l 334 372 l 653 0 z "},"λ":{"ha":631,"x_min":35,"x_max":589,"o":"m 313 610 q 217 864 238 820 q 172 927 196 908 q 109 946 147 946 q 43 937 72 946 l 43 986 q 114 999 81 999 q 201 972 165 999 q 260 902 237 945 q 306 796 283 859 l 589 0 l 529 0 l 379 428 l 340 545 l 338 545 l 290 428 l 96 0 l 35 0 l 313 610 z "},"μ":{"ha":772,"x_min":121,"x_max":713,"o":"m 121 633 l 175 633 l 175 216 q 224 78 175 123 q 355 33 273 33 q 517 90 457 33 q 576 258 576 147 l 576 633 l 631 633 l 631 144 q 642 63 631 87 q 682 39 652 39 l 713 41 l 713 -7 l 673 -9 q 608 20 633 -9 q 581 94 584 49 l 578 94 q 361 -17 507 -17 q 176 56 235 -17 l 172 56 l 175 -227 l 175 -315 l 121 -315 l 121 633 z "},"ν":{"ha":624,"x_min":39,"x_max":553,"o":"m 39 633 l 102 633 q 293 60 214 415 l 297 60 q 438 317 380 176 q 496 611 496 457 l 496 633 l 553 633 q 310 0 550 323 l 260 0 q 39 633 165 400 z "},"ξ":{"ha":570,"x_min":74,"x_max":553,"o":"m 497 -110 q 479 -35 497 -63 q 425 10 460 -7 q 323 47 389 28 q 174 105 227 77 q 98 173 121 133 q 74 277 74 213 q 105 385 74 341 q 186 454 136 428 q 306 504 235 481 l 306 507 q 168 564 220 514 q 115 688 115 613 q 202 852 115 791 q 440 951 288 913 l 440 954 q 113 929 262 929 l 113 981 q 355 984 265 981 q 534 999 445 988 l 534 950 q 265 839 357 901 q 172 688 172 776 q 219 590 172 623 q 330 548 265 557 q 476 538 395 538 l 490 538 l 490 489 l 478 489 q 319 466 400 489 q 185 396 239 443 q 131 281 131 349 q 146 200 131 229 q 200 149 161 171 q 322 102 239 127 q 455 53 410 74 q 526 -4 500 33 q 553 -102 553 -40 q 537 -190 553 -150 q 493 -272 522 -231 l 435 -272 q 497 -110 497 -186 z "},"ο":{"ha":714,"x_min":74,"x_max":640,"o":"m 74 315 q 152 558 74 467 q 358 650 229 650 q 564 559 488 650 q 640 315 640 468 q 562 75 640 167 q 358 -17 484 -17 q 151 74 229 -17 q 74 315 74 164 m 583 315 q 522 523 583 446 q 358 600 461 600 q 192 524 254 600 q 131 315 131 447 q 192 109 131 185 q 358 33 252 33 q 523 109 463 33 q 583 315 583 184 z "},"π":{"ha":757,"x_min":45,"x_max":714,"o":"m 539 109 l 539 583 l 228 583 l 228 0 l 174 0 l 174 583 l 45 583 l 45 633 l 714 633 l 714 583 l 593 583 l 593 127 q 605 61 593 84 q 653 37 618 37 l 679 40 l 679 -8 l 647 -9 q 563 20 586 -9 q 539 109 539 50 z "},"ρ":{"ha":728,"x_min":121,"x_max":654,"o":"m 121 335 q 379 650 121 650 q 582 565 510 650 q 654 321 654 479 q 609 117 654 193 q 499 12 563 41 q 372 -17 435 -17 q 257 5 312 -17 q 175 61 203 27 l 172 61 l 175 -89 l 175 -315 l 121 -315 l 121 335 m 597 322 q 539 525 597 449 q 382 600 481 600 q 175 329 175 600 l 175 132 q 257 62 203 90 q 371 33 311 33 q 481 64 429 33 q 565 161 532 96 q 597 322 597 226 z "},"ς":{"ha":555,"x_min":74,"x_max":532,"o":"m 526 -93 q 510 -178 526 -141 q 456 -272 494 -216 l 396 -272 q 453 -177 435 -216 q 471 -100 471 -137 q 451 -34 471 -60 q 390 12 431 -8 q 265 65 350 33 q 118 170 162 106 q 74 329 74 235 q 118 520 74 449 q 227 621 161 592 q 366 650 292 650 q 458 640 414 650 q 532 614 503 630 l 532 558 q 451 589 496 577 q 364 600 405 600 q 199 538 267 600 q 131 328 131 477 q 173 193 131 243 q 300 109 216 142 q 427 52 382 76 q 499 -7 473 27 q 526 -93 526 -42 z "},"σ":{"ha":733,"x_min":74,"x_max":701,"o":"m 74 309 q 153 548 74 462 q 370 633 231 633 l 701 633 l 701 582 l 595 582 q 498 586 517 582 l 498 583 q 592 460 556 542 q 628 289 628 379 q 551 67 628 151 q 347 -17 474 -17 q 149 73 223 -17 q 74 309 74 162 m 571 297 q 531 459 571 390 q 425 582 491 528 l 379 582 q 196 514 261 582 q 131 309 131 446 q 189 109 131 184 q 343 33 247 33 q 510 103 449 33 q 571 297 571 173 z "},"τ":{"ha":604,"x_min":36,"x_max":566,"o":"m 249 131 l 249 582 l 36 582 l 36 633 l 566 633 l 566 582 l 302 582 l 302 158 q 324 60 302 88 q 397 32 345 32 q 469 37 437 32 l 469 -7 q 386 -17 437 -17 q 249 131 249 -17 z "},"υ":{"ha":742,"x_min":32,"x_max":648,"o":"m 135 268 l 139 501 q 123 571 139 549 q 69 593 106 593 q 32 586 45 593 l 32 635 q 79 643 45 643 q 153 622 128 643 q 186 571 178 602 q 193 496 193 540 l 189 267 q 228 90 189 146 q 363 33 267 33 q 534 115 473 33 q 595 343 595 197 q 543 633 595 486 l 603 633 q 648 345 648 477 q 572 81 648 179 q 367 -17 495 -17 q 191 47 248 -17 q 135 268 135 112 z "},"φ":{"ha":926,"x_min":74,"x_max":852,"o":"m 435 -28 q 173 76 273 -18 q 74 314 74 171 q 173 558 74 463 q 435 663 271 653 l 435 982 l 489 982 l 489 663 q 751 558 650 653 q 852 315 852 463 q 752 75 852 170 q 489 -28 652 -19 l 489 -315 l 435 -315 l 435 -28 m 435 612 q 216 522 300 605 q 131 314 131 438 q 216 110 131 191 q 435 20 300 29 l 435 612 m 796 315 q 711 523 796 441 q 489 612 625 605 l 489 20 q 711 111 627 29 q 796 315 796 193 z "},"χ":{"ha":606,"x_min":-26,"x_max":593,"o":"m 293 143 l 290 143 q 271 102 285 129 q 35 -315 257 75 l -26 -315 l 269 205 q 160 503 214 415 q 31 591 105 591 l 8 591 l 8 642 l 32 642 q 140 607 96 642 q 222 490 184 573 q 306 252 260 408 l 309 252 q 358 350 336 311 l 519 633 l 581 633 l 329 197 q 418 -119 385 -23 q 483 -246 450 -214 q 571 -278 515 -278 l 593 -277 l 593 -326 q 557 -329 582 -329 q 456 -293 494 -329 q 383 -161 418 -257 q 293 143 348 -65 z "},"ψ":{"ha":928,"x_min":81,"x_max":847,"o":"m 437 -20 q 208 49 285 -15 q 106 233 132 113 q 81 566 81 353 l 83 633 l 139 633 l 138 574 q 162 249 138 362 q 250 84 186 135 q 437 29 314 33 l 437 821 l 492 821 l 492 29 q 679 83 615 33 q 767 247 743 134 q 791 574 791 361 q 789 633 791 608 l 844 633 l 847 566 q 822 233 847 353 q 721 49 797 113 q 492 -20 644 -15 l 492 -315 l 437 -315 l 437 -20 z "},"ω":{"ha":1054,"x_min":85,"x_max":970,"o":"m 85 290 q 105 450 85 373 q 182 633 125 527 l 239 633 l 230 616 q 184 518 202 561 q 153 417 166 476 q 140 288 140 358 q 185 100 140 166 q 317 33 230 33 q 447 101 395 33 q 498 272 498 168 q 492 437 498 370 l 558 437 l 555 272 q 606 101 555 168 q 736 33 657 33 q 870 102 825 33 q 914 301 914 170 q 906 401 914 354 q 881 494 897 448 q 815 633 864 539 l 872 633 q 950 448 930 524 q 970 293 970 372 q 908 66 970 149 q 739 -17 846 -17 q 624 14 669 -17 q 560 78 579 44 q 526 150 541 112 q 496 83 519 121 q 427 14 473 45 q 310 -17 380 -17 q 144 64 203 -17 q 85 290 85 144 z "},"ϊ":{"ha":335,"x_min":-16,"x_max":298,"o":"m 109 109 l 109 633 l 163 633 l 163 125 q 176 54 163 68 q 222 39 189 39 q 292 49 268 39 l 292 3 q 214 -9 259 -9 q 134 20 159 -9 q 109 109 109 49 m -16 782 l -16 863 l 57 863 l 57 782 l -16 782 m 225 782 l 225 863 l 298 863 l 298 782 l 225 782 z "},"ϋ":{"ha":742,"x_min":32,"x_max":648,"o":"m 135 268 l 139 501 q 123 571 139 549 q 69 593 106 593 q 32 586 45 593 l 32 635 q 79 643 45 643 q 153 622 128 643 q 186 571 178 602 q 193 496 193 540 l 189 267 q 228 90 189 146 q 363 33 267 33 q 534 115 473 33 q 595 343 595 197 q 543 633 595 486 l 603 633 q 648 345 648 477 q 572 81 648 179 q 367 -17 495 -17 q 191 47 248 -17 q 135 268 135 112 m 207 782 l 207 863 l 280 863 l 280 782 l 207 782 m 448 782 l 448 863 l 521 863 l 521 782 l 448 782 z "},"ό":{"ha":714,"x_min":74,"x_max":640,"o":"m 74 315 q 152 558 74 467 q 358 650 229 650 q 564 559 488 650 q 640 315 640 468 q 562 75 640 167 q 358 -17 484 -17 q 151 74 229 -17 q 74 315 74 164 m 583 315 q 522 523 583 446 q 358 600 461 600 q 192 524 254 600 q 131 315 131 447 q 192 109 131 185 q 358 33 252 33 q 523 109 463 33 q 583 315 583 184 m 332 762 l 455 999 l 530 999 l 382 762 l 332 762 z "},"ύ":{"ha":742,"x_min":32,"x_max":648,"o":"m 135 268 l 139 501 q 123 571 139 549 q 69 593 106 593 q 32 586 45 593 l 32 635 q 79 643 45 643 q 153 622 128 643 q 186 571 178 602 q 193 496 193 540 l 189 267 q 228 90 189 146 q 363 33 267 33 q 534 115 473 33 q 595 343 595 197 q 543 633 595 486 l 603 633 q 648 345 648 477 q 572 81 648 179 q 367 -17 495 -17 q 191 47 248 -17 q 135 268 135 112 m 328 762 l 451 999 l 526 999 l 378 762 l 328 762 z "},"ώ":{"ha":1054,"x_min":85,"x_max":970,"o":"m 85 290 q 105 450 85 373 q 182 633 125 527 l 239 633 l 230 616 q 184 518 202 561 q 153 417 166 476 q 140 288 140 358 q 185 100 140 166 q 317 33 230 33 q 447 101 395 33 q 498 272 498 168 q 492 437 498 370 l 558 437 l 555 272 q 606 101 555 168 q 736 33 657 33 q 870 102 825 33 q 914 301 914 170 q 906 401 914 354 q 881 494 897 448 q 815 633 864 539 l 872 633 q 950 448 930 524 q 970 293 970 372 q 908 66 970 149 q 739 -17 846 -17 q 624 14 669 -17 q 560 78 579 44 q 526 150 541 112 q 496 83 519 121 q 427 14 473 45 q 310 -17 380 -17 q 144 64 203 -17 q 85 290 85 144 m 501 762 l 625 999 l 700 999 l 551 762 l 501 762 z "},"ϰ":{"ha":772,"x_min":56,"x_max":724,"o":"m 174 0 l 123 0 q 168 255 149 119 q 186 496 186 390 q 171 583 186 561 q 122 604 157 604 q 56 591 84 604 l 56 642 q 132 654 92 654 q 243 529 243 654 q 224 325 243 470 q 187 94 205 179 l 604 644 l 656 644 q 612 392 631 529 q 593 149 593 254 q 608 61 593 83 q 657 40 623 40 q 724 53 692 40 l 724 3 q 647 -9 691 -9 q 536 115 536 -9 q 554 318 536 176 q 590 542 572 459 l 174 0 z "},"ϱ":{"ha":690,"x_min":79,"x_max":629,"o":"m 79 212 q 148 545 79 428 q 354 661 216 661 q 555 571 481 661 q 629 328 629 480 q 593 166 629 243 q 490 43 557 90 q 334 -4 422 -4 q 217 23 277 -4 q 140 83 157 51 l 138 83 q 167 -83 140 -24 q 252 -168 193 -142 q 419 -196 311 -194 q 511 -219 484 -197 q 538 -301 538 -241 l 536 -315 l 482 -315 q 468 -260 482 -276 q 414 -244 454 -245 q 209 -199 280 -241 q 109 -62 138 -158 q 79 212 79 34 m 572 334 q 512 537 572 460 q 353 614 452 614 q 191 513 249 614 q 134 218 134 413 l 135 146 q 213 75 156 104 q 332 46 270 46 q 465 88 410 46 q 546 196 519 130 q 572 334 572 262 z "},"Ѐ":{"ha":745,"x_min":121,"x_max":664,"o":"m 121 907 l 637 907 l 637 852 l 180 852 l 180 492 l 599 492 l 599 437 l 180 437 l 180 54 l 664 54 l 664 0 l 121 0 l 121 907 m 343 956 l 225 1124 l 300 1124 l 403 956 l 343 956 z "},"Ё":{"ha":745,"x_min":121,"x_max":664,"o":"m 121 907 l 637 907 l 637 852 l 180 852 l 180 492 l 599 492 l 599 437 l 180 437 l 180 54 l 664 54 l 664 0 l 121 0 l 121 907 m 212 982 l 212 1064 l 283 1064 l 283 982 l 212 982 m 454 982 l 454 1064 l 526 1064 l 526 982 l 454 982 z "},"Ђ":{"ha":1006,"x_min":35,"x_max":925,"o":"m 583 -17 l 583 37 l 614 36 q 753 67 697 36 q 835 148 808 98 q 861 257 861 198 q 784 424 861 375 q 572 473 707 473 q 389 467 484 473 l 389 0 l 329 0 l 329 852 l 35 852 l 35 907 l 742 907 l 742 852 l 389 852 l 389 519 q 571 528 476 528 q 829 466 734 528 q 925 256 925 405 q 883 110 925 172 q 771 15 840 48 q 627 -18 703 -18 l 583 -17 z "},"Ѓ":{"ha":700,"x_min":121,"x_max":664,"o":"m 121 0 l 121 907 l 664 907 l 664 847 l 180 852 l 180 0 l 121 0 m 343 956 l 450 1124 l 522 1124 l 406 956 l 343 956 z "},"Є":{"ha":762,"x_min":93,"x_max":714,"o":"m 93 440 q 196 800 93 675 q 494 925 300 925 q 603 915 547 925 q 696 889 660 905 l 696 832 q 496 871 604 871 q 248 772 337 871 q 158 497 158 673 l 632 497 l 632 443 l 158 443 q 240 138 158 239 q 496 37 322 37 q 714 77 627 37 l 714 18 q 617 -7 681 3 q 489 -17 553 -17 q 191 101 290 -17 q 93 440 93 218 z "},"Ѕ":{"ha":733,"x_min":89,"x_max":644,"o":"m 93 32 l 93 97 q 201 58 126 77 q 326 39 277 39 q 516 84 448 39 q 583 239 583 130 q 561 330 583 294 q 498 387 538 366 q 357 437 459 409 q 216 481 269 459 q 125 550 162 503 q 89 675 89 596 q 171 857 89 788 q 385 925 252 925 q 554 900 471 925 q 614 875 587 888 l 614 810 q 543 841 572 829 q 472 861 513 852 q 380 871 430 870 q 207 817 263 871 q 150 672 150 762 q 175 583 150 615 q 241 532 199 550 q 367 492 283 515 q 513 444 460 466 q 605 373 566 422 q 644 241 644 325 q 561 51 644 119 q 322 -17 477 -17 q 189 0 258 -17 q 93 32 120 17 z "},"І":{"ha":301,"x_min":121,"x_max":180,"o":"m 121 907 l 180 907 l 180 0 l 121 0 l 121 907 z "},"Ї":{"ha":301,"x_min":1,"x_max":315,"o":"m 121 907 l 180 907 l 180 0 l 121 0 l 121 907 m 1 982 l 1 1064 l 73 1064 l 73 982 l 1 982 m 244 982 l 244 1064 l 315 1064 l 315 982 l 244 982 z "},"Ј":{"ha":488,"x_min":47,"x_max":367,"o":"m 47 3 l 47 61 q 153 40 99 40 q 265 74 222 40 q 307 200 307 109 l 307 907 l 367 907 l 367 182 q 343 82 367 129 q 274 9 320 35 q 157 -17 228 -17 q 47 3 79 -16 z "},"Љ":{"ha":1375,"x_min":21,"x_max":1308,"o":"m 1308 272 q 1207 71 1308 142 q 921 0 1107 0 l 718 0 l 718 852 l 443 852 q 321 319 387 509 q 188 60 255 129 q 43 -9 120 -9 l 21 -9 l 21 49 l 31 49 q 153 111 93 49 q 276 362 213 172 q 393 907 340 551 l 778 907 l 778 533 q 960 543 880 543 q 1222 473 1136 543 q 1308 272 1308 403 m 1244 272 q 956 489 1244 489 q 778 479 854 489 l 778 54 l 920 54 q 1244 272 1244 54 z "},"Њ":{"ha":1304,"x_min":121,"x_max":1238,"o":"m 1238 272 q 1136 71 1238 142 q 850 0 1035 0 l 647 0 l 647 476 l 180 476 l 180 0 l 121 0 l 121 907 l 180 907 l 180 530 l 647 530 l 647 907 l 707 907 l 707 533 q 889 543 808 543 q 1152 473 1065 543 q 1238 272 1238 403 m 1174 272 q 885 489 1174 489 q 705 479 781 489 l 705 54 l 848 54 q 1174 272 1174 54 z "},"Ћ":{"ha":1007,"x_min":35,"x_max":897,"o":"m 329 852 l 35 852 l 35 907 l 742 907 l 742 852 l 389 852 l 389 492 q 637 547 513 547 q 835 484 773 547 q 897 271 897 421 l 897 0 l 838 0 l 838 281 q 788 445 838 396 q 631 493 739 493 q 389 437 514 493 l 389 0 l 329 0 l 329 852 z "},"Ќ":{"ha":781,"x_min":121,"x_max":747,"o":"m 747 0 l 665 0 l 182 449 l 180 449 l 180 0 l 121 0 l 121 907 l 180 907 l 180 456 l 182 456 l 640 907 l 713 907 l 258 453 l 747 0 m 349 956 l 456 1124 l 528 1124 l 411 956 l 349 956 z "},"Ѝ":{"ha":926,"x_min":121,"x_max":806,"o":"m 806 0 l 746 0 l 746 501 q 754 819 746 734 l 751 819 l 582 576 l 172 0 l 121 0 l 121 907 l 180 907 l 180 367 q 171 86 180 172 l 175 86 l 346 334 l 754 907 l 806 907 l 806 0 m 436 956 l 318 1124 l 393 1124 l 496 956 l 436 956 z "},"Ў":{"ha":782,"x_min":43,"x_max":737,"o":"m 100 43 q 153 40 117 40 q 277 84 229 40 q 387 256 326 128 l 43 907 l 104 907 l 414 318 l 418 318 l 676 907 l 737 907 l 443 250 q 311 42 376 98 q 147 -14 247 -14 l 100 -11 l 100 43 m 154 1276 l 210 1276 q 268 1154 220 1197 q 387 1111 317 1111 q 507 1154 458 1111 q 566 1276 555 1197 l 621 1276 q 548 1120 610 1177 q 386 1064 485 1064 q 227 1120 288 1064 q 154 1276 165 1176 z "},"Џ":{"ha":886,"x_min":121,"x_max":765,"o":"m 414 -300 l 414 0 l 121 0 l 121 907 l 180 907 l 180 54 l 705 54 l 705 907 l 765 907 l 765 0 l 473 0 l 473 -300 l 414 -300 z "},"А":{"ha":854,"x_min":26,"x_max":828,"o":"m 26 0 l 397 907 l 456 907 l 828 0 l 762 0 l 632 322 l 221 322 l 92 0 l 26 0 m 610 376 l 575 464 q 429 836 462 745 l 427 836 q 335 606 399 759 q 241 376 315 559 l 610 376 z "},"Б":{"ha":808,"x_min":122,"x_max":720,"o":"m 122 907 l 669 907 l 669 852 l 182 852 l 182 533 q 378 543 283 543 q 720 272 720 543 q 615 70 720 140 q 317 0 511 0 l 122 0 l 122 907 m 332 54 q 657 272 657 54 q 588 435 657 381 q 375 489 518 489 q 182 479 258 489 l 182 54 l 332 54 z "},"В":{"ha":786,"x_min":121,"x_max":693,"o":"m 267 907 q 444 897 380 907 q 557 856 507 887 q 631 782 608 825 q 654 677 654 739 q 484 469 654 509 l 484 467 q 637 409 582 465 q 693 256 693 354 q 653 122 693 184 q 545 31 612 61 q 329 0 477 0 l 121 0 l 121 907 l 267 907 m 587 675 q 560 775 587 737 q 475 833 532 814 q 294 852 418 852 l 180 852 l 180 492 l 367 492 q 491 513 444 492 q 563 576 538 534 q 587 675 587 618 m 627 256 q 593 372 627 326 q 478 431 559 418 q 368 436 441 436 l 180 436 l 180 54 l 338 54 q 501 74 436 54 q 596 144 566 94 q 627 256 627 195 z "},"Г":{"ha":689,"x_min":122,"x_max":665,"o":"m 122 0 l 122 907 l 665 907 l 665 847 l 182 852 l 182 0 l 122 0 z "},"Д":{"ha":1006,"x_min":68,"x_max":911,"o":"m 68 54 l 114 54 q 318 430 237 215 q 425 907 400 646 l 799 907 l 799 54 l 911 54 l 911 -300 l 851 -300 l 851 0 l 127 0 l 127 -300 l 68 -300 l 68 54 m 739 54 l 739 852 l 478 852 q 189 57 423 401 l 189 54 l 739 54 z "},"Е":{"ha":745,"x_min":121,"x_max":664,"o":"m 121 907 l 637 907 l 637 852 l 180 852 l 180 492 l 599 492 l 599 437 l 180 437 l 180 54 l 664 54 l 664 0 l 121 0 l 121 907 z "},"Ж":{"ha":1120,"x_min":61,"x_max":1060,"o":"m 659 454 l 1060 0 l 982 0 l 591 446 l 590 446 l 590 0 l 530 0 l 530 446 l 529 446 l 139 0 l 61 0 l 463 454 l 96 907 l 164 907 l 529 458 l 530 458 l 530 907 l 590 907 l 590 458 l 591 458 l 957 907 l 1025 907 l 659 454 z "},"З":{"ha":697,"x_min":49,"x_max":614,"o":"m 49 26 l 49 87 q 143 52 86 66 q 269 37 201 37 q 480 92 409 37 q 551 252 551 146 q 268 443 551 443 l 215 443 l 215 497 l 265 497 q 464 548 404 497 q 524 681 524 599 q 468 821 524 770 q 311 871 412 871 q 68 821 189 871 l 68 875 q 171 910 106 895 q 311 925 236 925 q 512 860 438 925 q 586 684 586 794 q 538 544 586 596 q 418 473 490 492 l 418 469 q 558 402 503 456 q 614 252 614 349 q 526 54 614 125 q 265 -17 439 -17 q 149 -5 206 -17 q 49 26 91 6 z "},"И":{"ha":926,"x_min":121,"x_max":806,"o":"m 806 0 l 746 0 l 746 501 q 754 819 746 734 l 751 819 l 582 576 l 172 0 l 121 0 l 121 907 l 180 907 l 180 367 q 171 86 180 172 l 175 86 l 346 334 l 754 907 l 806 907 l 806 0 z "},"Й":{"ha":926,"x_min":121,"x_max":806,"o":"m 806 0 l 746 0 l 746 501 q 754 819 746 734 l 751 819 l 582 576 l 172 0 l 121 0 l 121 907 l 180 907 l 180 367 q 171 86 180 172 l 175 86 l 346 334 l 754 907 l 806 907 l 806 0 m 245 1276 l 301 1276 q 360 1154 311 1197 q 479 1111 408 1111 q 598 1154 550 1111 q 657 1276 647 1197 l 713 1276 q 639 1120 702 1177 q 477 1064 576 1064 q 318 1120 379 1064 q 245 1276 257 1176 z "},"К":{"ha":781,"x_min":121,"x_max":747,"o":"m 747 0 l 665 0 l 182 449 l 180 449 l 180 0 l 121 0 l 121 907 l 180 907 l 180 456 l 182 456 l 640 907 l 713 907 l 258 453 l 747 0 z "},"Л":{"ha":899,"x_min":21,"x_max":778,"o":"m 21 -9 l 21 49 l 31 49 q 153 111 93 49 q 276 362 213 172 q 393 907 340 551 l 778 907 l 778 0 l 718 0 l 718 852 l 443 852 q 324 319 390 510 q 189 60 258 129 q 43 -9 120 -9 l 21 -9 z "},"М":{"ha":1136,"x_min":121,"x_max":1014,"o":"m 214 907 l 486 273 l 568 71 l 571 71 l 921 907 l 1014 907 l 1014 0 l 956 0 l 956 419 q 965 851 956 623 l 960 851 q 835 568 859 625 l 600 0 l 542 0 l 301 568 q 175 851 283 610 l 171 851 q 180 419 180 563 l 180 0 l 121 0 l 121 907 l 214 907 z "},"Н":{"ha":888,"x_min":121,"x_max":766,"o":"m 121 907 l 180 907 l 180 494 l 707 494 l 707 907 l 766 907 l 766 0 l 707 0 l 707 440 l 180 440 l 180 0 l 121 0 l 121 907 z "},"О":{"ha":1008,"x_min":93,"x_max":916,"o":"m 93 453 q 145 696 93 588 q 292 864 198 804 q 504 925 385 925 q 721 864 628 925 q 865 696 814 804 q 916 453 916 589 q 863 212 916 319 q 718 44 811 104 q 507 -17 625 -17 q 288 43 382 -17 q 143 211 194 104 q 93 453 93 317 m 851 453 q 805 678 851 583 q 680 822 759 772 q 504 871 601 871 q 329 822 408 871 q 203 678 250 772 q 157 453 157 583 q 203 228 157 321 q 330 85 250 134 q 507 37 410 37 q 681 85 603 37 q 805 228 759 134 q 851 453 851 321 z "},"П":{"ha":899,"x_min":121,"x_max":778,"o":"m 121 0 l 121 907 l 778 907 l 778 0 l 718 0 l 718 852 l 180 852 l 180 0 l 121 0 z "},"Р":{"ha":753,"x_min":121,"x_max":686,"o":"m 364 907 q 601 845 516 907 q 686 664 686 783 q 583 453 686 522 q 285 385 480 385 q 180 392 244 385 l 180 0 l 121 0 l 121 907 l 364 907 m 624 661 q 550 808 624 763 q 342 852 476 852 l 180 852 l 180 446 q 285 439 248 439 q 544 496 464 439 q 624 661 624 553 z "},"С":{"ha":825,"x_min":93,"x_max":751,"o":"m 93 446 q 151 697 93 588 q 312 865 208 806 q 551 925 416 925 q 662 914 607 925 q 742 889 718 903 l 742 832 q 557 869 637 869 q 355 821 446 869 q 210 677 264 773 q 157 444 157 582 q 263 144 157 249 q 571 39 370 39 q 751 75 665 39 l 751 20 q 667 -7 718 2 q 562 -17 616 -17 q 214 103 336 -17 q 93 446 93 223 z "},"Т":{"ha":753,"x_min":33,"x_max":720,"o":"m 346 851 l 33 851 l 33 907 l 720 907 l 720 851 l 406 851 l 406 0 l 346 0 l 346 851 z "},"У":{"ha":782,"x_min":43,"x_max":737,"o":"m 100 43 q 153 40 117 40 q 277 84 229 40 q 387 256 326 128 l 43 907 l 104 907 l 414 318 l 418 318 l 676 907 l 737 907 l 443 250 q 311 42 376 98 q 147 -14 247 -14 l 100 -11 l 100 43 z "},"Ф":{"ha":1023,"x_min":86,"x_max":937,"o":"m 482 62 q 192 177 298 71 q 86 461 86 283 q 191 736 86 633 q 482 848 296 839 l 482 978 l 542 978 l 542 848 q 834 738 731 840 q 937 461 937 637 q 829 179 937 287 q 542 62 721 71 l 542 -75 l 482 -75 l 482 62 m 482 794 q 237 701 325 789 q 150 461 150 613 q 239 215 150 307 q 482 117 328 122 l 482 794 m 873 461 q 788 701 873 614 q 542 794 702 788 l 542 117 q 711 157 636 119 q 830 273 786 196 q 873 461 873 350 z "},"Х":{"ha":746,"x_min":14,"x_max":732,"o":"m 39 907 l 107 907 l 323 575 l 375 501 l 376 501 l 429 574 l 650 907 l 717 907 l 419 460 l 732 0 l 664 0 l 429 346 l 375 422 l 372 422 l 317 343 l 81 0 l 14 0 l 332 465 l 39 907 z "},"Ц":{"ha":960,"x_min":121,"x_max":865,"o":"m 806 -300 l 806 0 l 121 0 l 121 907 l 180 907 l 180 54 l 692 54 l 692 907 l 751 907 l 751 54 l 865 54 l 865 -300 l 806 -300 z "},"Ч":{"ha":835,"x_min":109,"x_max":714,"o":"m 654 429 q 371 380 513 380 q 171 449 234 380 q 109 650 109 518 l 109 907 l 168 907 l 168 650 q 220 487 168 538 q 382 435 273 435 q 654 485 515 435 l 654 907 l 714 907 l 714 0 l 654 0 l 654 429 z "},"Ш":{"ha":1255,"x_min":122,"x_max":1135,"o":"m 122 0 l 122 907 l 182 907 l 182 54 l 599 54 l 599 907 l 659 907 l 659 54 l 1075 54 l 1075 907 l 1135 907 l 1135 0 l 122 0 z "},"Щ":{"ha":1324,"x_min":121,"x_max":1229,"o":"m 1169 -300 l 1169 0 l 121 0 l 121 907 l 180 907 l 180 54 l 590 54 l 590 907 l 650 907 l 650 54 l 1059 54 l 1059 907 l 1118 907 l 1118 54 l 1229 54 l 1229 -300 l 1169 -300 z "},"Ъ":{"ha":951,"x_min":0,"x_max":871,"o":"m 529 543 q 871 272 871 543 q 767 70 871 140 q 468 0 663 0 l 273 0 l 273 851 l 0 851 l 0 907 l 334 907 l 334 533 q 529 543 434 543 m 484 54 q 808 272 808 54 q 739 435 808 381 q 526 489 669 489 q 334 479 409 489 l 334 54 l 484 54 z "},"Ы":{"ha":1025,"x_min":121,"x_max":904,"o":"m 361 543 q 703 272 703 543 q 602 71 703 142 q 315 0 501 0 l 121 0 l 121 907 l 180 907 l 180 533 q 361 543 282 543 m 844 907 l 904 907 l 904 0 l 844 0 l 844 907 m 314 54 q 639 272 639 54 q 569 435 639 381 q 357 489 500 489 q 179 479 255 489 l 179 54 l 314 54 z "},"Ь":{"ha":799,"x_min":121,"x_max":718,"o":"m 376 543 q 718 272 718 543 q 614 70 718 140 q 315 0 510 0 l 121 0 l 121 907 l 180 907 l 180 533 q 376 543 282 543 m 329 54 q 654 272 654 54 q 372 489 654 489 q 179 479 255 489 l 179 54 l 329 54 z "},"Э":{"ha":771,"x_min":56,"x_max":676,"o":"m 56 18 l 56 77 q 165 46 116 56 q 283 37 215 37 q 532 141 454 37 q 610 443 610 245 l 138 443 l 138 497 l 610 497 q 522 772 610 673 q 273 871 433 871 q 74 832 162 871 l 74 889 q 165 915 109 904 q 277 925 220 925 q 579 796 483 925 q 676 440 676 667 q 573 101 676 220 q 281 -17 470 -17 q 151 -7 212 -17 q 56 18 89 3 z "},"Ю":{"ha":1222,"x_min":121,"x_max":1129,"o":"m 396 440 l 180 440 l 180 0 l 121 0 l 121 907 l 180 907 l 180 494 l 399 494 q 449 713 405 616 q 572 868 493 811 q 760 925 652 925 q 963 862 880 925 q 1088 691 1046 798 q 1129 452 1129 583 q 1086 217 1129 323 q 960 46 1043 110 q 762 -17 877 -17 q 564 44 646 -17 q 440 209 482 106 q 396 440 399 313 m 1065 452 q 1026 679 1065 584 q 917 822 986 773 q 760 871 848 871 q 541 758 622 871 q 460 454 460 644 q 498 228 460 322 q 605 85 536 134 q 762 37 673 37 q 919 85 850 37 q 1026 227 987 134 q 1065 452 1065 321 z "},"Я":{"ha":803,"x_min":66,"x_max":682,"o":"m 292 390 l 292 393 q 141 484 191 418 q 92 639 92 550 q 173 837 92 767 q 403 907 254 907 l 682 907 l 682 0 l 623 0 l 623 387 l 359 387 l 135 0 l 66 0 l 292 390 m 623 441 l 623 852 l 410 852 q 216 798 279 852 q 154 644 154 743 q 209 495 154 549 q 393 441 264 441 l 623 441 z "},"а":{"ha":660,"x_min":71,"x_max":545,"o":"m 71 182 q 132 321 71 268 q 290 374 193 374 q 485 336 382 374 l 485 418 q 438 554 485 508 q 289 600 391 600 q 126 568 222 600 l 126 619 q 194 641 146 631 q 289 650 242 650 q 477 592 416 650 q 539 418 539 534 l 539 203 q 545 0 539 136 l 496 0 l 486 74 l 484 74 q 393 10 452 37 q 277 -17 334 -17 q 127 33 184 -17 q 71 182 71 82 m 485 131 l 485 289 q 394 316 434 308 q 283 323 353 323 q 168 287 210 323 q 126 182 126 250 q 168 69 126 106 q 277 32 209 32 q 399 61 351 32 q 485 131 448 90 z "},"б":{"ha":717,"x_min":93,"x_max":643,"o":"m 93 456 q 126 715 93 618 q 235 864 159 812 q 443 937 310 916 l 572 960 l 572 901 l 463 885 q 288 840 351 868 q 189 742 225 812 q 153 534 153 671 l 157 534 q 272 603 217 581 q 389 624 326 624 q 575 546 508 624 q 643 332 643 468 q 568 77 643 171 q 367 -17 494 -17 q 156 97 219 -17 q 93 456 93 210 m 586 332 q 531 509 586 444 q 380 574 475 574 q 262 547 326 574 q 150 473 198 520 q 176 203 150 300 q 249 70 201 107 q 370 33 296 33 q 528 113 471 33 q 586 332 586 192 z "},"в":{"ha":669,"x_min":121,"x_max":596,"o":"m 121 633 l 351 633 q 520 597 462 633 q 578 469 578 560 q 542 374 578 406 q 460 334 507 341 l 460 330 q 518 313 487 329 q 573 264 550 298 q 596 179 596 231 q 532 44 596 87 q 355 0 467 0 l 121 0 l 121 633 m 375 357 q 484 385 445 357 q 522 469 522 414 q 478 558 522 532 q 355 585 433 585 l 175 585 l 175 357 l 375 357 m 339 50 q 487 79 433 50 q 541 178 541 108 q 491 276 541 245 q 355 307 441 307 l 175 307 l 175 50 l 339 50 z "},"г":{"ha":587,"x_min":121,"x_max":536,"o":"m 121 0 l 121 633 l 536 633 l 536 582 l 175 582 l 175 0 l 121 0 z "},"д":{"ha":783,"x_min":41,"x_max":686,"o":"m 41 50 l 81 50 q 229 304 178 163 q 288 633 279 445 l 583 633 l 583 50 l 686 50 l 686 -231 l 632 -231 l 632 0 l 96 0 l 96 -231 l 41 -231 l 41 50 m 529 50 l 529 582 l 338 582 q 277 284 323 410 q 147 53 230 159 l 147 50 l 529 50 z "},"е":{"ha":672,"x_min":74,"x_max":583,"o":"m 74 323 q 109 496 74 422 q 203 610 143 570 q 339 650 264 650 q 517 577 450 650 q 583 347 583 504 l 583 323 l 131 323 q 197 103 131 174 q 382 33 262 33 q 561 69 484 33 l 561 18 q 382 -17 498 -17 q 154 72 234 -17 q 74 323 74 161 m 339 602 q 197 537 255 602 q 132 372 140 473 l 528 372 q 478 543 526 485 q 339 602 431 602 z "},"ж":{"ha":854,"x_min":50,"x_max":804,"o":"m 515 322 l 804 0 l 736 0 l 456 315 l 454 315 l 454 0 l 400 0 l 400 315 l 399 315 l 118 0 l 50 0 l 339 321 l 69 633 l 136 633 l 399 328 l 400 328 l 400 633 l 454 633 l 454 328 l 456 328 l 718 633 l 785 633 l 515 322 z "},"з":{"ha":566,"x_min":68,"x_max":498,"o":"m 68 12 l 68 62 q 151 42 100 50 q 257 33 201 33 q 393 71 342 33 q 443 175 443 109 q 395 270 443 231 q 278 309 347 309 l 149 309 l 149 358 l 278 358 q 385 391 344 358 q 425 478 425 425 q 384 568 425 534 q 260 602 342 602 q 169 593 209 602 q 79 568 128 585 l 79 618 q 264 650 161 650 q 428 604 374 650 q 481 478 481 557 q 444 381 481 415 q 354 336 406 348 l 354 334 q 458 284 418 326 q 498 174 498 243 q 431 35 498 87 q 249 -17 364 -17 q 68 12 151 -17 z "},"и":{"ha":753,"x_min":121,"x_max":632,"o":"m 121 633 l 175 633 l 175 167 l 172 86 l 175 86 l 262 205 l 589 633 l 632 633 l 632 0 l 578 0 l 578 490 l 579 546 l 576 546 q 489 425 555 513 l 164 0 l 121 0 l 121 633 z "},"й":{"ha":753,"x_min":121,"x_max":632,"o":"m 121 633 l 175 633 l 175 167 l 172 86 l 175 86 l 262 205 l 589 633 l 632 633 l 632 0 l 578 0 l 578 490 l 579 546 l 576 546 q 489 425 555 513 l 164 0 l 121 0 l 121 633 m 205 989 l 254 989 q 395 851 274 851 q 538 989 519 851 l 589 989 q 527 855 580 905 q 393 806 474 806 q 262 856 309 806 q 205 989 214 906 z "},"к":{"ha":632,"x_min":121,"x_max":582,"o":"m 566 633 l 241 325 l 582 0 l 511 0 l 176 315 l 175 315 l 175 0 l 121 0 l 121 633 l 175 633 l 175 328 l 176 328 l 492 633 l 566 633 z "},"л":{"ha":715,"x_min":28,"x_max":595,"o":"m 28 -8 l 28 45 l 47 43 q 189 179 136 43 q 273 633 241 315 l 595 633 l 595 0 l 541 0 l 541 582 l 321 582 q 255 224 292 353 q 168 43 218 96 q 45 -9 117 -9 l 28 -8 z "},"м":{"ha":869,"x_min":121,"x_max":749,"o":"m 121 633 l 196 633 l 433 68 l 440 68 l 668 633 l 749 633 l 749 0 l 694 0 l 694 379 q 697 550 694 501 l 689 550 l 460 0 l 411 0 l 176 550 l 171 550 l 174 379 l 174 0 l 121 0 l 121 633 z "},"н":{"ha":729,"x_min":121,"x_max":608,"o":"m 121 0 l 121 633 l 175 633 l 175 358 l 554 358 l 554 633 l 608 633 l 608 0 l 554 0 l 554 309 l 175 309 l 175 0 l 121 0 z "},"о":{"ha":714,"x_min":74,"x_max":640,"o":"m 74 315 q 152 558 74 467 q 358 650 229 650 q 564 559 488 650 q 640 315 640 468 q 562 75 640 167 q 358 -17 484 -17 q 151 74 229 -17 q 74 315 74 164 m 583 315 q 522 523 583 446 q 358 600 461 600 q 192 524 254 600 q 131 315 131 447 q 192 109 131 185 q 358 33 252 33 q 523 109 463 33 q 583 315 583 184 z "},"п":{"ha":717,"x_min":121,"x_max":596,"o":"m 121 0 l 121 633 l 596 633 l 596 0 l 542 0 l 542 582 l 175 582 l 175 0 l 121 0 z "},"р":{"ha":713,"x_min":121,"x_max":646,"o":"m 158 633 l 175 559 l 176 559 q 264 624 209 599 q 372 650 319 650 q 575 564 505 650 q 646 322 646 478 q 600 112 646 188 q 492 10 553 37 q 372 -17 431 -17 q 175 61 248 -17 l 174 61 l 175 -62 l 175 -315 l 121 -315 l 121 633 l 158 633 m 589 321 q 532 527 589 454 q 372 600 475 600 q 258 570 312 600 q 175 494 205 541 l 175 117 q 267 53 221 73 q 371 33 313 33 q 519 90 450 33 q 589 321 589 146 z "},"с":{"ha":606,"x_min":74,"x_max":542,"o":"m 74 311 q 118 508 74 432 q 228 616 161 583 q 366 650 294 650 q 458 640 414 650 q 532 614 503 630 l 532 558 q 451 589 496 577 q 364 600 405 600 q 252 571 305 600 q 165 477 199 543 q 131 310 131 412 q 197 108 131 183 q 376 33 264 33 q 542 72 450 33 l 542 21 q 372 -17 466 -17 q 221 19 289 -17 q 114 129 154 55 q 74 311 74 202 z "},"т":{"ha":615,"x_min":52,"x_max":564,"o":"m 281 0 l 281 582 l 52 582 l 52 633 l 564 633 l 564 582 l 335 582 l 335 0 l 281 0 z "},"у":{"ha":623,"x_min":32,"x_max":590,"o":"m 32 633 l 90 633 q 304 58 282 115 l 310 58 l 532 633 l 590 633 l 207 -315 l 149 -315 l 275 -5 l 32 633 z "},"ф":{"ha":899,"x_min":74,"x_max":825,"o":"m 421 -16 q 167 82 260 -6 q 74 314 74 170 q 166 552 74 463 q 421 650 258 640 l 421 982 l 475 982 l 475 650 q 731 551 637 640 q 825 315 825 461 q 732 81 825 170 q 475 -16 638 -7 l 475 -315 l 421 -315 l 421 -16 m 421 600 q 208 514 285 591 q 131 314 131 437 q 208 118 131 193 q 421 32 285 43 l 421 600 m 768 315 q 690 516 768 439 q 475 600 612 592 l 475 32 q 690 118 612 43 q 768 315 768 193 z "},"х":{"ha":549,"x_min":11,"x_max":536,"o":"m 241 321 l 14 633 l 75 633 l 272 359 l 468 633 l 526 633 l 306 322 l 536 0 l 475 0 l 272 282 l 71 0 l 11 0 l 241 321 z "},"ц":{"ha":770,"x_min":114,"x_max":672,"o":"m 621 -231 l 621 0 l 114 0 l 114 633 l 168 633 l 168 50 l 519 50 l 519 633 l 574 633 l 574 50 l 672 50 l 672 -231 l 621 -231 z "},"ч":{"ha":656,"x_min":83,"x_max":534,"o":"m 481 302 l 478 302 q 390 261 447 279 q 283 243 334 243 q 130 295 176 243 q 83 450 83 347 l 83 633 l 138 633 l 138 463 q 173 332 138 371 q 278 293 208 293 q 481 357 396 293 l 481 633 l 534 633 l 534 0 l 481 0 l 481 302 z "},"ш":{"ha":989,"x_min":121,"x_max":868,"o":"m 121 0 l 121 633 l 175 633 l 175 50 l 468 50 l 468 633 l 522 633 l 522 50 l 814 50 l 814 633 l 868 633 l 868 0 l 121 0 z "},"щ":{"ha":1053,"x_min":121,"x_max":956,"o":"m 904 -231 l 904 0 l 121 0 l 121 633 l 175 633 l 175 50 l 465 50 l 465 633 l 519 633 l 519 50 l 799 50 l 799 633 l 852 633 l 852 50 l 956 50 l 956 -231 l 904 -231 z "},"ъ":{"ha":708,"x_min":0,"x_max":640,"o":"m 187 24 l 187 586 l 0 586 l 0 633 l 241 633 l 241 368 q 418 385 314 385 q 582 335 523 385 q 640 196 640 285 q 566 49 640 103 q 366 -5 492 -5 q 270 4 325 -5 q 187 24 215 13 m 585 197 q 541 298 585 261 q 408 335 497 335 q 241 319 314 335 l 241 58 q 370 43 300 43 q 529 84 474 43 q 585 197 585 125 z "},"ы":{"ha":867,"x_min":121,"x_max":746,"o":"m 175 633 l 175 368 q 351 385 248 385 q 515 335 456 385 q 574 196 574 285 q 499 48 574 102 q 298 -5 425 -5 q 203 4 258 -5 q 121 24 149 13 l 121 633 l 175 633 m 690 0 l 690 633 l 746 633 l 746 0 l 690 0 m 518 197 q 474 298 518 261 q 342 335 431 335 q 175 319 248 335 l 175 58 q 302 43 234 43 q 463 84 408 43 q 518 197 518 125 z "},"ь":{"ha":656,"x_min":121,"x_max":587,"o":"m 175 633 l 175 368 q 366 385 245 385 q 529 335 470 385 q 587 196 587 285 q 513 49 587 103 q 313 -5 439 -5 q 209 4 271 -5 q 121 24 147 13 l 121 633 l 175 633 m 532 197 q 488 298 532 261 q 355 335 445 335 q 175 319 247 335 l 175 58 q 317 43 236 43 q 476 84 421 43 q 532 197 532 125 z "},"э":{"ha":625,"x_min":66,"x_max":551,"o":"m 66 18 l 66 66 q 142 42 104 50 q 239 33 180 33 q 494 307 494 33 l 122 307 l 122 357 l 493 357 q 425 536 486 472 q 262 600 364 600 q 169 591 218 600 q 81 564 119 581 l 81 611 q 269 650 147 650 q 476 564 401 650 q 551 325 551 477 q 470 72 551 160 q 237 -17 389 -17 q 142 -6 195 -17 q 66 18 89 5 z "},"ю":{"ha":994,"x_min":121,"x_max":921,"o":"m 340 306 l 175 306 l 175 0 l 121 0 l 121 633 l 175 633 l 175 354 l 339 354 q 428 569 349 489 q 631 650 507 650 q 842 558 764 650 q 921 315 921 467 q 841 75 921 166 q 632 -17 762 -17 q 424 69 502 -17 q 340 306 345 155 m 864 315 q 802 524 864 447 q 631 600 740 600 q 458 525 519 600 q 396 315 396 450 q 458 107 396 182 q 632 33 520 33 q 803 108 742 33 q 864 315 864 183 z "},"я":{"ha":672,"x_min":83,"x_max":551,"o":"m 241 273 q 96 441 96 299 q 159 586 96 538 q 335 633 222 633 l 551 633 l 551 0 l 497 0 l 497 267 l 302 267 l 149 0 l 83 0 l 241 273 m 497 317 l 497 583 l 338 583 q 202 552 252 583 q 151 441 151 521 q 191 346 151 375 q 315 317 231 317 l 497 317 z "},"ѐ":{"ha":672,"x_min":74,"x_max":583,"o":"m 74 323 q 109 496 74 422 q 203 610 143 570 q 339 650 264 650 q 517 577 450 650 q 583 347 583 504 l 583 323 l 131 323 q 197 103 131 174 q 382 33 262 33 q 561 69 484 33 l 561 18 q 382 -17 498 -17 q 154 72 234 -17 q 74 323 74 161 m 339 602 q 197 537 255 602 q 132 372 140 473 l 528 372 q 478 543 526 485 q 339 602 431 602 m 342 762 l 235 999 l 305 999 l 391 762 l 342 762 z "},"ё":{"ha":672,"x_min":74,"x_max":583,"o":"m 74 323 q 109 496 74 422 q 203 610 143 570 q 339 650 264 650 q 517 577 450 650 q 583 347 583 504 l 583 323 l 131 323 q 197 103 131 174 q 382 33 262 33 q 561 69 484 33 l 561 18 q 382 -17 498 -17 q 154 72 234 -17 q 74 323 74 161 m 339 602 q 197 537 255 602 q 132 372 140 473 l 528 372 q 478 543 526 485 q 339 602 431 602 m 201 782 l 201 863 l 275 863 l 275 782 l 201 782 m 443 782 l 443 863 l 515 863 l 515 782 l 443 782 z "},"ђ":{"ha":758,"x_min":40,"x_max":671,"o":"m 379 -208 l 379 -158 l 390 -158 q 564 -47 513 -158 q 615 228 615 64 q 564 475 615 399 q 408 551 512 551 q 208 468 302 551 l 208 0 l 154 0 l 154 815 l 40 815 l 40 867 l 154 867 l 154 982 l 208 982 l 208 867 l 484 867 l 484 815 l 208 815 l 208 661 q 205 526 208 571 l 210 526 q 410 603 307 603 q 605 515 538 603 q 671 228 671 427 q 644 9 671 106 q 556 -149 618 -89 q 396 -208 495 -208 l 379 -208 z "},"ѓ":{"ha":587,"x_min":121,"x_max":536,"o":"m 121 0 l 121 633 l 536 633 l 536 582 l 175 582 l 175 0 l 121 0 m 279 762 l 365 999 l 436 999 l 328 762 l 279 762 z "},"є":{"ha":623,"x_min":74,"x_max":558,"o":"m 74 311 q 122 514 74 438 q 239 620 170 589 q 375 650 307 650 q 471 638 426 650 q 545 611 516 627 l 545 564 q 375 600 463 600 q 259 572 314 600 q 169 489 204 545 q 132 355 134 434 l 503 355 l 503 306 l 131 306 q 197 105 131 176 q 385 33 264 33 q 558 66 484 33 l 558 18 q 485 -6 536 4 q 383 -17 435 -17 q 155 70 235 -17 q 74 311 74 156 z "},"ѕ":{"ha":536,"x_min":71,"x_max":471,"o":"m 71 16 l 71 72 q 243 32 144 32 q 371 70 323 32 q 418 175 418 107 q 387 254 418 227 q 282 300 355 282 q 172 334 215 316 q 102 385 130 351 q 75 475 75 419 q 135 607 75 564 q 288 650 195 650 q 446 614 372 650 l 446 561 q 369 591 406 581 q 283 602 332 602 q 167 570 207 602 q 127 479 127 538 q 146 416 127 439 q 197 381 165 393 q 296 353 230 369 q 429 291 387 330 q 471 179 471 252 q 410 36 471 90 q 243 -17 349 -17 q 71 16 129 -17 z "},"і":{"ha":296,"x_min":117,"x_max":179,"o":"m 117 847 l 179 847 l 179 782 l 117 782 l 117 847 m 121 633 l 175 633 l 175 0 l 121 0 l 121 633 z "},"ї":{"ha":296,"x_min":-8,"x_max":306,"o":"m 121 0 l 121 633 l 175 633 l 175 0 l 121 0 m -8 782 l -8 863 l 65 863 l 65 782 l -8 782 m 233 782 l 233 863 l 306 863 l 306 782 l 233 782 z "},"ј":{"ha":296,"x_min":-69,"x_max":179,"o":"m 117 847 l 179 847 l 179 782 l 117 782 l 117 847 m -69 -321 l -69 -269 q 14 -282 -27 -282 q 93 -254 64 -282 q 121 -178 121 -226 l 121 633 l 175 633 l 175 -191 q 130 -294 175 -257 q 12 -332 85 -332 q -69 -321 -31 -332 z "},"љ":{"ha":1067,"x_min":33,"x_max":999,"o":"m 999 196 q 925 48 999 102 q 724 -5 850 -5 q 628 4 683 -5 q 546 24 574 13 l 546 582 l 326 582 q 260 224 297 353 q 173 43 223 96 q 50 -9 123 -9 l 33 -8 l 33 45 l 53 43 q 195 181 142 43 q 279 633 248 319 l 600 633 l 600 368 q 777 385 673 385 q 940 335 881 385 q 999 196 999 286 m 943 197 q 900 298 943 261 q 766 335 856 335 q 600 319 671 335 l 600 58 q 728 43 659 43 q 888 84 833 43 q 943 197 943 125 z "},"њ":{"ha":1019,"x_min":114,"x_max":951,"o":"m 951 196 q 877 48 951 102 q 676 -5 803 -5 q 581 4 635 -5 q 498 24 526 13 l 498 315 l 168 315 l 168 0 l 114 0 l 114 633 l 168 633 l 168 366 l 498 366 l 498 633 l 553 633 l 553 368 q 729 385 625 385 q 893 335 834 385 q 951 196 951 285 m 896 197 q 852 298 896 261 q 720 335 808 335 q 553 319 625 335 l 553 58 q 681 43 612 43 q 841 84 785 43 q 896 197 896 125 z "},"ћ":{"ha":762,"x_min":40,"x_max":648,"o":"m 153 808 l 40 808 l 40 861 l 153 861 l 153 982 l 207 982 l 207 861 l 476 861 l 476 808 l 207 808 l 207 635 l 204 475 l 205 475 q 314 570 261 543 q 433 597 366 597 q 595 539 541 597 q 648 374 648 480 l 648 0 l 595 0 l 595 361 q 432 547 595 547 q 305 509 364 547 q 207 406 245 470 l 207 0 l 153 0 l 153 808 z "},"ќ":{"ha":632,"x_min":121,"x_max":582,"o":"m 566 633 l 241 325 l 582 0 l 511 0 l 176 315 l 175 315 l 175 0 l 121 0 l 121 633 l 175 633 l 175 328 l 176 328 l 492 633 l 566 633 m 282 762 l 368 999 l 439 999 l 330 762 l 282 762 z "},"ѝ":{"ha":753,"x_min":121,"x_max":632,"o":"m 121 633 l 175 633 l 175 167 l 172 86 l 175 86 l 262 205 l 589 633 l 632 633 l 632 0 l 578 0 l 578 490 l 579 546 l 576 546 q 489 425 555 513 l 164 0 l 121 0 l 121 633 m 349 762 l 241 999 l 311 999 l 397 762 l 349 762 z "},"ў":{"ha":623,"x_min":32,"x_max":590,"o":"m 32 633 l 90 633 q 304 58 282 115 l 310 58 l 532 633 l 590 633 l 207 -315 l 149 -315 l 275 -5 l 32 633 m 109 989 l 157 989 q 298 851 177 851 q 441 989 422 851 l 492 989 q 430 855 483 905 q 296 806 377 806 q 165 856 212 806 q 109 989 117 906 z "},"џ":{"ha":718,"x_min":121,"x_max":597,"o":"m 334 -231 l 334 0 l 121 0 l 121 633 l 175 633 l 175 50 l 543 50 l 543 633 l 597 633 l 597 0 l 386 0 l 386 -231 l 334 -231 z "},"Ґ":{"ha":725,"x_min":121,"x_max":684,"o":"m 121 0 l 121 907 l 624 907 l 624 1169 l 684 1169 l 684 852 l 180 852 l 180 0 l 121 0 z "},"ґ":{"ha":599,"x_min":121,"x_max":542,"o":"m 121 0 l 121 633 l 489 633 l 489 839 l 542 839 l 542 582 l 175 582 l 175 0 l 121 0 z "},"Ғ":{"ha":689,"x_min":40,"x_max":665,"o":"m 665 847 l 182 852 l 182 494 l 456 494 l 456 440 l 182 440 l 182 0 l 122 0 l 122 440 l 40 440 l 40 494 l 122 494 l 122 907 l 665 907 l 665 847 z "},"ғ":{"ha":587,"x_min":40,"x_max":536,"o":"m 536 582 l 175 582 l 175 298 l 355 298 l 355 249 l 175 249 l 175 0 l 121 0 l 121 249 l 40 249 l 40 298 l 121 298 l 121 633 l 536 633 l 536 582 z "},"Җ":{"ha":1116,"x_min":61,"x_max":1063,"o":"m 1003 65 l 1063 65 l 1063 -300 l 1003 -300 l 1003 0 l 982 0 l 591 446 l 590 446 l 590 0 l 530 0 l 530 446 l 529 446 l 139 0 l 61 0 l 463 454 l 96 907 l 164 907 l 529 458 l 530 458 l 530 907 l 590 907 l 590 458 l 591 458 l 957 907 l 1025 907 l 659 454 l 1003 65 z "},"җ":{"ha":878,"x_min":50,"x_max":811,"o":"m 761 49 l 811 49 l 811 -231 l 760 -231 l 760 0 l 736 0 l 456 315 l 454 315 l 454 0 l 400 0 l 400 315 l 399 315 l 118 0 l 50 0 l 339 321 l 69 633 l 136 633 l 399 328 l 400 328 l 400 633 l 454 633 l 454 328 l 456 328 l 718 633 l 785 633 l 515 322 l 761 49 z "},"Қ":{"ha":786,"x_min":121,"x_max":746,"o":"m 746 -300 l 686 -300 l 686 0 l 665 0 l 182 449 l 180 449 l 180 0 l 121 0 l 121 907 l 180 907 l 180 456 l 182 456 l 640 907 l 713 907 l 258 453 l 676 65 l 746 65 l 746 -300 z "},"қ":{"ha":642,"x_min":121,"x_max":582,"o":"m 530 49 l 582 49 l 582 -231 l 530 -231 l 530 0 l 511 0 l 176 315 l 175 315 l 175 0 l 121 0 l 121 633 l 175 633 l 175 328 l 176 328 l 492 633 l 566 633 l 241 325 l 530 49 z "},"Ұ":{"ha":774,"x_min":39,"x_max":734,"o":"m 416 364 l 416 326 l 597 326 l 597 275 l 416 275 l 416 0 l 357 0 l 357 275 l 182 275 l 182 326 l 357 326 l 357 364 l 39 907 l 104 907 l 385 416 l 389 416 l 669 907 l 734 907 l 416 364 z "},"ұ":{"ha":604,"x_min":32,"x_max":572,"o":"m 347 50 l 484 50 l 484 0 l 328 0 l 328 -315 l 273 -315 l 273 0 l 121 0 l 121 50 l 256 50 l 32 633 l 90 633 l 256 191 q 300 68 292 95 l 302 68 l 514 633 l 572 633 l 347 50 z "},"Ҳ":{"ha":778,"x_min":14,"x_max":746,"o":"m 746 65 l 746 -300 l 686 -300 l 686 0 l 664 0 l 375 422 l 372 422 l 317 343 l 81 0 l 14 0 l 332 465 l 39 907 l 107 907 l 323 575 l 375 501 l 376 501 l 429 574 l 650 907 l 717 907 l 419 460 l 688 65 l 746 65 z "},"ҳ":{"ha":595,"x_min":11,"x_max":547,"o":"m 501 49 l 547 49 l 547 -231 l 497 -231 l 497 0 l 475 0 l 272 282 l 71 0 l 11 0 l 241 321 l 14 633 l 75 633 l 272 359 l 468 633 l 526 633 l 306 322 l 501 49 z "},"Ҷ":{"ha":869,"x_min":109,"x_max":772,"o":"m 772 65 l 772 -300 l 713 -300 l 713 0 l 654 0 l 654 429 q 371 380 513 380 q 171 449 234 380 q 109 650 109 518 l 109 907 l 168 907 l 168 650 q 220 487 168 538 q 382 435 273 435 q 654 485 515 435 l 654 907 l 714 907 l 714 65 l 772 65 z "},"ҷ":{"ha":632,"x_min":83,"x_max":582,"o":"m 582 49 l 582 -231 l 530 -231 l 530 0 l 481 0 l 481 302 l 478 302 q 390 261 447 279 q 283 243 334 243 q 130 295 176 243 q 83 450 83 347 l 83 633 l 138 633 l 138 463 q 173 332 138 371 q 278 293 208 293 q 481 357 396 293 l 481 633 l 534 633 l 534 49 l 582 49 z "},"Ԛ":{"ha":1008,"x_min":93,"x_max":920,"o":"m 93 453 q 145 696 93 589 q 292 864 198 804 q 504 925 385 925 q 721 865 627 925 q 865 699 814 804 q 916 464 916 594 q 859 205 916 315 q 707 43 802 96 l 707 39 q 920 50 844 50 l 920 -5 l 832 -3 l 757 0 l 674 -5 q 505 -14 570 -14 q 206 114 319 -14 q 93 453 93 241 m 850 453 q 804 680 850 586 q 680 822 758 774 q 504 869 601 869 q 329 822 408 869 q 203 680 250 774 q 157 453 157 586 q 203 229 157 323 q 329 86 249 135 q 507 37 408 37 q 683 86 605 37 q 805 229 760 135 q 850 453 850 323 z "},"ԛ":{"ha":714,"x_min":66,"x_max":591,"o":"m 591 633 l 591 -315 l 538 -315 l 538 -58 l 539 62 l 536 62 q 450 6 506 29 q 338 -17 393 -17 q 137 71 208 -17 q 66 318 66 159 q 105 496 66 421 q 209 610 143 571 q 354 650 274 650 q 538 559 469 650 l 541 559 l 554 633 l 591 633 m 538 497 q 456 574 500 549 q 355 600 412 600 q 185 524 247 600 q 123 314 123 448 q 183 98 123 163 q 346 33 242 33 q 538 117 454 33 l 538 497 z "},"Ԝ":{"ha":1189,"x_min":39,"x_max":1150,"o":"m 103 907 l 293 220 q 340 58 318 128 l 342 58 q 378 191 353 112 l 387 221 l 561 907 l 627 907 l 802 221 q 844 57 838 77 l 846 57 q 896 220 879 159 l 1086 907 l 1150 907 l 879 0 l 810 0 l 635 660 q 595 839 600 790 l 591 839 q 550 660 583 788 l 375 0 l 307 0 l 39 907 l 103 907 z "},"ԝ":{"ha":942,"x_min":46,"x_max":896,"o":"m 896 633 l 707 0 l 647 0 l 471 587 l 467 587 l 298 0 l 239 0 l 46 633 l 104 633 l 231 180 l 267 56 l 269 56 l 435 633 l 507 633 l 639 183 l 675 56 l 677 56 l 700 131 l 839 633 l 896 633 z "},"֏":{"ha":694,"x_min":75,"x_max":643,"o":"m 553 475 l 553 363 l 643 363 l 643 311 l 553 311 l 553 0 l 497 0 l 497 311 l 296 311 l 296 363 l 497 363 l 497 475 l 296 475 l 296 526 l 497 526 l 497 693 q 450 872 497 818 q 315 926 402 926 q 182 871 233 926 q 131 693 131 816 l 131 528 l 75 528 l 75 715 q 138 912 75 844 q 315 981 201 981 q 493 913 433 981 q 553 715 553 846 l 553 526 l 643 526 l 643 475 l 553 475 z "},"؋":{"ha":694,"x_min":126,"x_max":603,"o":"m 357 679 l 357 764 l 421 764 l 421 679 l 357 679 m 126 52 l 547 52 l 547 115 q 310 169 390 115 q 231 347 231 223 q 277 471 231 425 q 401 517 324 517 q 554 433 505 517 q 603 176 603 350 l 603 0 l 126 0 l 126 52 m 397 464 q 318 430 349 464 q 288 346 288 397 q 351 208 288 250 q 543 165 414 165 q 508 393 543 323 q 397 464 472 464 m 355 -315 l 355 -78 l 403 -78 l 403 -315 l 355 -315 z "},"৲":{"ha":668,"x_min":40,"x_max":619,"o":"m 619 385 q 583 185 619 284 q 485 -1 547 86 l 446 32 q 531 207 499 112 q 564 395 564 301 q 497 632 564 526 q 313 808 431 739 q 40 904 195 878 l 57 942 q 351 847 224 920 q 549 655 478 774 q 619 385 619 537 z "},"৳":{"ha":694,"x_min":5,"x_max":623,"o":"m 623 383 l 623 232 q 390 -17 623 -17 q 206 45 264 -17 q 149 233 149 106 l 149 555 l 26 555 l 26 608 l 149 608 l 149 696 q 145 797 149 764 q 125 848 141 830 q 75 867 110 867 q 5 859 45 867 l 5 908 q 79 920 39 920 q 175 878 146 920 q 204 758 204 836 l 204 608 l 297 608 l 297 555 l 204 555 l 204 220 q 250 79 204 123 q 387 35 296 35 q 525 85 482 35 q 567 232 567 136 l 567 376 q 560 501 567 454 q 530 576 553 549 q 461 604 507 604 q 385 591 413 604 l 385 639 q 471 659 417 659 q 572 621 539 659 q 614 527 605 583 q 623 383 623 471 z "},"૱":{"ha":1051,"x_min":50,"x_max":993,"o":"m 61 233 q 313 314 218 257 q 408 467 408 372 q 367 571 408 530 q 262 612 326 612 q 172 607 222 612 q 90 595 122 602 l 94 642 q 257 685 196 647 q 318 779 318 722 q 294 840 318 819 q 230 867 270 861 q 129 873 190 873 l 50 871 l 56 925 l 127 928 q 378 775 378 928 q 296 652 378 705 q 424 595 376 643 q 471 469 471 547 q 373 291 471 361 q 123 191 276 221 q 200 -62 137 35 q 386 -174 264 -159 l 374 -222 q 207 -155 275 -219 q 101 12 138 -91 q 61 233 65 114 m 538 411 q 601 575 538 511 q 764 639 665 639 q 928 577 863 639 q 993 421 993 516 q 930 256 993 319 q 766 193 867 193 q 603 256 668 193 q 538 411 538 318 m 937 422 q 890 542 937 497 q 764 587 843 587 q 639 540 686 587 q 593 414 593 493 q 641 292 593 340 q 765 244 690 244 q 890 293 843 244 q 937 422 937 342 z "},"௹":{"ha":1503,"x_min":64,"x_max":1531,"o":"m 64 336 q 147 657 64 522 q 387 866 231 793 q 754 939 543 939 q 1153 845 990 939 q 1360 589 1316 751 q 1531 490 1451 562 l 1508 447 q 1364 539 1449 514 q 1310 340 1364 417 q 1171 262 1257 262 q 1064 305 1107 262 q 1022 414 1022 347 q 1089 551 1022 498 q 1261 604 1156 604 l 1300 602 q 1114 810 1265 730 q 754 889 962 889 q 421 821 563 889 q 203 629 279 753 q 127 338 127 504 q 251 -39 127 95 q 596 -172 374 -172 q 859 -93 762 -172 q 956 121 956 -14 q 925 260 956 208 q 828 311 895 311 q 704 272 745 311 l 704 0 l 646 0 l 646 511 l 486 511 l 486 0 l 427 0 l 427 564 l 937 564 l 937 511 l 704 511 l 704 322 q 760 351 736 343 q 828 359 785 359 q 963 296 914 359 q 1013 121 1013 233 q 962 -56 1013 22 q 818 -178 911 -134 q 603 -222 725 -222 q 307 -153 428 -222 q 125 43 186 -83 q 64 336 64 169 m 1310 555 q 1280 558 1303 558 q 1134 519 1188 558 q 1080 414 1080 479 q 1107 339 1080 367 q 1177 311 1135 311 q 1272 381 1234 311 q 1310 555 1310 450 z "},"฿":{"ha":694,"x_min":107,"x_max":637,"o":"m 637 256 q 600 123 637 183 q 500 35 563 63 q 355 3 437 7 l 355 -125 l 300 -125 l 300 0 l 107 0 l 107 907 l 211 907 l 300 905 l 300 1015 l 355 1015 l 355 901 q 532 835 465 892 q 599 677 599 779 q 428 469 599 509 l 428 467 q 582 409 526 465 q 637 256 637 354 m 167 492 l 300 492 l 300 851 l 239 852 l 167 852 l 167 492 m 355 847 l 355 493 q 484 547 436 499 q 532 675 532 594 q 489 793 532 752 q 355 847 446 835 m 300 54 l 300 436 l 167 436 l 167 54 l 300 54 m 571 256 q 537 372 571 326 q 422 431 504 418 l 355 436 l 355 57 q 481 88 437 65 q 548 158 526 111 q 571 256 571 205 z "},"៛":{"ha":694,"x_min":94,"x_max":595,"o":"m 595 393 l 472 393 l 472 0 l 357 0 q 163 39 233 0 q 94 168 94 77 q 138 284 94 239 q 248 329 181 329 l 248 275 q 184 244 211 275 q 157 168 157 214 q 215 79 157 106 q 416 53 273 53 l 416 393 l 275 393 l 275 447 l 416 447 l 416 554 q 206 599 279 555 q 134 737 134 642 q 199 873 134 823 q 374 924 265 924 q 453 917 422 924 q 499 904 484 910 q 518 897 514 899 l 513 842 q 449 863 480 857 q 370 869 418 869 q 243 834 290 869 q 196 737 196 799 q 248 641 196 673 q 386 608 300 608 l 472 608 l 472 447 l 595 447 l 595 393 z "},"Ṣ":{"ha":733,"x_min":89,"x_max":644,"o":"m 93 32 l 93 97 q 201 58 126 77 q 326 39 277 39 q 516 84 448 39 q 583 239 583 130 q 561 330 583 294 q 498 387 538 366 q 357 437 459 409 q 216 481 269 459 q 125 550 162 503 q 89 675 89 596 q 171 857 89 788 q 385 925 252 925 q 554 900 471 925 q 614 875 587 888 l 614 810 q 543 841 572 829 q 472 861 513 852 q 380 871 430 870 q 207 817 263 871 q 150 672 150 762 q 175 583 150 615 q 241 532 199 550 q 367 492 283 515 q 513 444 460 466 q 605 373 566 422 q 644 241 644 325 q 561 51 644 119 q 322 -17 477 -17 q 189 0 258 -17 q 93 32 120 17 m 347 -96 l 410 -96 l 410 -161 l 347 -161 l 347 -96 z "},"ṣ":{"ha":536,"x_min":71,"x_max":471,"o":"m 71 16 l 71 72 q 243 32 144 32 q 371 70 323 32 q 418 175 418 107 q 387 254 418 227 q 282 300 355 282 q 172 334 215 316 q 102 385 130 351 q 75 475 75 419 q 135 607 75 564 q 288 650 195 650 q 446 614 372 650 l 446 561 q 369 591 406 581 q 283 602 332 602 q 167 570 207 602 q 127 479 127 538 q 146 416 127 439 q 197 381 165 393 q 296 353 230 369 q 429 291 387 330 q 471 179 471 252 q 410 36 471 90 q 243 -17 349 -17 q 71 16 129 -17 m 243 -96 l 306 -96 l 306 -161 l 243 -161 l 243 -96 z "},"Ạ":{"ha":854,"x_min":26,"x_max":828,"o":"m 26 0 l 397 907 l 456 907 l 828 0 l 762 0 l 632 322 l 221 322 l 92 0 l 26 0 m 610 376 l 575 464 q 429 836 462 745 l 427 836 q 335 606 399 759 q 241 376 315 559 l 610 376 m 384 -96 l 446 -96 l 446 -161 l 384 -161 l 384 -96 z "},"ạ":{"ha":660,"x_min":71,"x_max":545,"o":"m 71 182 q 132 321 71 268 q 290 374 193 374 q 485 336 382 374 l 485 418 q 438 554 485 508 q 289 600 391 600 q 126 568 222 600 l 126 619 q 194 641 146 631 q 289 650 242 650 q 477 592 416 650 q 539 418 539 534 l 539 203 q 545 0 539 136 l 496 0 l 486 74 l 484 74 q 393 10 452 37 q 277 -17 334 -17 q 127 33 184 -17 q 71 182 71 82 m 485 131 l 485 289 q 394 316 434 308 q 283 323 353 323 q 168 287 210 323 q 126 182 126 250 q 168 69 126 106 q 277 32 209 32 q 399 61 351 32 q 485 131 448 90 m 298 -96 l 360 -96 l 360 -161 l 298 -161 l 298 -96 z "},"Ẹ":{"ha":745,"x_min":121,"x_max":664,"o":"m 121 907 l 637 907 l 637 852 l 180 852 l 180 492 l 599 492 l 599 437 l 180 437 l 180 54 l 664 54 l 664 0 l 121 0 l 121 907 m 359 -96 l 421 -96 l 421 -161 l 359 -161 l 359 -96 z "},"ẹ":{"ha":672,"x_min":74,"x_max":583,"o":"m 74 323 q 109 496 74 422 q 203 610 143 570 q 339 650 264 650 q 517 577 450 650 q 583 347 583 504 l 583 323 l 131 323 q 197 103 131 174 q 382 33 262 33 q 561 69 484 33 l 561 18 q 382 -17 498 -17 q 154 72 234 -17 q 74 323 74 161 m 339 602 q 197 537 255 602 q 132 372 140 473 l 528 372 q 478 543 526 485 q 339 602 431 602 m 313 -96 l 375 -96 l 375 -161 l 313 -161 l 313 -96 z "},"Ị":{"ha":301,"x_min":120,"x_max":182,"o":"m 121 907 l 180 907 l 180 0 l 121 0 l 121 907 m 120 -96 l 182 -96 l 182 -161 l 120 -161 l 120 -96 z "},"ị":{"ha":296,"x_min":117,"x_max":180,"o":"m 117 847 l 179 847 l 179 782 l 117 782 l 117 847 m 121 633 l 175 633 l 175 0 l 121 0 l 121 633 m 117 -96 l 180 -96 l 180 -161 l 117 -161 l 117 -96 z "},"Ọ":{"ha":1008,"x_min":93,"x_max":916,"o":"m 93 453 q 145 696 93 588 q 292 864 198 804 q 504 925 385 925 q 721 864 628 925 q 865 696 814 804 q 916 453 916 589 q 863 212 916 319 q 718 44 811 104 q 507 -17 625 -17 q 288 43 382 -17 q 143 211 194 104 q 93 453 93 317 m 851 453 q 805 678 851 583 q 680 822 759 772 q 504 871 601 871 q 329 822 408 871 q 203 678 250 772 q 157 453 157 583 q 203 228 157 321 q 330 85 250 134 q 507 37 410 37 q 681 85 603 37 q 805 228 759 134 q 851 453 851 321 m 477 -96 l 539 -96 l 539 -161 l 477 -161 l 477 -96 z "},"ọ":{"ha":714,"x_min":74,"x_max":640,"o":"m 74 315 q 152 558 74 467 q 358 650 229 650 q 564 559 488 650 q 640 315 640 468 q 562 75 640 167 q 358 -17 484 -17 q 151 74 229 -17 q 74 315 74 164 m 583 315 q 522 523 583 446 q 358 600 461 600 q 192 524 254 600 q 131 315 131 447 q 192 109 131 185 q 358 33 252 33 q 523 109 463 33 q 583 315 583 184 m 327 -96 l 389 -96 l 389 -161 l 327 -161 l 327 -96 z "},"Ụ":{"ha":895,"x_min":118,"x_max":777,"o":"m 118 323 l 118 907 l 178 907 l 178 298 q 249 106 178 176 q 447 37 319 37 q 646 104 576 37 q 717 298 717 171 l 717 907 l 777 907 l 777 323 q 446 -17 777 -17 q 200 71 281 -17 q 118 323 118 159 m 437 -96 l 499 -96 l 499 -161 l 437 -161 l 437 -96 z "},"ụ":{"ha":684,"x_min":107,"x_max":576,"o":"m 107 243 l 107 633 l 161 633 l 161 229 q 210 79 161 125 q 342 33 258 33 q 442 56 401 33 q 502 117 482 78 q 522 232 522 157 l 522 633 l 576 633 l 576 241 q 563 122 576 165 q 517 46 549 79 q 441 -2 484 13 q 345 -17 399 -17 q 241 0 286 -17 q 165 48 195 18 q 121 121 135 79 q 107 243 107 162 m 307 -96 l 370 -96 l 370 -161 l 307 -161 l 307 -96 z "},"–":{"ha":677,"x_min":0,"x_max":677,"o":"m 0 311 l 0 359 l 677 359 l 677 311 l 0 311 z "},"—":{"ha":1153,"x_min":0,"x_max":1153,"o":"m 0 311 l 0 359 l 1153 359 l 1153 311 l 0 311 z "},"―":{"ha":1153,"x_min":0,"x_max":1153,"o":"m 0 311 l 0 359 l 1153 359 l 1153 311 l 0 311 z "},"‘":{"ha":273,"x_min":56,"x_max":218,"o":"m 151 607 l 56 907 l 110 907 l 218 607 l 151 607 z "},"’":{"ha":273,"x_min":56,"x_max":218,"o":"m 56 607 l 149 907 l 218 907 l 110 607 l 56 607 z "},"‚":{"ha":273,"x_min":39,"x_max":201,"o":"m 39 -164 l 132 136 l 201 136 l 93 -164 l 39 -164 z "},"“":{"ha":447,"x_min":56,"x_max":392,"o":"m 126 607 l 56 907 l 110 907 l 193 607 l 126 607 m 323 607 l 248 907 l 296 907 l 392 607 l 323 607 z "},"”":{"ha":472,"x_min":56,"x_max":416,"o":"m 56 607 l 149 907 l 218 907 l 110 607 l 56 607 m 232 607 l 350 907 l 416 907 l 286 607 l 232 607 z "},"„":{"ha":473,"x_min":39,"x_max":399,"o":"m 39 -164 l 132 136 l 201 136 l 93 -164 l 39 -164 m 215 -164 l 333 136 l 399 136 l 269 -164 l 215 -164 z "},"†":{"ha":632,"x_min":90,"x_max":545,"o":"m 302 79 l 286 464 l 306 610 l 196 591 l 90 591 l 90 646 l 195 646 l 306 628 l 286 775 l 286 907 l 349 907 l 349 775 l 328 628 l 437 646 l 545 646 l 545 591 l 437 591 l 328 610 l 349 464 l 328 79 l 302 79 z "},"‡":{"ha":632,"x_min":90,"x_max":545,"o":"m 349 449 l 328 297 l 437 315 l 545 315 l 545 261 l 437 261 l 328 279 l 349 132 l 349 0 l 286 0 l 286 132 l 306 279 l 195 261 l 90 261 l 90 315 l 196 315 l 306 297 l 286 449 l 286 458 l 306 610 l 196 591 l 90 591 l 90 646 l 195 646 l 306 628 l 286 775 l 286 907 l 349 907 l 349 775 l 328 628 l 437 646 l 545 646 l 545 591 l 437 591 l 328 610 l 349 458 l 349 449 z "},"•":{"ha":615,"x_min":94,"x_max":521,"o":"m 94 453 q 155 605 94 544 q 309 665 216 665 q 460 604 399 665 q 521 453 521 543 q 460 300 521 361 q 309 239 400 239 q 155 300 216 239 q 94 453 94 361 z "},"…":{"ha":996,"x_min":125,"x_max":871,"o":"m 125 0 l 125 87 l 210 87 l 210 0 l 125 0 m 458 0 l 458 87 l 541 87 l 541 0 l 458 0 m 789 0 l 789 87 l 871 87 l 871 0 l 789 0 z "},"‰":{"ha":1535,"x_min":49,"x_max":1486,"o":"m 49 631 q 93 848 49 771 q 216 925 136 925 q 343 850 297 925 q 389 631 389 776 q 343 409 389 484 q 216 334 297 334 q 92 412 136 334 q 49 631 49 490 m 229 -9 l 193 16 l 857 905 l 894 878 l 229 -9 m 338 631 q 216 878 338 878 q 100 631 100 878 q 216 379 100 379 q 338 631 338 379 m 702 289 q 746 506 702 429 q 869 583 789 583 q 996 509 950 583 q 1042 289 1042 434 q 996 67 1042 142 q 869 -8 950 -8 q 745 70 789 -8 q 702 289 702 148 m 1146 289 q 1190 506 1146 429 q 1314 583 1234 583 q 1440 509 1394 583 q 1486 289 1486 434 q 1440 67 1486 142 q 1314 -8 1394 -8 q 1190 70 1233 -8 q 1146 289 1146 148 m 991 289 q 869 536 991 536 q 753 289 753 536 q 869 37 753 37 q 991 289 991 37 m 1435 289 q 1314 536 1435 536 q 1197 289 1197 536 q 1314 37 1197 37 q 1435 289 1435 37 z "},"‹":{"ha":401,"x_min":96,"x_max":343,"o":"m 286 74 l 96 321 l 286 570 l 343 570 l 168 321 l 343 74 l 286 74 z "},"›":{"ha":401,"x_min":57,"x_max":304,"o":"m 57 74 l 233 321 l 57 570 l 114 570 l 304 321 l 114 74 l 57 74 z "},"₠":{"ha":694,"x_min":41,"x_max":654,"o":"m 654 52 l 654 0 l 300 0 l 300 292 q 109 368 176 292 q 41 583 41 445 q 114 823 41 732 q 307 913 186 913 q 443 886 386 913 l 443 833 q 310 860 368 860 q 157 788 212 860 q 102 586 102 717 q 152 402 102 460 q 300 345 203 345 l 300 612 l 635 612 l 635 559 l 357 559 l 357 345 l 597 345 l 597 292 l 357 292 l 357 52 l 654 52 z "},"₡":{"ha":694,"x_min":54,"x_max":640,"o":"m 640 75 l 640 20 q 460 -17 570 -17 q 366 -7 409 -17 l 343 -111 l 292 -111 l 315 5 q 229 47 267 22 l 197 -107 l 146 -107 l 184 83 q 88 235 122 143 q 54 446 54 326 q 136 743 54 617 q 353 909 217 869 l 375 1019 l 433 1019 l 412 922 l 457 925 l 501 924 l 521 1015 l 579 1015 l 558 914 q 631 889 610 901 l 631 832 q 546 859 594 846 l 376 49 q 468 39 416 39 q 640 75 554 39 m 328 65 l 490 868 l 460 869 q 400 864 428 869 l 244 115 q 328 65 280 85 m 200 161 l 339 843 q 176 691 235 796 q 118 444 118 587 q 200 161 118 265 z "},"₢":{"ha":694,"x_min":54,"x_max":646,"o":"m 464 364 l 464 39 q 640 75 550 39 l 640 20 q 460 -17 570 -17 q 162 106 270 -17 q 54 446 54 230 q 109 695 54 586 q 256 865 163 804 q 457 925 348 925 q 558 914 511 925 q 631 889 606 903 l 631 832 q 544 859 583 849 q 460 869 506 869 q 296 821 375 869 q 168 675 218 772 q 118 444 118 579 q 194 169 118 274 q 410 43 271 63 l 410 550 l 453 550 l 463 444 l 464 444 q 628 567 515 567 l 646 567 l 646 511 l 628 511 q 464 364 517 511 z "},"₣":{"ha":694,"x_min":18,"x_max":628,"o":"m 628 852 l 197 852 l 197 494 l 589 494 l 589 440 l 197 440 l 197 228 l 392 228 l 392 176 l 197 176 l 197 0 l 138 0 l 138 176 l 18 176 l 18 228 l 138 228 l 138 907 l 628 907 l 628 852 z "},"₤":{"ha":694,"x_min":85,"x_max":625,"o":"m 625 52 l 625 0 l 85 0 l 85 52 l 176 52 l 197 228 l 111 228 l 111 279 l 204 279 l 218 392 l 111 392 l 111 443 l 224 443 l 228 475 q 295 658 243 605 q 447 711 348 711 q 533 703 490 711 q 602 681 575 694 l 602 631 q 443 660 533 660 q 329 611 364 660 q 281 443 294 562 l 522 443 l 522 392 l 275 392 l 261 279 l 522 279 l 522 228 l 256 228 l 235 52 l 625 52 z "},"₥":{"ha":1122,"x_min":121,"x_max":1014,"o":"m 1014 421 l 1014 0 l 960 0 l 960 408 q 796 600 960 600 q 683 565 730 600 q 595 463 636 529 l 595 0 l 541 0 l 541 357 l 326 -93 l 272 -93 l 538 465 q 486 565 528 529 q 375 600 445 600 q 267 571 314 600 q 175 486 220 542 l 175 0 l 121 0 l 121 633 l 164 633 l 175 545 l 176 545 q 268 624 221 597 q 382 650 315 650 q 504 619 456 650 q 574 541 551 588 l 736 882 l 790 882 l 657 602 q 800 650 718 650 q 959 590 905 650 q 1014 421 1014 530 z "},"₦":{"ha":911,"x_min":56,"x_max":856,"o":"m 856 521 l 749 521 l 749 397 l 856 397 l 856 345 l 749 345 l 749 0 l 697 0 l 489 345 l 220 345 l 220 0 l 160 0 l 160 345 l 56 345 l 56 397 l 160 397 l 160 521 l 56 521 l 56 574 l 160 574 l 160 907 l 211 907 l 412 574 l 689 574 l 689 907 l 749 907 l 749 574 l 856 574 l 856 521 m 220 574 l 351 574 l 214 802 l 211 802 q 220 574 218 726 m 220 397 l 458 397 l 383 521 l 220 521 l 220 397 m 689 397 l 689 521 l 444 521 l 518 397 l 689 397 m 689 345 l 550 345 l 694 106 l 699 106 q 689 345 691 179 z "},"₧":{"ha":1311,"x_min":121,"x_max":1246,"o":"m 1246 168 q 1216 72 1246 117 q 1132 5 1187 26 q 956 -17 1078 -17 q 783 18 843 -17 q 724 129 724 52 l 724 582 l 632 582 q 514 434 605 483 q 285 385 422 385 q 180 392 244 385 l 180 0 l 121 0 l 121 907 l 319 907 q 492 879 416 907 q 605 796 568 850 q 642 664 642 741 l 640 633 l 724 633 l 724 803 l 777 803 l 777 633 l 960 633 q 1063 650 1008 650 q 1222 614 1141 650 l 1222 562 q 1147 590 1178 582 q 1068 599 1116 599 q 944 567 984 599 q 904 467 904 536 q 921 413 904 433 q 966 382 938 393 q 1050 356 994 371 q 1168 316 1129 336 q 1226 260 1206 296 q 1246 168 1246 225 m 582 661 q 508 808 582 763 q 300 852 434 852 l 180 852 l 180 446 q 288 439 248 439 q 509 496 436 439 q 582 661 582 554 m 1193 170 q 1161 252 1193 222 q 1068 297 1130 281 q 899 359 949 319 q 848 471 848 399 q 882 582 848 531 l 777 582 l 777 153 q 804 76 777 102 q 873 41 831 50 q 974 33 915 33 q 1134 62 1076 33 q 1193 170 1193 91 z "}}}
